M48
; DRILL file {KiCad 5.1.4-e60b266~84~ubuntu16.04.1} date Thu Sep 26 20:18:09 2019
; FORMAT={-:-/ absolute / metric / decimal}
; #@! TF.CreationDate,2019-09-26T20:18:09+05:30
; #@! TF.GenerationSoftware,Kicad,Pcbnew,5.1.4-e60b266~84~ubuntu16.04.1
; #@! TF.FileFunction,Plated,1,4,PTH
FMAT,2
METRIC
T1C0.200
T2C0.400
T3C1.800
%
G90
G05
T1
X128.9Y-81.8
X128.9Y-84.0
X131.1Y-81.8
X131.1Y-84.0
T2
X118.4Y-86.25
X120.8Y-79.2
X121.7Y-79.2
X122.6Y-79.2
X123.75Y-61.8
X123.75Y-62.8
X124.85Y-61.8
X124.85Y-62.8
X125.6Y-77.9
X125.85Y-61.8
X125.85Y-62.8
X126.85Y-61.8
X126.85Y-62.8
X127.3Y-90.1
X127.85Y-61.8
X127.85Y-62.8
X127.9Y-80.9
X128.3Y-90.1
X129.171Y-79.11
X129.3Y-90.1
X129.4Y-91.6
X130.55Y-109.75
X131.9Y-85.1
X133.0Y-86.9
X133.2Y-81.4
X133.9Y-83.125
X134.1Y-89.8
X134.4Y-76.3
X134.4Y-77.3
X134.4Y-78.3
X134.4Y-79.3
X135.2Y-87.5
X135.4Y-76.3
X135.4Y-77.3
X135.4Y-78.3
X135.4Y-79.3
X136.4Y-76.3
X136.4Y-77.3
X136.4Y-78.3
X136.4Y-79.3
X137.675Y-65.4
X137.675Y-66.4
X137.675Y-67.4
X138.675Y-65.4
X138.675Y-66.4
X138.675Y-67.4
X138.75Y-100.65
X140.0Y-74.0
X140.65Y-103.0
X140.65Y-104.45
X140.65Y-105.8
X141.65Y-103.0
X141.65Y-104.45
X141.65Y-105.8
X142.6Y-103.0
X142.6Y-104.45
X142.6Y-105.8
X142.875Y-78.925
X142.875Y-80.15
X142.925Y-81.55
X142.925Y-82.775
X143.3Y-91.0
X143.3Y-92.0
X144.1Y-111.15
X144.1Y-112.1
X144.4Y-91.0
X144.4Y-92.0
X144.55Y-78.925
X144.55Y-80.15
X144.6Y-81.55
X144.6Y-82.775
X145.025Y-111.175
X145.025Y-112.125
X145.5Y-91.0
X145.5Y-92.0
X146.2Y-102.7
X146.325Y-78.925
X146.325Y-80.15
X146.375Y-81.55
X146.375Y-82.775
X146.6Y-91.0
X146.6Y-92.0
X147.05Y-108.15
X147.425Y-102.7
X147.7Y-91.0
X147.7Y-92.0
X148.05Y-78.925
X148.05Y-80.15
X148.1Y-81.55
X148.1Y-82.775
X152.5Y-64.375
X152.5Y-65.375
X152.5Y-66.375
X152.5Y-67.375
X153.5Y-64.375
X153.5Y-65.375
X153.5Y-66.375
X153.5Y-67.375
X154.425Y-100.825
X154.425Y-102.05
X154.475Y-103.45
X154.475Y-104.675
X154.5Y-64.375
X154.5Y-65.375
X154.5Y-66.375
X154.5Y-67.375
X156.1Y-100.825
X156.1Y-102.05
X156.15Y-103.45
X156.15Y-104.675
X156.65Y-72.325
X156.65Y-73.325
X156.65Y-74.325
X157.65Y-72.325
X157.65Y-73.325
X157.65Y-74.325
X157.875Y-100.825
X157.875Y-102.05
X157.925Y-103.45
X157.925Y-104.675
X158.65Y-72.325
X158.65Y-73.325
X158.65Y-74.325
X159.6Y-100.825
X159.6Y-102.05
X159.65Y-72.325
X159.65Y-73.325
X159.65Y-74.325
X159.65Y-103.45
X159.65Y-104.675
X160.15Y-109.1
X160.15Y-110.2
X160.15Y-111.25
X160.15Y-112.3
X160.15Y-113.35
X161.25Y-109.1
X161.25Y-110.2
X161.25Y-111.25
X161.25Y-112.3
X161.25Y-113.35
X170.325Y-108.075
T3
X172.075Y-66.875
X172.075Y-72.575
X113.75Y-106.25
X113.75Y-111.95
X119.45Y-106.25
X119.45Y-111.95
X113.95Y-64.35
X113.95Y-70.05
X119.65Y-64.35
X119.65Y-70.05
X171.625Y-97.875
X171.625Y-103.575
T0
M30
