G04 #@! TF.GenerationSoftware,KiCad,Pcbnew,5.1.4-e60b266~84~ubuntu16.04.1*
G04 #@! TF.CreationDate,2019-09-26T20:17:56+05:30*
G04 #@! TF.ProjectId,sick_kinect_powerBoard,7369636b-5f6b-4696-9e65-63745f706f77,rev?*
G04 #@! TF.SameCoordinates,Original*
G04 #@! TF.FileFunction,Soldermask,Top*
G04 #@! TF.FilePolarity,Negative*
%FSLAX46Y46*%
G04 Gerber Fmt 4.6, Leading zero omitted, Abs format (unit mm)*
G04 Created by KiCad (PCBNEW 5.1.4-e60b266~84~ubuntu16.04.1) date 2019-09-26 20:17:56*
%MOMM*%
%LPD*%
G04 APERTURE LIST*
%ADD10C,0.100000*%
G04 APERTURE END LIST*
D10*
G36*
X171105997Y-112378051D02*
G01*
X171139652Y-112388261D01*
X171170665Y-112404838D01*
X171197851Y-112427149D01*
X171220162Y-112454335D01*
X171236739Y-112485348D01*
X171246949Y-112519003D01*
X171251000Y-112560138D01*
X171251000Y-113889862D01*
X171246949Y-113930997D01*
X171236739Y-113964652D01*
X171220162Y-113995665D01*
X171197851Y-114022851D01*
X171170665Y-114045162D01*
X171139652Y-114061739D01*
X171105997Y-114071949D01*
X171064862Y-114076000D01*
X167835138Y-114076000D01*
X167794003Y-114071949D01*
X167760348Y-114061739D01*
X167729335Y-114045162D01*
X167702149Y-114022851D01*
X167679838Y-113995665D01*
X167663261Y-113964652D01*
X167653051Y-113930997D01*
X167649000Y-113889862D01*
X167649000Y-112560138D01*
X167653051Y-112519003D01*
X167663261Y-112485348D01*
X167679838Y-112454335D01*
X167702149Y-112427149D01*
X167729335Y-112404838D01*
X167760348Y-112388261D01*
X167794003Y-112378051D01*
X167835138Y-112374000D01*
X171064862Y-112374000D01*
X171105997Y-112378051D01*
X171105997Y-112378051D01*
G37*
G36*
X165705997Y-112378051D02*
G01*
X165739652Y-112388261D01*
X165770665Y-112404838D01*
X165797851Y-112427149D01*
X165820162Y-112454335D01*
X165836739Y-112485348D01*
X165846949Y-112519003D01*
X165851000Y-112560138D01*
X165851000Y-113889862D01*
X165846949Y-113930997D01*
X165836739Y-113964652D01*
X165820162Y-113995665D01*
X165797851Y-114022851D01*
X165770665Y-114045162D01*
X165739652Y-114061739D01*
X165705997Y-114071949D01*
X165664862Y-114076000D01*
X162435138Y-114076000D01*
X162394003Y-114071949D01*
X162360348Y-114061739D01*
X162329335Y-114045162D01*
X162302149Y-114022851D01*
X162279838Y-113995665D01*
X162263261Y-113964652D01*
X162253051Y-113930997D01*
X162249000Y-113889862D01*
X162249000Y-112560138D01*
X162253051Y-112519003D01*
X162263261Y-112485348D01*
X162279838Y-112454335D01*
X162302149Y-112427149D01*
X162329335Y-112404838D01*
X162360348Y-112388261D01*
X162394003Y-112378051D01*
X162435138Y-112374000D01*
X165664862Y-112374000D01*
X165705997Y-112378051D01*
X165705997Y-112378051D01*
G37*
G36*
X114138003Y-110063446D02*
G01*
X114311793Y-110098015D01*
X114559639Y-110200676D01*
X114647333Y-110237000D01*
X114662303Y-110243201D01*
X114977753Y-110453978D01*
X115246022Y-110722247D01*
X115456799Y-111037697D01*
X115601985Y-111388207D01*
X115676000Y-111760306D01*
X115676000Y-112139694D01*
X115601985Y-112511793D01*
X115456799Y-112862303D01*
X115246022Y-113177753D01*
X114977753Y-113446022D01*
X114662303Y-113656799D01*
X114311793Y-113801985D01*
X114187760Y-113826657D01*
X113939696Y-113876000D01*
X113560304Y-113876000D01*
X113312240Y-113826657D01*
X113188207Y-113801985D01*
X112837697Y-113656799D01*
X112522247Y-113446022D01*
X112253978Y-113177753D01*
X112043201Y-112862303D01*
X111898015Y-112511793D01*
X111824000Y-112139694D01*
X111824000Y-111760306D01*
X111898015Y-111388207D01*
X112043201Y-111037697D01*
X112253978Y-110722247D01*
X112522247Y-110453978D01*
X112837697Y-110243201D01*
X112852668Y-110237000D01*
X112940361Y-110200676D01*
X113188207Y-110098015D01*
X113361997Y-110063446D01*
X113560304Y-110024000D01*
X113939696Y-110024000D01*
X114138003Y-110063446D01*
X114138003Y-110063446D01*
G37*
G36*
X119838003Y-110063446D02*
G01*
X120011793Y-110098015D01*
X120259639Y-110200676D01*
X120347333Y-110237000D01*
X120362303Y-110243201D01*
X120677753Y-110453978D01*
X120946022Y-110722247D01*
X121156799Y-111037697D01*
X121301985Y-111388207D01*
X121376000Y-111760306D01*
X121376000Y-112139694D01*
X121301985Y-112511793D01*
X121156799Y-112862303D01*
X120946022Y-113177753D01*
X120677753Y-113446022D01*
X120362303Y-113656799D01*
X120011793Y-113801985D01*
X119887760Y-113826657D01*
X119639696Y-113876000D01*
X119260304Y-113876000D01*
X119012240Y-113826657D01*
X118888207Y-113801985D01*
X118537697Y-113656799D01*
X118222247Y-113446022D01*
X117953978Y-113177753D01*
X117743201Y-112862303D01*
X117598015Y-112511793D01*
X117524000Y-112139694D01*
X117524000Y-111760306D01*
X117598015Y-111388207D01*
X117743201Y-111037697D01*
X117953978Y-110722247D01*
X118222247Y-110453978D01*
X118537697Y-110243201D01*
X118552668Y-110237000D01*
X118640361Y-110200676D01*
X118888207Y-110098015D01*
X119061997Y-110063446D01*
X119260304Y-110024000D01*
X119639696Y-110024000D01*
X119838003Y-110063446D01*
X119838003Y-110063446D01*
G37*
G36*
X142764499Y-110328445D02*
G01*
X142801995Y-110339820D01*
X142836554Y-110358292D01*
X142866847Y-110383153D01*
X142891708Y-110413446D01*
X142910180Y-110448005D01*
X142921555Y-110485501D01*
X142926000Y-110530638D01*
X142926000Y-111169362D01*
X142921555Y-111214499D01*
X142910180Y-111251995D01*
X142891708Y-111286554D01*
X142866847Y-111316847D01*
X142836554Y-111341708D01*
X142801995Y-111360180D01*
X142764499Y-111371555D01*
X142719362Y-111376000D01*
X141980638Y-111376000D01*
X141935501Y-111371555D01*
X141898005Y-111360180D01*
X141863446Y-111341708D01*
X141833153Y-111316847D01*
X141808292Y-111286554D01*
X141789820Y-111251995D01*
X141778445Y-111214499D01*
X141774000Y-111169362D01*
X141774000Y-110530638D01*
X141778445Y-110485501D01*
X141789820Y-110448005D01*
X141808292Y-110413446D01*
X141833153Y-110383153D01*
X141863446Y-110358292D01*
X141898005Y-110339820D01*
X141935501Y-110328445D01*
X141980638Y-110324000D01*
X142719362Y-110324000D01*
X142764499Y-110328445D01*
X142764499Y-110328445D01*
G37*
G36*
X141014499Y-110328445D02*
G01*
X141051995Y-110339820D01*
X141086554Y-110358292D01*
X141116847Y-110383153D01*
X141141708Y-110413446D01*
X141160180Y-110448005D01*
X141171555Y-110485501D01*
X141176000Y-110530638D01*
X141176000Y-111169362D01*
X141171555Y-111214499D01*
X141160180Y-111251995D01*
X141141708Y-111286554D01*
X141116847Y-111316847D01*
X141086554Y-111341708D01*
X141051995Y-111360180D01*
X141014499Y-111371555D01*
X140969362Y-111376000D01*
X140230638Y-111376000D01*
X140185501Y-111371555D01*
X140148005Y-111360180D01*
X140113446Y-111341708D01*
X140083153Y-111316847D01*
X140058292Y-111286554D01*
X140039820Y-111251995D01*
X140028445Y-111214499D01*
X140024000Y-111169362D01*
X140024000Y-110530638D01*
X140028445Y-110485501D01*
X140039820Y-110448005D01*
X140058292Y-110413446D01*
X140083153Y-110383153D01*
X140113446Y-110358292D01*
X140148005Y-110339820D01*
X140185501Y-110328445D01*
X140230638Y-110324000D01*
X140969362Y-110324000D01*
X141014499Y-110328445D01*
X141014499Y-110328445D01*
G37*
G36*
X137914499Y-109978445D02*
G01*
X137951995Y-109989820D01*
X137986554Y-110008292D01*
X138016847Y-110033153D01*
X138041708Y-110063446D01*
X138060180Y-110098005D01*
X138071555Y-110135501D01*
X138076000Y-110180638D01*
X138076000Y-110919362D01*
X138071555Y-110964499D01*
X138060180Y-111001995D01*
X138041708Y-111036554D01*
X138016847Y-111066847D01*
X137986554Y-111091708D01*
X137951995Y-111110180D01*
X137914499Y-111121555D01*
X137869362Y-111126000D01*
X137230638Y-111126000D01*
X137185501Y-111121555D01*
X137148005Y-111110180D01*
X137113446Y-111091708D01*
X137083153Y-111066847D01*
X137058292Y-111036554D01*
X137039820Y-111001995D01*
X137028445Y-110964499D01*
X137024000Y-110919362D01*
X137024000Y-110180638D01*
X137028445Y-110135501D01*
X137039820Y-110098005D01*
X137058292Y-110063446D01*
X137083153Y-110033153D01*
X137113446Y-110008292D01*
X137148005Y-109989820D01*
X137185501Y-109978445D01*
X137230638Y-109974000D01*
X137869362Y-109974000D01*
X137914499Y-109978445D01*
X137914499Y-109978445D01*
G37*
G36*
X141039499Y-108678445D02*
G01*
X141076995Y-108689820D01*
X141111554Y-108708292D01*
X141141847Y-108733153D01*
X141166708Y-108763446D01*
X141185180Y-108798005D01*
X141196555Y-108835501D01*
X141201000Y-108880638D01*
X141201000Y-109519362D01*
X141196555Y-109564499D01*
X141185180Y-109601995D01*
X141166708Y-109636554D01*
X141141847Y-109666847D01*
X141111554Y-109691708D01*
X141076995Y-109710180D01*
X141039499Y-109721555D01*
X140994362Y-109726000D01*
X140255638Y-109726000D01*
X140210501Y-109721555D01*
X140173005Y-109710180D01*
X140138446Y-109691708D01*
X140108153Y-109666847D01*
X140083292Y-109636554D01*
X140064820Y-109601995D01*
X140053445Y-109564499D01*
X140049000Y-109519362D01*
X140049000Y-108880638D01*
X140053445Y-108835501D01*
X140064820Y-108798005D01*
X140083292Y-108763446D01*
X140108153Y-108733153D01*
X140138446Y-108708292D01*
X140173005Y-108689820D01*
X140210501Y-108678445D01*
X140255638Y-108674000D01*
X140994362Y-108674000D01*
X141039499Y-108678445D01*
X141039499Y-108678445D01*
G37*
G36*
X142789499Y-108678445D02*
G01*
X142826995Y-108689820D01*
X142861554Y-108708292D01*
X142891847Y-108733153D01*
X142916708Y-108763446D01*
X142935180Y-108798005D01*
X142946555Y-108835501D01*
X142951000Y-108880638D01*
X142951000Y-109519362D01*
X142946555Y-109564499D01*
X142935180Y-109601995D01*
X142916708Y-109636554D01*
X142891847Y-109666847D01*
X142861554Y-109691708D01*
X142826995Y-109710180D01*
X142789499Y-109721555D01*
X142744362Y-109726000D01*
X142005638Y-109726000D01*
X141960501Y-109721555D01*
X141923005Y-109710180D01*
X141888446Y-109691708D01*
X141858153Y-109666847D01*
X141833292Y-109636554D01*
X141814820Y-109601995D01*
X141803445Y-109564499D01*
X141799000Y-109519362D01*
X141799000Y-108880638D01*
X141803445Y-108835501D01*
X141814820Y-108798005D01*
X141833292Y-108763446D01*
X141858153Y-108733153D01*
X141888446Y-108708292D01*
X141923005Y-108689820D01*
X141960501Y-108678445D01*
X142005638Y-108674000D01*
X142744362Y-108674000D01*
X142789499Y-108678445D01*
X142789499Y-108678445D01*
G37*
G36*
X148714499Y-108578445D02*
G01*
X148751995Y-108589820D01*
X148786554Y-108608292D01*
X148816847Y-108633153D01*
X148841708Y-108663446D01*
X148860180Y-108698005D01*
X148871555Y-108735501D01*
X148876000Y-108780638D01*
X148876000Y-109519362D01*
X148871555Y-109564499D01*
X148860180Y-109601995D01*
X148841708Y-109636554D01*
X148816847Y-109666847D01*
X148786554Y-109691708D01*
X148751995Y-109710180D01*
X148714499Y-109721555D01*
X148669362Y-109726000D01*
X148030638Y-109726000D01*
X147985501Y-109721555D01*
X147948005Y-109710180D01*
X147913446Y-109691708D01*
X147883153Y-109666847D01*
X147858292Y-109636554D01*
X147839820Y-109601995D01*
X147828445Y-109564499D01*
X147824000Y-109519362D01*
X147824000Y-108780638D01*
X147828445Y-108735501D01*
X147839820Y-108698005D01*
X147858292Y-108663446D01*
X147883153Y-108633153D01*
X147913446Y-108608292D01*
X147948005Y-108589820D01*
X147985501Y-108578445D01*
X148030638Y-108574000D01*
X148669362Y-108574000D01*
X148714499Y-108578445D01*
X148714499Y-108578445D01*
G37*
G36*
X146314499Y-108628445D02*
G01*
X146351995Y-108639820D01*
X146386554Y-108658292D01*
X146416847Y-108683153D01*
X146441708Y-108713446D01*
X146460180Y-108748005D01*
X146471555Y-108785501D01*
X146476000Y-108830638D01*
X146476000Y-109469362D01*
X146471555Y-109514499D01*
X146460180Y-109551995D01*
X146441708Y-109586554D01*
X146416847Y-109616847D01*
X146386554Y-109641708D01*
X146351995Y-109660180D01*
X146314499Y-109671555D01*
X146269362Y-109676000D01*
X145530638Y-109676000D01*
X145485501Y-109671555D01*
X145448005Y-109660180D01*
X145413446Y-109641708D01*
X145383153Y-109616847D01*
X145358292Y-109586554D01*
X145339820Y-109551995D01*
X145328445Y-109514499D01*
X145324000Y-109469362D01*
X145324000Y-108830638D01*
X145328445Y-108785501D01*
X145339820Y-108748005D01*
X145358292Y-108713446D01*
X145383153Y-108683153D01*
X145413446Y-108658292D01*
X145448005Y-108639820D01*
X145485501Y-108628445D01*
X145530638Y-108624000D01*
X146269362Y-108624000D01*
X146314499Y-108628445D01*
X146314499Y-108628445D01*
G37*
G36*
X144564499Y-108628445D02*
G01*
X144601995Y-108639820D01*
X144636554Y-108658292D01*
X144666847Y-108683153D01*
X144691708Y-108713446D01*
X144710180Y-108748005D01*
X144721555Y-108785501D01*
X144726000Y-108830638D01*
X144726000Y-109469362D01*
X144721555Y-109514499D01*
X144710180Y-109551995D01*
X144691708Y-109586554D01*
X144666847Y-109616847D01*
X144636554Y-109641708D01*
X144601995Y-109660180D01*
X144564499Y-109671555D01*
X144519362Y-109676000D01*
X143780638Y-109676000D01*
X143735501Y-109671555D01*
X143698005Y-109660180D01*
X143663446Y-109641708D01*
X143633153Y-109616847D01*
X143608292Y-109586554D01*
X143589820Y-109551995D01*
X143578445Y-109514499D01*
X143574000Y-109469362D01*
X143574000Y-108830638D01*
X143578445Y-108785501D01*
X143589820Y-108748005D01*
X143608292Y-108713446D01*
X143633153Y-108683153D01*
X143663446Y-108658292D01*
X143698005Y-108639820D01*
X143735501Y-108628445D01*
X143780638Y-108624000D01*
X144519362Y-108624000D01*
X144564499Y-108628445D01*
X144564499Y-108628445D01*
G37*
G36*
X137914499Y-108228445D02*
G01*
X137951995Y-108239820D01*
X137986554Y-108258292D01*
X138016847Y-108283153D01*
X138041708Y-108313446D01*
X138060180Y-108348005D01*
X138071555Y-108385501D01*
X138076000Y-108430638D01*
X138076000Y-109169362D01*
X138071555Y-109214499D01*
X138060180Y-109251995D01*
X138041708Y-109286554D01*
X138016847Y-109316847D01*
X137986554Y-109341708D01*
X137951995Y-109360180D01*
X137914499Y-109371555D01*
X137869362Y-109376000D01*
X137230638Y-109376000D01*
X137185501Y-109371555D01*
X137148005Y-109360180D01*
X137113446Y-109341708D01*
X137083153Y-109316847D01*
X137058292Y-109286554D01*
X137039820Y-109251995D01*
X137028445Y-109214499D01*
X137024000Y-109169362D01*
X137024000Y-108430638D01*
X137028445Y-108385501D01*
X137039820Y-108348005D01*
X137058292Y-108313446D01*
X137083153Y-108283153D01*
X137113446Y-108258292D01*
X137148005Y-108239820D01*
X137185501Y-108228445D01*
X137230638Y-108224000D01*
X137869362Y-108224000D01*
X137914499Y-108228445D01*
X137914499Y-108228445D01*
G37*
G36*
X166364499Y-108078445D02*
G01*
X166401995Y-108089820D01*
X166436554Y-108108292D01*
X166466847Y-108133153D01*
X166491708Y-108163446D01*
X166510180Y-108198005D01*
X166521555Y-108235501D01*
X166526000Y-108280638D01*
X166526000Y-108919362D01*
X166521555Y-108964499D01*
X166510180Y-109001995D01*
X166491708Y-109036554D01*
X166466847Y-109066847D01*
X166436554Y-109091708D01*
X166401995Y-109110180D01*
X166364499Y-109121555D01*
X166319362Y-109126000D01*
X165580638Y-109126000D01*
X165535501Y-109121555D01*
X165498005Y-109110180D01*
X165463446Y-109091708D01*
X165433153Y-109066847D01*
X165408292Y-109036554D01*
X165389820Y-109001995D01*
X165378445Y-108964499D01*
X165374000Y-108919362D01*
X165374000Y-108280638D01*
X165378445Y-108235501D01*
X165389820Y-108198005D01*
X165408292Y-108163446D01*
X165433153Y-108133153D01*
X165463446Y-108108292D01*
X165498005Y-108089820D01*
X165535501Y-108078445D01*
X165580638Y-108074000D01*
X166319362Y-108074000D01*
X166364499Y-108078445D01*
X166364499Y-108078445D01*
G37*
G36*
X164614499Y-108078445D02*
G01*
X164651995Y-108089820D01*
X164686554Y-108108292D01*
X164716847Y-108133153D01*
X164741708Y-108163446D01*
X164760180Y-108198005D01*
X164771555Y-108235501D01*
X164776000Y-108280638D01*
X164776000Y-108919362D01*
X164771555Y-108964499D01*
X164760180Y-109001995D01*
X164741708Y-109036554D01*
X164716847Y-109066847D01*
X164686554Y-109091708D01*
X164651995Y-109110180D01*
X164614499Y-109121555D01*
X164569362Y-109126000D01*
X163830638Y-109126000D01*
X163785501Y-109121555D01*
X163748005Y-109110180D01*
X163713446Y-109091708D01*
X163683153Y-109066847D01*
X163658292Y-109036554D01*
X163639820Y-109001995D01*
X163628445Y-108964499D01*
X163624000Y-108919362D01*
X163624000Y-108280638D01*
X163628445Y-108235501D01*
X163639820Y-108198005D01*
X163658292Y-108163446D01*
X163683153Y-108133153D01*
X163713446Y-108108292D01*
X163748005Y-108089820D01*
X163785501Y-108078445D01*
X163830638Y-108074000D01*
X164569362Y-108074000D01*
X164614499Y-108078445D01*
X164614499Y-108078445D01*
G37*
G36*
X132714499Y-107678445D02*
G01*
X132751995Y-107689820D01*
X132786554Y-107708292D01*
X132816847Y-107733153D01*
X132841708Y-107763446D01*
X132860180Y-107798005D01*
X132871555Y-107835501D01*
X132876000Y-107880638D01*
X132876000Y-108519362D01*
X132871555Y-108564499D01*
X132860180Y-108601995D01*
X132841708Y-108636554D01*
X132816847Y-108666847D01*
X132786554Y-108691708D01*
X132751995Y-108710180D01*
X132714499Y-108721555D01*
X132669362Y-108726000D01*
X131930638Y-108726000D01*
X131885501Y-108721555D01*
X131848005Y-108710180D01*
X131813446Y-108691708D01*
X131783153Y-108666847D01*
X131758292Y-108636554D01*
X131739820Y-108601995D01*
X131728445Y-108564499D01*
X131724000Y-108519362D01*
X131724000Y-107880638D01*
X131728445Y-107835501D01*
X131739820Y-107798005D01*
X131758292Y-107763446D01*
X131783153Y-107733153D01*
X131813446Y-107708292D01*
X131848005Y-107689820D01*
X131885501Y-107678445D01*
X131930638Y-107674000D01*
X132669362Y-107674000D01*
X132714499Y-107678445D01*
X132714499Y-107678445D01*
G37*
G36*
X130964499Y-107678445D02*
G01*
X131001995Y-107689820D01*
X131036554Y-107708292D01*
X131066847Y-107733153D01*
X131091708Y-107763446D01*
X131110180Y-107798005D01*
X131121555Y-107835501D01*
X131126000Y-107880638D01*
X131126000Y-108519362D01*
X131121555Y-108564499D01*
X131110180Y-108601995D01*
X131091708Y-108636554D01*
X131066847Y-108666847D01*
X131036554Y-108691708D01*
X131001995Y-108710180D01*
X130964499Y-108721555D01*
X130919362Y-108726000D01*
X130180638Y-108726000D01*
X130135501Y-108721555D01*
X130098005Y-108710180D01*
X130063446Y-108691708D01*
X130033153Y-108666847D01*
X130008292Y-108636554D01*
X129989820Y-108601995D01*
X129978445Y-108564499D01*
X129974000Y-108519362D01*
X129974000Y-107880638D01*
X129978445Y-107835501D01*
X129989820Y-107798005D01*
X130008292Y-107763446D01*
X130033153Y-107733153D01*
X130063446Y-107708292D01*
X130098005Y-107689820D01*
X130135501Y-107678445D01*
X130180638Y-107674000D01*
X130919362Y-107674000D01*
X130964499Y-107678445D01*
X130964499Y-107678445D01*
G37*
G36*
X136114499Y-107678445D02*
G01*
X136151995Y-107689820D01*
X136186554Y-107708292D01*
X136216847Y-107733153D01*
X136241708Y-107763446D01*
X136260180Y-107798005D01*
X136271555Y-107835501D01*
X136276000Y-107880638D01*
X136276000Y-108519362D01*
X136271555Y-108564499D01*
X136260180Y-108601995D01*
X136241708Y-108636554D01*
X136216847Y-108666847D01*
X136186554Y-108691708D01*
X136151995Y-108710180D01*
X136114499Y-108721555D01*
X136069362Y-108726000D01*
X135330638Y-108726000D01*
X135285501Y-108721555D01*
X135248005Y-108710180D01*
X135213446Y-108691708D01*
X135183153Y-108666847D01*
X135158292Y-108636554D01*
X135139820Y-108601995D01*
X135128445Y-108564499D01*
X135124000Y-108519362D01*
X135124000Y-107880638D01*
X135128445Y-107835501D01*
X135139820Y-107798005D01*
X135158292Y-107763446D01*
X135183153Y-107733153D01*
X135213446Y-107708292D01*
X135248005Y-107689820D01*
X135285501Y-107678445D01*
X135330638Y-107674000D01*
X136069362Y-107674000D01*
X136114499Y-107678445D01*
X136114499Y-107678445D01*
G37*
G36*
X134364499Y-107678445D02*
G01*
X134401995Y-107689820D01*
X134436554Y-107708292D01*
X134466847Y-107733153D01*
X134491708Y-107763446D01*
X134510180Y-107798005D01*
X134521555Y-107835501D01*
X134526000Y-107880638D01*
X134526000Y-108519362D01*
X134521555Y-108564499D01*
X134510180Y-108601995D01*
X134491708Y-108636554D01*
X134466847Y-108666847D01*
X134436554Y-108691708D01*
X134401995Y-108710180D01*
X134364499Y-108721555D01*
X134319362Y-108726000D01*
X133580638Y-108726000D01*
X133535501Y-108721555D01*
X133498005Y-108710180D01*
X133463446Y-108691708D01*
X133433153Y-108666847D01*
X133408292Y-108636554D01*
X133389820Y-108601995D01*
X133378445Y-108564499D01*
X133374000Y-108519362D01*
X133374000Y-107880638D01*
X133378445Y-107835501D01*
X133389820Y-107798005D01*
X133408292Y-107763446D01*
X133433153Y-107733153D01*
X133463446Y-107708292D01*
X133498005Y-107689820D01*
X133535501Y-107678445D01*
X133580638Y-107674000D01*
X134319362Y-107674000D01*
X134364499Y-107678445D01*
X134364499Y-107678445D01*
G37*
G36*
X115676000Y-108176000D02*
G01*
X111824000Y-108176000D01*
X111824000Y-104324000D01*
X115676000Y-104324000D01*
X115676000Y-108176000D01*
X115676000Y-108176000D01*
G37*
G36*
X119874295Y-104370665D02*
G01*
X120011793Y-104398015D01*
X120362303Y-104543201D01*
X120677753Y-104753978D01*
X120946022Y-105022247D01*
X121104646Y-105259644D01*
X121156800Y-105337699D01*
X121183826Y-105402946D01*
X121301985Y-105688207D01*
X121312251Y-105739820D01*
X121350208Y-105930638D01*
X121376000Y-106060306D01*
X121376000Y-106439694D01*
X121301985Y-106811793D01*
X121156799Y-107162303D01*
X120946022Y-107477753D01*
X120677753Y-107746022D01*
X120362303Y-107956799D01*
X120011793Y-108101985D01*
X119929656Y-108118323D01*
X119639696Y-108176000D01*
X119260304Y-108176000D01*
X118970344Y-108118323D01*
X118888207Y-108101985D01*
X118537697Y-107956799D01*
X118222247Y-107746022D01*
X117953978Y-107477753D01*
X117743201Y-107162303D01*
X117598015Y-106811793D01*
X117524000Y-106439694D01*
X117524000Y-106060306D01*
X117549793Y-105930638D01*
X117587749Y-105739820D01*
X117598015Y-105688207D01*
X117716174Y-105402946D01*
X117743200Y-105337699D01*
X117795355Y-105259644D01*
X117953978Y-105022247D01*
X118222247Y-104753978D01*
X118537697Y-104543201D01*
X118888207Y-104398015D01*
X119025705Y-104370665D01*
X119260304Y-104324000D01*
X119639696Y-104324000D01*
X119874295Y-104370665D01*
X119874295Y-104370665D01*
G37*
G36*
X148714499Y-106828445D02*
G01*
X148751995Y-106839820D01*
X148786554Y-106858292D01*
X148816847Y-106883153D01*
X148841708Y-106913446D01*
X148860180Y-106948005D01*
X148871555Y-106985501D01*
X148876000Y-107030638D01*
X148876000Y-107769362D01*
X148871555Y-107814499D01*
X148860180Y-107851995D01*
X148841708Y-107886554D01*
X148816847Y-107916847D01*
X148786554Y-107941708D01*
X148751995Y-107960180D01*
X148714499Y-107971555D01*
X148669362Y-107976000D01*
X148030638Y-107976000D01*
X147985501Y-107971555D01*
X147948005Y-107960180D01*
X147913446Y-107941708D01*
X147883153Y-107916847D01*
X147858292Y-107886554D01*
X147839820Y-107851995D01*
X147828445Y-107814499D01*
X147824000Y-107769362D01*
X147824000Y-107030638D01*
X147828445Y-106985501D01*
X147839820Y-106948005D01*
X147858292Y-106913446D01*
X147883153Y-106883153D01*
X147913446Y-106858292D01*
X147948005Y-106839820D01*
X147985501Y-106828445D01*
X148030638Y-106824000D01*
X148669362Y-106824000D01*
X148714499Y-106828445D01*
X148714499Y-106828445D01*
G37*
G36*
X139621000Y-107586000D02*
G01*
X137739000Y-107586000D01*
X137739000Y-101214000D01*
X139621000Y-101214000D01*
X139621000Y-107586000D01*
X139621000Y-107586000D01*
G37*
G36*
X145561000Y-107586000D02*
G01*
X143679000Y-107586000D01*
X143679000Y-101214000D01*
X145561000Y-101214000D01*
X145561000Y-107586000D01*
X145561000Y-107586000D01*
G37*
G36*
X175382395Y-105430546D02*
G01*
X175555466Y-105502234D01*
X175555467Y-105502235D01*
X175711227Y-105606310D01*
X175843690Y-105738773D01*
X175885289Y-105801031D01*
X175947766Y-105894534D01*
X176019454Y-106067605D01*
X176056000Y-106251333D01*
X176056000Y-106438667D01*
X176019454Y-106622395D01*
X175947766Y-106795466D01*
X175916868Y-106841708D01*
X175843690Y-106951227D01*
X175711227Y-107083690D01*
X175706273Y-107087000D01*
X175555466Y-107187766D01*
X175382395Y-107259454D01*
X175198667Y-107296000D01*
X175011333Y-107296000D01*
X174827605Y-107259454D01*
X174654534Y-107187766D01*
X174503727Y-107087000D01*
X174498773Y-107083690D01*
X174366310Y-106951227D01*
X174293132Y-106841708D01*
X174262234Y-106795466D01*
X174190546Y-106622395D01*
X174154000Y-106438667D01*
X174154000Y-106251333D01*
X174190546Y-106067605D01*
X174262234Y-105894534D01*
X174324711Y-105801031D01*
X174366310Y-105738773D01*
X174498773Y-105606310D01*
X174654533Y-105502235D01*
X174654534Y-105502234D01*
X174827605Y-105430546D01*
X175011333Y-105394000D01*
X175198667Y-105394000D01*
X175382395Y-105430546D01*
X175382395Y-105430546D01*
G37*
G36*
X160176000Y-107051000D02*
G01*
X153674000Y-107051000D01*
X153674000Y-101149000D01*
X160176000Y-101149000D01*
X160176000Y-107051000D01*
X160176000Y-107051000D01*
G37*
G36*
X151776000Y-107031000D02*
G01*
X149474000Y-107031000D01*
X149474000Y-105729000D01*
X151776000Y-105729000D01*
X151776000Y-107031000D01*
X151776000Y-107031000D01*
G37*
G36*
X129551000Y-106901000D02*
G01*
X127949000Y-106901000D01*
X127949000Y-105299000D01*
X129551000Y-105299000D01*
X129551000Y-106901000D01*
X129551000Y-106901000D01*
G37*
G36*
X132864499Y-105728445D02*
G01*
X132901995Y-105739820D01*
X132936554Y-105758292D01*
X132966847Y-105783153D01*
X132991708Y-105813446D01*
X133010180Y-105848005D01*
X133021555Y-105885501D01*
X133026000Y-105930638D01*
X133026000Y-106669362D01*
X133021555Y-106714499D01*
X133010180Y-106751995D01*
X132991708Y-106786554D01*
X132966847Y-106816847D01*
X132936554Y-106841708D01*
X132901995Y-106860180D01*
X132864499Y-106871555D01*
X132819362Y-106876000D01*
X132180638Y-106876000D01*
X132135501Y-106871555D01*
X132098005Y-106860180D01*
X132063446Y-106841708D01*
X132033153Y-106816847D01*
X132008292Y-106786554D01*
X131989820Y-106751995D01*
X131978445Y-106714499D01*
X131974000Y-106669362D01*
X131974000Y-105930638D01*
X131978445Y-105885501D01*
X131989820Y-105848005D01*
X132008292Y-105813446D01*
X132033153Y-105783153D01*
X132063446Y-105758292D01*
X132098005Y-105739820D01*
X132135501Y-105728445D01*
X132180638Y-105724000D01*
X132819362Y-105724000D01*
X132864499Y-105728445D01*
X132864499Y-105728445D01*
G37*
G36*
X136264499Y-105728445D02*
G01*
X136301995Y-105739820D01*
X136336554Y-105758292D01*
X136366847Y-105783153D01*
X136391708Y-105813446D01*
X136410180Y-105848005D01*
X136421555Y-105885501D01*
X136426000Y-105930638D01*
X136426000Y-106669362D01*
X136421555Y-106714499D01*
X136410180Y-106751995D01*
X136391708Y-106786554D01*
X136366847Y-106816847D01*
X136336554Y-106841708D01*
X136301995Y-106860180D01*
X136264499Y-106871555D01*
X136219362Y-106876000D01*
X135580638Y-106876000D01*
X135535501Y-106871555D01*
X135498005Y-106860180D01*
X135463446Y-106841708D01*
X135433153Y-106816847D01*
X135408292Y-106786554D01*
X135389820Y-106751995D01*
X135378445Y-106714499D01*
X135374000Y-106669362D01*
X135374000Y-105930638D01*
X135378445Y-105885501D01*
X135389820Y-105848005D01*
X135408292Y-105813446D01*
X135433153Y-105783153D01*
X135463446Y-105758292D01*
X135498005Y-105739820D01*
X135535501Y-105728445D01*
X135580638Y-105724000D01*
X136219362Y-105724000D01*
X136264499Y-105728445D01*
X136264499Y-105728445D01*
G37*
G36*
X134514499Y-105728445D02*
G01*
X134551995Y-105739820D01*
X134586554Y-105758292D01*
X134616847Y-105783153D01*
X134641708Y-105813446D01*
X134660180Y-105848005D01*
X134671555Y-105885501D01*
X134676000Y-105930638D01*
X134676000Y-106669362D01*
X134671555Y-106714499D01*
X134660180Y-106751995D01*
X134641708Y-106786554D01*
X134616847Y-106816847D01*
X134586554Y-106841708D01*
X134551995Y-106860180D01*
X134514499Y-106871555D01*
X134469362Y-106876000D01*
X133830638Y-106876000D01*
X133785501Y-106871555D01*
X133748005Y-106860180D01*
X133713446Y-106841708D01*
X133683153Y-106816847D01*
X133658292Y-106786554D01*
X133639820Y-106751995D01*
X133628445Y-106714499D01*
X133624000Y-106669362D01*
X133624000Y-105930638D01*
X133628445Y-105885501D01*
X133639820Y-105848005D01*
X133658292Y-105813446D01*
X133683153Y-105783153D01*
X133713446Y-105758292D01*
X133748005Y-105739820D01*
X133785501Y-105728445D01*
X133830638Y-105724000D01*
X134469362Y-105724000D01*
X134514499Y-105728445D01*
X134514499Y-105728445D01*
G37*
G36*
X143201000Y-106551000D02*
G01*
X140099000Y-106551000D01*
X140099000Y-102249000D01*
X143201000Y-102249000D01*
X143201000Y-106551000D01*
X143201000Y-106551000D01*
G37*
G36*
X171995866Y-101710527D02*
G01*
X172179501Y-101747054D01*
X172525461Y-101890356D01*
X172836817Y-102098397D01*
X173101603Y-102363183D01*
X173309644Y-102674539D01*
X173452946Y-103020499D01*
X173526000Y-103387768D01*
X173526000Y-103762232D01*
X173452946Y-104129501D01*
X173309644Y-104475461D01*
X173101603Y-104786817D01*
X172836817Y-105051603D01*
X172525461Y-105259644D01*
X172179501Y-105402946D01*
X172040746Y-105430546D01*
X171812233Y-105476000D01*
X171437767Y-105476000D01*
X171209254Y-105430546D01*
X171070499Y-105402946D01*
X170724539Y-105259644D01*
X170413183Y-105051603D01*
X170148397Y-104786817D01*
X169940356Y-104475461D01*
X169797054Y-104129501D01*
X169724000Y-103762232D01*
X169724000Y-103387768D01*
X169797054Y-103020499D01*
X169940356Y-102674539D01*
X170148397Y-102363183D01*
X170413183Y-102098397D01*
X170724539Y-101890356D01*
X171070499Y-101747054D01*
X171437767Y-101674000D01*
X171812233Y-101674000D01*
X171995866Y-101710527D01*
X171995866Y-101710527D01*
G37*
G36*
X132864499Y-103978445D02*
G01*
X132901995Y-103989820D01*
X132936554Y-104008292D01*
X132966847Y-104033153D01*
X132991708Y-104063446D01*
X133010180Y-104098005D01*
X133021555Y-104135501D01*
X133026000Y-104180638D01*
X133026000Y-104919362D01*
X133021555Y-104964499D01*
X133010180Y-105001995D01*
X132991708Y-105036554D01*
X132966847Y-105066847D01*
X132936554Y-105091708D01*
X132901995Y-105110180D01*
X132864499Y-105121555D01*
X132819362Y-105126000D01*
X132180638Y-105126000D01*
X132135501Y-105121555D01*
X132098005Y-105110180D01*
X132063446Y-105091708D01*
X132033153Y-105066847D01*
X132008292Y-105036554D01*
X131989820Y-105001995D01*
X131978445Y-104964499D01*
X131974000Y-104919362D01*
X131974000Y-104180638D01*
X131978445Y-104135501D01*
X131989820Y-104098005D01*
X132008292Y-104063446D01*
X132033153Y-104033153D01*
X132063446Y-104008292D01*
X132098005Y-103989820D01*
X132135501Y-103978445D01*
X132180638Y-103974000D01*
X132819362Y-103974000D01*
X132864499Y-103978445D01*
X132864499Y-103978445D01*
G37*
G36*
X134514499Y-103978445D02*
G01*
X134551995Y-103989820D01*
X134586554Y-104008292D01*
X134616847Y-104033153D01*
X134641708Y-104063446D01*
X134660180Y-104098005D01*
X134671555Y-104135501D01*
X134676000Y-104180638D01*
X134676000Y-104919362D01*
X134671555Y-104964499D01*
X134660180Y-105001995D01*
X134641708Y-105036554D01*
X134616847Y-105066847D01*
X134586554Y-105091708D01*
X134551995Y-105110180D01*
X134514499Y-105121555D01*
X134469362Y-105126000D01*
X133830638Y-105126000D01*
X133785501Y-105121555D01*
X133748005Y-105110180D01*
X133713446Y-105091708D01*
X133683153Y-105066847D01*
X133658292Y-105036554D01*
X133639820Y-105001995D01*
X133628445Y-104964499D01*
X133624000Y-104919362D01*
X133624000Y-104180638D01*
X133628445Y-104135501D01*
X133639820Y-104098005D01*
X133658292Y-104063446D01*
X133683153Y-104033153D01*
X133713446Y-104008292D01*
X133748005Y-103989820D01*
X133785501Y-103978445D01*
X133830638Y-103974000D01*
X134469362Y-103974000D01*
X134514499Y-103978445D01*
X134514499Y-103978445D01*
G37*
G36*
X136264499Y-103978445D02*
G01*
X136301995Y-103989820D01*
X136336554Y-104008292D01*
X136366847Y-104033153D01*
X136391708Y-104063446D01*
X136410180Y-104098005D01*
X136421555Y-104135501D01*
X136426000Y-104180638D01*
X136426000Y-104919362D01*
X136421555Y-104964499D01*
X136410180Y-105001995D01*
X136391708Y-105036554D01*
X136366847Y-105066847D01*
X136336554Y-105091708D01*
X136301995Y-105110180D01*
X136264499Y-105121555D01*
X136219362Y-105126000D01*
X135580638Y-105126000D01*
X135535501Y-105121555D01*
X135498005Y-105110180D01*
X135463446Y-105091708D01*
X135433153Y-105066847D01*
X135408292Y-105036554D01*
X135389820Y-105001995D01*
X135378445Y-104964499D01*
X135374000Y-104919362D01*
X135374000Y-104180638D01*
X135378445Y-104135501D01*
X135389820Y-104098005D01*
X135408292Y-104063446D01*
X135433153Y-104033153D01*
X135463446Y-104008292D01*
X135498005Y-103989820D01*
X135535501Y-103978445D01*
X135580638Y-103974000D01*
X136219362Y-103974000D01*
X136264499Y-103978445D01*
X136264499Y-103978445D01*
G37*
G36*
X131305997Y-100853051D02*
G01*
X131339652Y-100863261D01*
X131370665Y-100879838D01*
X131397851Y-100902149D01*
X131420162Y-100929335D01*
X131436739Y-100960348D01*
X131446949Y-100994003D01*
X131451000Y-101035138D01*
X131451000Y-104264862D01*
X131446949Y-104305997D01*
X131436739Y-104339652D01*
X131420162Y-104370665D01*
X131397851Y-104397851D01*
X131370665Y-104420162D01*
X131339652Y-104436739D01*
X131305997Y-104446949D01*
X131264862Y-104451000D01*
X129935138Y-104451000D01*
X129894003Y-104446949D01*
X129860348Y-104436739D01*
X129829335Y-104420162D01*
X129802149Y-104397851D01*
X129779838Y-104370665D01*
X129763261Y-104339652D01*
X129753051Y-104305997D01*
X129749000Y-104264862D01*
X129749000Y-101035138D01*
X129753051Y-100994003D01*
X129763261Y-100960348D01*
X129779838Y-100929335D01*
X129802149Y-100902149D01*
X129829335Y-100879838D01*
X129860348Y-100863261D01*
X129894003Y-100853051D01*
X129935138Y-100849000D01*
X131264862Y-100849000D01*
X131305997Y-100853051D01*
X131305997Y-100853051D01*
G37*
G36*
X151776000Y-102471000D02*
G01*
X149474000Y-102471000D01*
X149474000Y-101169000D01*
X151776000Y-101169000D01*
X151776000Y-102471000D01*
X151776000Y-102471000D01*
G37*
G36*
X125205997Y-99353051D02*
G01*
X125239652Y-99363261D01*
X125270665Y-99379838D01*
X125297851Y-99402149D01*
X125320162Y-99429335D01*
X125336739Y-99460348D01*
X125346949Y-99494003D01*
X125351000Y-99535138D01*
X125351000Y-101864862D01*
X125346949Y-101905997D01*
X125336739Y-101939652D01*
X125320162Y-101970665D01*
X125297851Y-101997851D01*
X125270665Y-102020162D01*
X125239652Y-102036739D01*
X125205997Y-102046949D01*
X125164862Y-102051000D01*
X123835138Y-102051000D01*
X123794003Y-102046949D01*
X123760348Y-102036739D01*
X123729335Y-102020162D01*
X123702149Y-101997851D01*
X123679838Y-101970665D01*
X123663261Y-101939652D01*
X123653051Y-101905997D01*
X123649000Y-101864862D01*
X123649000Y-99535138D01*
X123653051Y-99494003D01*
X123663261Y-99460348D01*
X123679838Y-99429335D01*
X123702149Y-99402149D01*
X123729335Y-99379838D01*
X123760348Y-99363261D01*
X123794003Y-99353051D01*
X123835138Y-99349000D01*
X125164862Y-99349000D01*
X125205997Y-99353051D01*
X125205997Y-99353051D01*
G37*
G36*
X121064499Y-99628445D02*
G01*
X121101995Y-99639820D01*
X121136554Y-99658292D01*
X121166847Y-99683153D01*
X121191708Y-99713446D01*
X121210180Y-99748005D01*
X121221555Y-99785501D01*
X121226000Y-99830638D01*
X121226000Y-100569362D01*
X121221555Y-100614499D01*
X121210180Y-100651995D01*
X121191708Y-100686554D01*
X121166847Y-100716847D01*
X121136554Y-100741708D01*
X121101995Y-100760180D01*
X121064499Y-100771555D01*
X121019362Y-100776000D01*
X120380638Y-100776000D01*
X120335501Y-100771555D01*
X120298005Y-100760180D01*
X120263446Y-100741708D01*
X120233153Y-100716847D01*
X120208292Y-100686554D01*
X120189820Y-100651995D01*
X120178445Y-100614499D01*
X120174000Y-100569362D01*
X120174000Y-99830638D01*
X120178445Y-99785501D01*
X120189820Y-99748005D01*
X120208292Y-99713446D01*
X120233153Y-99683153D01*
X120263446Y-99658292D01*
X120298005Y-99639820D01*
X120335501Y-99628445D01*
X120380638Y-99624000D01*
X121019362Y-99624000D01*
X121064499Y-99628445D01*
X121064499Y-99628445D01*
G37*
G36*
X119314499Y-99603445D02*
G01*
X119351995Y-99614820D01*
X119386554Y-99633292D01*
X119416847Y-99658153D01*
X119441708Y-99688446D01*
X119460180Y-99723005D01*
X119471555Y-99760501D01*
X119476000Y-99805638D01*
X119476000Y-100544362D01*
X119471555Y-100589499D01*
X119460180Y-100626995D01*
X119441708Y-100661554D01*
X119416847Y-100691847D01*
X119386554Y-100716708D01*
X119351995Y-100735180D01*
X119314499Y-100746555D01*
X119269362Y-100751000D01*
X118630638Y-100751000D01*
X118585501Y-100746555D01*
X118548005Y-100735180D01*
X118513446Y-100716708D01*
X118483153Y-100691847D01*
X118458292Y-100661554D01*
X118439820Y-100626995D01*
X118428445Y-100589499D01*
X118424000Y-100544362D01*
X118424000Y-99805638D01*
X118428445Y-99760501D01*
X118439820Y-99723005D01*
X118458292Y-99688446D01*
X118483153Y-99658153D01*
X118513446Y-99633292D01*
X118548005Y-99614820D01*
X118585501Y-99603445D01*
X118630638Y-99599000D01*
X119269362Y-99599000D01*
X119314499Y-99603445D01*
X119314499Y-99603445D01*
G37*
G36*
X145864499Y-99628445D02*
G01*
X145901995Y-99639820D01*
X145936554Y-99658292D01*
X145966847Y-99683153D01*
X145991708Y-99713446D01*
X146010180Y-99748005D01*
X146021555Y-99785501D01*
X146026000Y-99830638D01*
X146026000Y-100469362D01*
X146021555Y-100514499D01*
X146010180Y-100551995D01*
X145991708Y-100586554D01*
X145966847Y-100616847D01*
X145936554Y-100641708D01*
X145901995Y-100660180D01*
X145864499Y-100671555D01*
X145819362Y-100676000D01*
X145080638Y-100676000D01*
X145035501Y-100671555D01*
X144998005Y-100660180D01*
X144963446Y-100641708D01*
X144933153Y-100616847D01*
X144908292Y-100586554D01*
X144889820Y-100551995D01*
X144878445Y-100514499D01*
X144874000Y-100469362D01*
X144874000Y-99830638D01*
X144878445Y-99785501D01*
X144889820Y-99748005D01*
X144908292Y-99713446D01*
X144933153Y-99683153D01*
X144963446Y-99658292D01*
X144998005Y-99639820D01*
X145035501Y-99628445D01*
X145080638Y-99624000D01*
X145819362Y-99624000D01*
X145864499Y-99628445D01*
X145864499Y-99628445D01*
G37*
G36*
X147614499Y-99628445D02*
G01*
X147651995Y-99639820D01*
X147686554Y-99658292D01*
X147716847Y-99683153D01*
X147741708Y-99713446D01*
X147760180Y-99748005D01*
X147771555Y-99785501D01*
X147776000Y-99830638D01*
X147776000Y-100469362D01*
X147771555Y-100514499D01*
X147760180Y-100551995D01*
X147741708Y-100586554D01*
X147716847Y-100616847D01*
X147686554Y-100641708D01*
X147651995Y-100660180D01*
X147614499Y-100671555D01*
X147569362Y-100676000D01*
X146830638Y-100676000D01*
X146785501Y-100671555D01*
X146748005Y-100660180D01*
X146713446Y-100641708D01*
X146683153Y-100616847D01*
X146658292Y-100586554D01*
X146639820Y-100551995D01*
X146628445Y-100514499D01*
X146624000Y-100469362D01*
X146624000Y-99830638D01*
X146628445Y-99785501D01*
X146639820Y-99748005D01*
X146658292Y-99713446D01*
X146683153Y-99683153D01*
X146713446Y-99658292D01*
X146748005Y-99639820D01*
X146785501Y-99628445D01*
X146830638Y-99624000D01*
X147569362Y-99624000D01*
X147614499Y-99628445D01*
X147614499Y-99628445D01*
G37*
G36*
X173406119Y-95977452D02*
G01*
X173433923Y-95985886D01*
X173459540Y-95999578D01*
X173481994Y-96018006D01*
X173500422Y-96040460D01*
X173514114Y-96066077D01*
X173522548Y-96093881D01*
X173526000Y-96128927D01*
X173526000Y-99621073D01*
X173522548Y-99656119D01*
X173514114Y-99683923D01*
X173500422Y-99709540D01*
X173481994Y-99731994D01*
X173459540Y-99750422D01*
X173433923Y-99764114D01*
X173406119Y-99772548D01*
X173371073Y-99776000D01*
X169878927Y-99776000D01*
X169843881Y-99772548D01*
X169816077Y-99764114D01*
X169790460Y-99750422D01*
X169768006Y-99731994D01*
X169749578Y-99709540D01*
X169735886Y-99683923D01*
X169727452Y-99656119D01*
X169724000Y-99621073D01*
X169724000Y-96128927D01*
X169727452Y-96093881D01*
X169735886Y-96066077D01*
X169749578Y-96040460D01*
X169768006Y-96018006D01*
X169790460Y-95999578D01*
X169816077Y-95985886D01*
X169843881Y-95977452D01*
X169878927Y-95974000D01*
X173371073Y-95974000D01*
X173406119Y-95977452D01*
X173406119Y-95977452D01*
G37*
G36*
X121064499Y-97878445D02*
G01*
X121101995Y-97889820D01*
X121136554Y-97908292D01*
X121166847Y-97933153D01*
X121191708Y-97963446D01*
X121210180Y-97998005D01*
X121221555Y-98035501D01*
X121226000Y-98080638D01*
X121226000Y-98819362D01*
X121221555Y-98864499D01*
X121210180Y-98901995D01*
X121191708Y-98936554D01*
X121166847Y-98966847D01*
X121136554Y-98991708D01*
X121101995Y-99010180D01*
X121064499Y-99021555D01*
X121019362Y-99026000D01*
X120380638Y-99026000D01*
X120335501Y-99021555D01*
X120298005Y-99010180D01*
X120263446Y-98991708D01*
X120233153Y-98966847D01*
X120208292Y-98936554D01*
X120189820Y-98901995D01*
X120178445Y-98864499D01*
X120174000Y-98819362D01*
X120174000Y-98080638D01*
X120178445Y-98035501D01*
X120189820Y-97998005D01*
X120208292Y-97963446D01*
X120233153Y-97933153D01*
X120263446Y-97908292D01*
X120298005Y-97889820D01*
X120335501Y-97878445D01*
X120380638Y-97874000D01*
X121019362Y-97874000D01*
X121064499Y-97878445D01*
X121064499Y-97878445D01*
G37*
G36*
X119314499Y-97853445D02*
G01*
X119351995Y-97864820D01*
X119386554Y-97883292D01*
X119416847Y-97908153D01*
X119441708Y-97938446D01*
X119460180Y-97973005D01*
X119471555Y-98010501D01*
X119476000Y-98055638D01*
X119476000Y-98794362D01*
X119471555Y-98839499D01*
X119460180Y-98876995D01*
X119441708Y-98911554D01*
X119416847Y-98941847D01*
X119386554Y-98966708D01*
X119351995Y-98985180D01*
X119314499Y-98996555D01*
X119269362Y-99001000D01*
X118630638Y-99001000D01*
X118585501Y-98996555D01*
X118548005Y-98985180D01*
X118513446Y-98966708D01*
X118483153Y-98941847D01*
X118458292Y-98911554D01*
X118439820Y-98876995D01*
X118428445Y-98839499D01*
X118424000Y-98794362D01*
X118424000Y-98055638D01*
X118428445Y-98010501D01*
X118439820Y-97973005D01*
X118458292Y-97938446D01*
X118483153Y-97908153D01*
X118513446Y-97883292D01*
X118548005Y-97864820D01*
X118585501Y-97853445D01*
X118630638Y-97849000D01*
X119269362Y-97849000D01*
X119314499Y-97853445D01*
X119314499Y-97853445D01*
G37*
G36*
X131305997Y-95253051D02*
G01*
X131339652Y-95263261D01*
X131370665Y-95279838D01*
X131397851Y-95302149D01*
X131420162Y-95329335D01*
X131436739Y-95360348D01*
X131446949Y-95394003D01*
X131451000Y-95435138D01*
X131451000Y-98664862D01*
X131446949Y-98705997D01*
X131436739Y-98739652D01*
X131420162Y-98770665D01*
X131397851Y-98797851D01*
X131370665Y-98820162D01*
X131339652Y-98836739D01*
X131305997Y-98846949D01*
X131264862Y-98851000D01*
X129935138Y-98851000D01*
X129894003Y-98846949D01*
X129860348Y-98836739D01*
X129829335Y-98820162D01*
X129802149Y-98797851D01*
X129779838Y-98770665D01*
X129763261Y-98739652D01*
X129753051Y-98705997D01*
X129749000Y-98664862D01*
X129749000Y-95435138D01*
X129753051Y-95394003D01*
X129763261Y-95360348D01*
X129779838Y-95329335D01*
X129802149Y-95302149D01*
X129829335Y-95279838D01*
X129860348Y-95263261D01*
X129894003Y-95253051D01*
X129935138Y-95249000D01*
X131264862Y-95249000D01*
X131305997Y-95253051D01*
X131305997Y-95253051D01*
G37*
G36*
X125205997Y-95753051D02*
G01*
X125239652Y-95763261D01*
X125270665Y-95779838D01*
X125297851Y-95802149D01*
X125320162Y-95829335D01*
X125336739Y-95860348D01*
X125346949Y-95894003D01*
X125351000Y-95935138D01*
X125351000Y-98264862D01*
X125346949Y-98305997D01*
X125336739Y-98339652D01*
X125320162Y-98370665D01*
X125297851Y-98397851D01*
X125270665Y-98420162D01*
X125239652Y-98436739D01*
X125205997Y-98446949D01*
X125164862Y-98451000D01*
X123835138Y-98451000D01*
X123794003Y-98446949D01*
X123760348Y-98436739D01*
X123729335Y-98420162D01*
X123702149Y-98397851D01*
X123679838Y-98370665D01*
X123663261Y-98339652D01*
X123653051Y-98305997D01*
X123649000Y-98264862D01*
X123649000Y-95935138D01*
X123653051Y-95894003D01*
X123663261Y-95860348D01*
X123679838Y-95829335D01*
X123702149Y-95802149D01*
X123729335Y-95779838D01*
X123760348Y-95763261D01*
X123794003Y-95753051D01*
X123835138Y-95749000D01*
X125164862Y-95749000D01*
X125205997Y-95753051D01*
X125205997Y-95753051D01*
G37*
G36*
X140351000Y-97751000D02*
G01*
X138749000Y-97751000D01*
X138749000Y-96149000D01*
X140351000Y-96149000D01*
X140351000Y-97751000D01*
X140351000Y-97751000D01*
G37*
G36*
X148001000Y-97551000D02*
G01*
X146399000Y-97551000D01*
X146399000Y-95949000D01*
X148001000Y-95949000D01*
X148001000Y-97551000D01*
X148001000Y-97551000D01*
G37*
G36*
X154751000Y-95101000D02*
G01*
X151749000Y-95101000D01*
X151749000Y-89599000D01*
X154751000Y-89599000D01*
X154751000Y-95101000D01*
X154751000Y-95101000D01*
G37*
G36*
X164651000Y-95101000D02*
G01*
X161649000Y-95101000D01*
X161649000Y-89599000D01*
X164651000Y-89599000D01*
X164651000Y-95101000D01*
X164651000Y-95101000D01*
G37*
G36*
X170776000Y-92501000D02*
G01*
X169174000Y-92501000D01*
X169174000Y-90899000D01*
X170776000Y-90899000D01*
X170776000Y-92501000D01*
X170776000Y-92501000D01*
G37*
G36*
X133164499Y-91078445D02*
G01*
X133201995Y-91089820D01*
X133236554Y-91108292D01*
X133266847Y-91133153D01*
X133291708Y-91163446D01*
X133310180Y-91198005D01*
X133321555Y-91235501D01*
X133326000Y-91280638D01*
X133326000Y-91919362D01*
X133321555Y-91964499D01*
X133310180Y-92001995D01*
X133291708Y-92036554D01*
X133266847Y-92066847D01*
X133236554Y-92091708D01*
X133201995Y-92110180D01*
X133164499Y-92121555D01*
X133119362Y-92126000D01*
X132380638Y-92126000D01*
X132335501Y-92121555D01*
X132298005Y-92110180D01*
X132263446Y-92091708D01*
X132233153Y-92066847D01*
X132208292Y-92036554D01*
X132189820Y-92001995D01*
X132178445Y-91964499D01*
X132174000Y-91919362D01*
X132174000Y-91280638D01*
X132178445Y-91235501D01*
X132189820Y-91198005D01*
X132208292Y-91163446D01*
X132233153Y-91133153D01*
X132263446Y-91108292D01*
X132298005Y-91089820D01*
X132335501Y-91078445D01*
X132380638Y-91074000D01*
X133119362Y-91074000D01*
X133164499Y-91078445D01*
X133164499Y-91078445D01*
G37*
G36*
X131414499Y-91078445D02*
G01*
X131451995Y-91089820D01*
X131486554Y-91108292D01*
X131516847Y-91133153D01*
X131541708Y-91163446D01*
X131560180Y-91198005D01*
X131571555Y-91235501D01*
X131576000Y-91280638D01*
X131576000Y-91919362D01*
X131571555Y-91964499D01*
X131560180Y-92001995D01*
X131541708Y-92036554D01*
X131516847Y-92066847D01*
X131486554Y-92091708D01*
X131451995Y-92110180D01*
X131414499Y-92121555D01*
X131369362Y-92126000D01*
X130630638Y-92126000D01*
X130585501Y-92121555D01*
X130548005Y-92110180D01*
X130513446Y-92091708D01*
X130483153Y-92066847D01*
X130458292Y-92036554D01*
X130439820Y-92001995D01*
X130428445Y-91964499D01*
X130424000Y-91919362D01*
X130424000Y-91280638D01*
X130428445Y-91235501D01*
X130439820Y-91198005D01*
X130458292Y-91163446D01*
X130483153Y-91133153D01*
X130513446Y-91108292D01*
X130548005Y-91089820D01*
X130585501Y-91078445D01*
X130630638Y-91074000D01*
X131369362Y-91074000D01*
X131414499Y-91078445D01*
X131414499Y-91078445D01*
G37*
G36*
X133164499Y-89203445D02*
G01*
X133201995Y-89214820D01*
X133236554Y-89233292D01*
X133266847Y-89258153D01*
X133291708Y-89288446D01*
X133310180Y-89323005D01*
X133321555Y-89360501D01*
X133326000Y-89405638D01*
X133326000Y-90144362D01*
X133321555Y-90189499D01*
X133310180Y-90226995D01*
X133291708Y-90261554D01*
X133266847Y-90291847D01*
X133236554Y-90316708D01*
X133201995Y-90335180D01*
X133164499Y-90346555D01*
X133119362Y-90351000D01*
X132480638Y-90351000D01*
X132435501Y-90346555D01*
X132398005Y-90335180D01*
X132363446Y-90316708D01*
X132333153Y-90291847D01*
X132308292Y-90261554D01*
X132289820Y-90226995D01*
X132278445Y-90189499D01*
X132274000Y-90144362D01*
X132274000Y-89405638D01*
X132278445Y-89360501D01*
X132289820Y-89323005D01*
X132308292Y-89288446D01*
X132333153Y-89258153D01*
X132363446Y-89233292D01*
X132398005Y-89214820D01*
X132435501Y-89203445D01*
X132480638Y-89199000D01*
X133119362Y-89199000D01*
X133164499Y-89203445D01*
X133164499Y-89203445D01*
G37*
G36*
X148431000Y-90251000D02*
G01*
X147129000Y-90251000D01*
X147129000Y-87949000D01*
X148431000Y-87949000D01*
X148431000Y-90251000D01*
X148431000Y-90251000D01*
G37*
G36*
X143871000Y-90251000D02*
G01*
X142569000Y-90251000D01*
X142569000Y-87949000D01*
X143871000Y-87949000D01*
X143871000Y-90251000D01*
X143871000Y-90251000D01*
G37*
G36*
X131364499Y-88778445D02*
G01*
X131401995Y-88789820D01*
X131436554Y-88808292D01*
X131466847Y-88833153D01*
X131491708Y-88863446D01*
X131510180Y-88898005D01*
X131521555Y-88935501D01*
X131526000Y-88980638D01*
X131526000Y-89719362D01*
X131521555Y-89764499D01*
X131510180Y-89801995D01*
X131491708Y-89836554D01*
X131466847Y-89866847D01*
X131436554Y-89891708D01*
X131401995Y-89910180D01*
X131364499Y-89921555D01*
X131319362Y-89926000D01*
X130680638Y-89926000D01*
X130635501Y-89921555D01*
X130598005Y-89910180D01*
X130563446Y-89891708D01*
X130533153Y-89866847D01*
X130508292Y-89836554D01*
X130489820Y-89801995D01*
X130478445Y-89764499D01*
X130474000Y-89719362D01*
X130474000Y-88980638D01*
X130478445Y-88935501D01*
X130489820Y-88898005D01*
X130508292Y-88863446D01*
X130533153Y-88833153D01*
X130563446Y-88808292D01*
X130598005Y-88789820D01*
X130635501Y-88778445D01*
X130680638Y-88774000D01*
X131319362Y-88774000D01*
X131364499Y-88778445D01*
X131364499Y-88778445D01*
G37*
G36*
X129364499Y-88303445D02*
G01*
X129401995Y-88314820D01*
X129436554Y-88333292D01*
X129466847Y-88358153D01*
X129491708Y-88388446D01*
X129510180Y-88423005D01*
X129521555Y-88460501D01*
X129526000Y-88505638D01*
X129526000Y-89244362D01*
X129521555Y-89289499D01*
X129510180Y-89326995D01*
X129491708Y-89361554D01*
X129466847Y-89391847D01*
X129436554Y-89416708D01*
X129401995Y-89435180D01*
X129364499Y-89446555D01*
X129319362Y-89451000D01*
X128680638Y-89451000D01*
X128635501Y-89446555D01*
X128598005Y-89435180D01*
X128563446Y-89416708D01*
X128533153Y-89391847D01*
X128508292Y-89361554D01*
X128489820Y-89326995D01*
X128478445Y-89289499D01*
X128474000Y-89244362D01*
X128474000Y-88505638D01*
X128478445Y-88460501D01*
X128489820Y-88423005D01*
X128508292Y-88388446D01*
X128533153Y-88358153D01*
X128563446Y-88333292D01*
X128598005Y-88314820D01*
X128635501Y-88303445D01*
X128680638Y-88299000D01*
X129319362Y-88299000D01*
X129364499Y-88303445D01*
X129364499Y-88303445D01*
G37*
G36*
X122064499Y-88278445D02*
G01*
X122101995Y-88289820D01*
X122136554Y-88308292D01*
X122166847Y-88333153D01*
X122191708Y-88363446D01*
X122210180Y-88398005D01*
X122221555Y-88435501D01*
X122226000Y-88480638D01*
X122226000Y-89219362D01*
X122221555Y-89264499D01*
X122210180Y-89301995D01*
X122191708Y-89336554D01*
X122166847Y-89366847D01*
X122136554Y-89391708D01*
X122101995Y-89410180D01*
X122064499Y-89421555D01*
X122019362Y-89426000D01*
X121380638Y-89426000D01*
X121335501Y-89421555D01*
X121298005Y-89410180D01*
X121263446Y-89391708D01*
X121233153Y-89366847D01*
X121208292Y-89336554D01*
X121189820Y-89301995D01*
X121178445Y-89264499D01*
X121174000Y-89219362D01*
X121174000Y-88480638D01*
X121178445Y-88435501D01*
X121189820Y-88398005D01*
X121208292Y-88363446D01*
X121233153Y-88333153D01*
X121263446Y-88308292D01*
X121298005Y-88289820D01*
X121335501Y-88278445D01*
X121380638Y-88274000D01*
X122019362Y-88274000D01*
X122064499Y-88278445D01*
X122064499Y-88278445D01*
G37*
G36*
X127664499Y-88278445D02*
G01*
X127701995Y-88289820D01*
X127736554Y-88308292D01*
X127766847Y-88333153D01*
X127791708Y-88363446D01*
X127810180Y-88398005D01*
X127821555Y-88435501D01*
X127826000Y-88480638D01*
X127826000Y-89219362D01*
X127821555Y-89264499D01*
X127810180Y-89301995D01*
X127791708Y-89336554D01*
X127766847Y-89366847D01*
X127736554Y-89391708D01*
X127701995Y-89410180D01*
X127664499Y-89421555D01*
X127619362Y-89426000D01*
X126980638Y-89426000D01*
X126935501Y-89421555D01*
X126898005Y-89410180D01*
X126863446Y-89391708D01*
X126833153Y-89366847D01*
X126808292Y-89336554D01*
X126789820Y-89301995D01*
X126778445Y-89264499D01*
X126774000Y-89219362D01*
X126774000Y-88480638D01*
X126778445Y-88435501D01*
X126789820Y-88398005D01*
X126808292Y-88363446D01*
X126833153Y-88333153D01*
X126863446Y-88308292D01*
X126898005Y-88289820D01*
X126935501Y-88278445D01*
X126980638Y-88274000D01*
X127619362Y-88274000D01*
X127664499Y-88278445D01*
X127664499Y-88278445D01*
G37*
G36*
X133164499Y-87453445D02*
G01*
X133201995Y-87464820D01*
X133236554Y-87483292D01*
X133266847Y-87508153D01*
X133291708Y-87538446D01*
X133310180Y-87573005D01*
X133321555Y-87610501D01*
X133326000Y-87655638D01*
X133326000Y-88394362D01*
X133321555Y-88439499D01*
X133310180Y-88476995D01*
X133291708Y-88511554D01*
X133266847Y-88541847D01*
X133236554Y-88566708D01*
X133201995Y-88585180D01*
X133164499Y-88596555D01*
X133119362Y-88601000D01*
X132480638Y-88601000D01*
X132435501Y-88596555D01*
X132398005Y-88585180D01*
X132363446Y-88566708D01*
X132333153Y-88541847D01*
X132308292Y-88511554D01*
X132289820Y-88476995D01*
X132278445Y-88439499D01*
X132274000Y-88394362D01*
X132274000Y-87655638D01*
X132278445Y-87610501D01*
X132289820Y-87573005D01*
X132308292Y-87538446D01*
X132333153Y-87508153D01*
X132363446Y-87483292D01*
X132398005Y-87464820D01*
X132435501Y-87453445D01*
X132480638Y-87449000D01*
X133119362Y-87449000D01*
X133164499Y-87453445D01*
X133164499Y-87453445D01*
G37*
G36*
X131364499Y-87028445D02*
G01*
X131401995Y-87039820D01*
X131436554Y-87058292D01*
X131466847Y-87083153D01*
X131491708Y-87113446D01*
X131510180Y-87148005D01*
X131521555Y-87185501D01*
X131526000Y-87230638D01*
X131526000Y-87969362D01*
X131521555Y-88014499D01*
X131510180Y-88051995D01*
X131491708Y-88086554D01*
X131466847Y-88116847D01*
X131436554Y-88141708D01*
X131401995Y-88160180D01*
X131364499Y-88171555D01*
X131319362Y-88176000D01*
X130680638Y-88176000D01*
X130635501Y-88171555D01*
X130598005Y-88160180D01*
X130563446Y-88141708D01*
X130533153Y-88116847D01*
X130508292Y-88086554D01*
X130489820Y-88051995D01*
X130478445Y-88014499D01*
X130474000Y-87969362D01*
X130474000Y-87230638D01*
X130478445Y-87185501D01*
X130489820Y-87148005D01*
X130508292Y-87113446D01*
X130533153Y-87083153D01*
X130563446Y-87058292D01*
X130598005Y-87039820D01*
X130635501Y-87028445D01*
X130680638Y-87024000D01*
X131319362Y-87024000D01*
X131364499Y-87028445D01*
X131364499Y-87028445D01*
G37*
G36*
X137064499Y-86828445D02*
G01*
X137101995Y-86839820D01*
X137136554Y-86858292D01*
X137166847Y-86883153D01*
X137191708Y-86913446D01*
X137210180Y-86948005D01*
X137221555Y-86985501D01*
X137226000Y-87030638D01*
X137226000Y-87769362D01*
X137221555Y-87814499D01*
X137210180Y-87851995D01*
X137191708Y-87886554D01*
X137166847Y-87916847D01*
X137136554Y-87941708D01*
X137101995Y-87960180D01*
X137064499Y-87971555D01*
X137019362Y-87976000D01*
X136380638Y-87976000D01*
X136335501Y-87971555D01*
X136298005Y-87960180D01*
X136263446Y-87941708D01*
X136233153Y-87916847D01*
X136208292Y-87886554D01*
X136189820Y-87851995D01*
X136178445Y-87814499D01*
X136174000Y-87769362D01*
X136174000Y-87030638D01*
X136178445Y-86985501D01*
X136189820Y-86948005D01*
X136208292Y-86913446D01*
X136233153Y-86883153D01*
X136263446Y-86858292D01*
X136298005Y-86839820D01*
X136335501Y-86828445D01*
X136380638Y-86824000D01*
X137019362Y-86824000D01*
X137064499Y-86828445D01*
X137064499Y-86828445D01*
G37*
G36*
X129364499Y-86553445D02*
G01*
X129401995Y-86564820D01*
X129436554Y-86583292D01*
X129466847Y-86608153D01*
X129491708Y-86638446D01*
X129510180Y-86673005D01*
X129521555Y-86710501D01*
X129526000Y-86755638D01*
X129526000Y-87494362D01*
X129521555Y-87539499D01*
X129510180Y-87576995D01*
X129491708Y-87611554D01*
X129466847Y-87641847D01*
X129436554Y-87666708D01*
X129401995Y-87685180D01*
X129364499Y-87696555D01*
X129319362Y-87701000D01*
X128680638Y-87701000D01*
X128635501Y-87696555D01*
X128598005Y-87685180D01*
X128563446Y-87666708D01*
X128533153Y-87641847D01*
X128508292Y-87611554D01*
X128489820Y-87576995D01*
X128478445Y-87539499D01*
X128474000Y-87494362D01*
X128474000Y-86755638D01*
X128478445Y-86710501D01*
X128489820Y-86673005D01*
X128508292Y-86638446D01*
X128533153Y-86608153D01*
X128563446Y-86583292D01*
X128598005Y-86564820D01*
X128635501Y-86553445D01*
X128680638Y-86549000D01*
X129319362Y-86549000D01*
X129364499Y-86553445D01*
X129364499Y-86553445D01*
G37*
G36*
X127664499Y-86528445D02*
G01*
X127701995Y-86539820D01*
X127736554Y-86558292D01*
X127766847Y-86583153D01*
X127791708Y-86613446D01*
X127810180Y-86648005D01*
X127821555Y-86685501D01*
X127826000Y-86730638D01*
X127826000Y-87469362D01*
X127821555Y-87514499D01*
X127810180Y-87551995D01*
X127791708Y-87586554D01*
X127766847Y-87616847D01*
X127736554Y-87641708D01*
X127701995Y-87660180D01*
X127664499Y-87671555D01*
X127619362Y-87676000D01*
X126980638Y-87676000D01*
X126935501Y-87671555D01*
X126898005Y-87660180D01*
X126863446Y-87641708D01*
X126833153Y-87616847D01*
X126808292Y-87586554D01*
X126789820Y-87551995D01*
X126778445Y-87514499D01*
X126774000Y-87469362D01*
X126774000Y-86730638D01*
X126778445Y-86685501D01*
X126789820Y-86648005D01*
X126808292Y-86613446D01*
X126833153Y-86583153D01*
X126863446Y-86558292D01*
X126898005Y-86539820D01*
X126935501Y-86528445D01*
X126980638Y-86524000D01*
X127619362Y-86524000D01*
X127664499Y-86528445D01*
X127664499Y-86528445D01*
G37*
G36*
X122064499Y-86528445D02*
G01*
X122101995Y-86539820D01*
X122136554Y-86558292D01*
X122166847Y-86583153D01*
X122191708Y-86613446D01*
X122210180Y-86648005D01*
X122221555Y-86685501D01*
X122226000Y-86730638D01*
X122226000Y-87469362D01*
X122221555Y-87514499D01*
X122210180Y-87551995D01*
X122191708Y-87586554D01*
X122166847Y-87616847D01*
X122136554Y-87641708D01*
X122101995Y-87660180D01*
X122064499Y-87671555D01*
X122019362Y-87676000D01*
X121380638Y-87676000D01*
X121335501Y-87671555D01*
X121298005Y-87660180D01*
X121263446Y-87641708D01*
X121233153Y-87616847D01*
X121208292Y-87586554D01*
X121189820Y-87551995D01*
X121178445Y-87514499D01*
X121174000Y-87469362D01*
X121174000Y-86730638D01*
X121178445Y-86685501D01*
X121189820Y-86648005D01*
X121208292Y-86613446D01*
X121233153Y-86583153D01*
X121263446Y-86558292D01*
X121298005Y-86539820D01*
X121335501Y-86528445D01*
X121380638Y-86524000D01*
X122019362Y-86524000D01*
X122064499Y-86528445D01*
X122064499Y-86528445D01*
G37*
G36*
X123864499Y-86578445D02*
G01*
X123901995Y-86589820D01*
X123936554Y-86608292D01*
X123966847Y-86633153D01*
X123991708Y-86663446D01*
X124010180Y-86698005D01*
X124021555Y-86735501D01*
X124026000Y-86780638D01*
X124026000Y-87419362D01*
X124021555Y-87464499D01*
X124010180Y-87501995D01*
X123991708Y-87536554D01*
X123966847Y-87566847D01*
X123936554Y-87591708D01*
X123901995Y-87610180D01*
X123864499Y-87621555D01*
X123819362Y-87626000D01*
X123080638Y-87626000D01*
X123035501Y-87621555D01*
X122998005Y-87610180D01*
X122963446Y-87591708D01*
X122933153Y-87566847D01*
X122908292Y-87536554D01*
X122889820Y-87501995D01*
X122878445Y-87464499D01*
X122874000Y-87419362D01*
X122874000Y-86780638D01*
X122878445Y-86735501D01*
X122889820Y-86698005D01*
X122908292Y-86663446D01*
X122933153Y-86633153D01*
X122963446Y-86608292D01*
X122998005Y-86589820D01*
X123035501Y-86578445D01*
X123080638Y-86574000D01*
X123819362Y-86574000D01*
X123864499Y-86578445D01*
X123864499Y-86578445D01*
G37*
G36*
X125614499Y-86578445D02*
G01*
X125651995Y-86589820D01*
X125686554Y-86608292D01*
X125716847Y-86633153D01*
X125741708Y-86663446D01*
X125760180Y-86698005D01*
X125771555Y-86735501D01*
X125776000Y-86780638D01*
X125776000Y-87419362D01*
X125771555Y-87464499D01*
X125760180Y-87501995D01*
X125741708Y-87536554D01*
X125716847Y-87566847D01*
X125686554Y-87591708D01*
X125651995Y-87610180D01*
X125614499Y-87621555D01*
X125569362Y-87626000D01*
X124830638Y-87626000D01*
X124785501Y-87621555D01*
X124748005Y-87610180D01*
X124713446Y-87591708D01*
X124683153Y-87566847D01*
X124658292Y-87536554D01*
X124639820Y-87501995D01*
X124628445Y-87464499D01*
X124624000Y-87419362D01*
X124624000Y-86780638D01*
X124628445Y-86735501D01*
X124639820Y-86698005D01*
X124658292Y-86663446D01*
X124683153Y-86633153D01*
X124713446Y-86608292D01*
X124748005Y-86589820D01*
X124785501Y-86578445D01*
X124830638Y-86574000D01*
X125569362Y-86574000D01*
X125614499Y-86578445D01*
X125614499Y-86578445D01*
G37*
G36*
X120464499Y-85728445D02*
G01*
X120501995Y-85739820D01*
X120536554Y-85758292D01*
X120566847Y-85783153D01*
X120591708Y-85813446D01*
X120610180Y-85848005D01*
X120621555Y-85885501D01*
X120626000Y-85930638D01*
X120626000Y-86669362D01*
X120621555Y-86714499D01*
X120610180Y-86751995D01*
X120591708Y-86786554D01*
X120566847Y-86816847D01*
X120536554Y-86841708D01*
X120501995Y-86860180D01*
X120464499Y-86871555D01*
X120419362Y-86876000D01*
X119780638Y-86876000D01*
X119735501Y-86871555D01*
X119698005Y-86860180D01*
X119663446Y-86841708D01*
X119633153Y-86816847D01*
X119608292Y-86786554D01*
X119589820Y-86751995D01*
X119578445Y-86714499D01*
X119574000Y-86669362D01*
X119574000Y-85930638D01*
X119578445Y-85885501D01*
X119589820Y-85848005D01*
X119608292Y-85813446D01*
X119633153Y-85783153D01*
X119663446Y-85758292D01*
X119698005Y-85739820D01*
X119735501Y-85728445D01*
X119780638Y-85724000D01*
X120419362Y-85724000D01*
X120464499Y-85728445D01*
X120464499Y-85728445D01*
G37*
G36*
X137064499Y-85078445D02*
G01*
X137101995Y-85089820D01*
X137136554Y-85108292D01*
X137166847Y-85133153D01*
X137191708Y-85163446D01*
X137210180Y-85198005D01*
X137221555Y-85235501D01*
X137226000Y-85280638D01*
X137226000Y-86019362D01*
X137221555Y-86064499D01*
X137210180Y-86101995D01*
X137191708Y-86136554D01*
X137166847Y-86166847D01*
X137136554Y-86191708D01*
X137101995Y-86210180D01*
X137064499Y-86221555D01*
X137019362Y-86226000D01*
X136380638Y-86226000D01*
X136335501Y-86221555D01*
X136298005Y-86210180D01*
X136263446Y-86191708D01*
X136233153Y-86166847D01*
X136208292Y-86136554D01*
X136189820Y-86101995D01*
X136178445Y-86064499D01*
X136174000Y-86019362D01*
X136174000Y-85280638D01*
X136178445Y-85235501D01*
X136189820Y-85198005D01*
X136208292Y-85163446D01*
X136233153Y-85133153D01*
X136263446Y-85108292D01*
X136298005Y-85089820D01*
X136335501Y-85078445D01*
X136380638Y-85074000D01*
X137019362Y-85074000D01*
X137064499Y-85078445D01*
X137064499Y-85078445D01*
G37*
G36*
X148451000Y-86051000D02*
G01*
X142549000Y-86051000D01*
X142549000Y-79549000D01*
X148451000Y-79549000D01*
X148451000Y-86051000D01*
X148451000Y-86051000D01*
G37*
G36*
X125764499Y-84578445D02*
G01*
X125801995Y-84589820D01*
X125836554Y-84608292D01*
X125866847Y-84633153D01*
X125891708Y-84663446D01*
X125910180Y-84698005D01*
X125921555Y-84735501D01*
X125926000Y-84780638D01*
X125926000Y-85519362D01*
X125921555Y-85564499D01*
X125910180Y-85601995D01*
X125891708Y-85636554D01*
X125866847Y-85666847D01*
X125836554Y-85691708D01*
X125801995Y-85710180D01*
X125764499Y-85721555D01*
X125719362Y-85726000D01*
X125080638Y-85726000D01*
X125035501Y-85721555D01*
X124998005Y-85710180D01*
X124963446Y-85691708D01*
X124933153Y-85666847D01*
X124908292Y-85636554D01*
X124889820Y-85601995D01*
X124878445Y-85564499D01*
X124874000Y-85519362D01*
X124874000Y-84780638D01*
X124878445Y-84735501D01*
X124889820Y-84698005D01*
X124908292Y-84663446D01*
X124933153Y-84633153D01*
X124963446Y-84608292D01*
X124998005Y-84589820D01*
X125035501Y-84578445D01*
X125080638Y-84574000D01*
X125719362Y-84574000D01*
X125764499Y-84578445D01*
X125764499Y-84578445D01*
G37*
G36*
X123764499Y-84528445D02*
G01*
X123801995Y-84539820D01*
X123836554Y-84558292D01*
X123866847Y-84583153D01*
X123891708Y-84613446D01*
X123910180Y-84648005D01*
X123921555Y-84685501D01*
X123926000Y-84730638D01*
X123926000Y-85469362D01*
X123921555Y-85514499D01*
X123910180Y-85551995D01*
X123891708Y-85586554D01*
X123866847Y-85616847D01*
X123836554Y-85641708D01*
X123801995Y-85660180D01*
X123764499Y-85671555D01*
X123719362Y-85676000D01*
X123080638Y-85676000D01*
X123035501Y-85671555D01*
X122998005Y-85660180D01*
X122963446Y-85641708D01*
X122933153Y-85616847D01*
X122908292Y-85586554D01*
X122889820Y-85551995D01*
X122878445Y-85514499D01*
X122874000Y-85469362D01*
X122874000Y-84730638D01*
X122878445Y-84685501D01*
X122889820Y-84648005D01*
X122908292Y-84613446D01*
X122933153Y-84583153D01*
X122963446Y-84558292D01*
X122998005Y-84539820D01*
X123035501Y-84528445D01*
X123080638Y-84524000D01*
X123719362Y-84524000D01*
X123764499Y-84528445D01*
X123764499Y-84528445D01*
G37*
G36*
X122064499Y-84503445D02*
G01*
X122101995Y-84514820D01*
X122136554Y-84533292D01*
X122166847Y-84558153D01*
X122191708Y-84588446D01*
X122210180Y-84623005D01*
X122221555Y-84660501D01*
X122226000Y-84705638D01*
X122226000Y-85444362D01*
X122221555Y-85489499D01*
X122210180Y-85526995D01*
X122191708Y-85561554D01*
X122166847Y-85591847D01*
X122136554Y-85616708D01*
X122101995Y-85635180D01*
X122064499Y-85646555D01*
X122019362Y-85651000D01*
X121380638Y-85651000D01*
X121335501Y-85646555D01*
X121298005Y-85635180D01*
X121263446Y-85616708D01*
X121233153Y-85591847D01*
X121208292Y-85561554D01*
X121189820Y-85526995D01*
X121178445Y-85489499D01*
X121174000Y-85444362D01*
X121174000Y-84705638D01*
X121178445Y-84660501D01*
X121189820Y-84623005D01*
X121208292Y-84588446D01*
X121233153Y-84558153D01*
X121263446Y-84533292D01*
X121298005Y-84514820D01*
X121335501Y-84503445D01*
X121380638Y-84499000D01*
X122019362Y-84499000D01*
X122064499Y-84503445D01*
X122064499Y-84503445D01*
G37*
G36*
X129155355Y-80500083D02*
G01*
X129160029Y-80501501D01*
X129164330Y-80503800D01*
X129170702Y-80509029D01*
X129191076Y-80522643D01*
X129213715Y-80532020D01*
X129237749Y-80536800D01*
X129262253Y-80536800D01*
X129286286Y-80532019D01*
X129308925Y-80522642D01*
X129329298Y-80509029D01*
X129335670Y-80503800D01*
X129339971Y-80501501D01*
X129344645Y-80500083D01*
X129355641Y-80499000D01*
X129644359Y-80499000D01*
X129655355Y-80500083D01*
X129660029Y-80501501D01*
X129664330Y-80503800D01*
X129670702Y-80509029D01*
X129691076Y-80522643D01*
X129713715Y-80532020D01*
X129737749Y-80536800D01*
X129762253Y-80536800D01*
X129786286Y-80532019D01*
X129808925Y-80522642D01*
X129829298Y-80509029D01*
X129835670Y-80503800D01*
X129839971Y-80501501D01*
X129844645Y-80500083D01*
X129855641Y-80499000D01*
X130144359Y-80499000D01*
X130155355Y-80500083D01*
X130160029Y-80501501D01*
X130164330Y-80503800D01*
X130170702Y-80509029D01*
X130191076Y-80522643D01*
X130213715Y-80532020D01*
X130237749Y-80536800D01*
X130262253Y-80536800D01*
X130286286Y-80532019D01*
X130308925Y-80522642D01*
X130329298Y-80509029D01*
X130335670Y-80503800D01*
X130339971Y-80501501D01*
X130344645Y-80500083D01*
X130355641Y-80499000D01*
X130644359Y-80499000D01*
X130655355Y-80500083D01*
X130660029Y-80501501D01*
X130664330Y-80503800D01*
X130670702Y-80509029D01*
X130691076Y-80522643D01*
X130713715Y-80532020D01*
X130737749Y-80536800D01*
X130762253Y-80536800D01*
X130786286Y-80532019D01*
X130808925Y-80522642D01*
X130829298Y-80509029D01*
X130835670Y-80503800D01*
X130839971Y-80501501D01*
X130844645Y-80500083D01*
X130855641Y-80499000D01*
X131144359Y-80499000D01*
X131155355Y-80500083D01*
X131160029Y-80501501D01*
X131164331Y-80503800D01*
X131168104Y-80506896D01*
X131171200Y-80510669D01*
X131173499Y-80514971D01*
X131174917Y-80519645D01*
X131176000Y-80530641D01*
X131176000Y-81375500D01*
X131176155Y-81375500D01*
X131176156Y-81392303D01*
X131180938Y-81416336D01*
X131190317Y-81438974D01*
X131203932Y-81459348D01*
X131221261Y-81476674D01*
X131241636Y-81490286D01*
X131264267Y-81499659D01*
X131303485Y-81511556D01*
X131330623Y-81526062D01*
X131354414Y-81545586D01*
X131373938Y-81569377D01*
X131388444Y-81596515D01*
X131400341Y-81635733D01*
X131409719Y-81658372D01*
X131423332Y-81678746D01*
X131440659Y-81696073D01*
X131461034Y-81709687D01*
X131483673Y-81719065D01*
X131507706Y-81723845D01*
X131524500Y-81723846D01*
X131524500Y-81724000D01*
X132369359Y-81724000D01*
X132380355Y-81725083D01*
X132385029Y-81726501D01*
X132389331Y-81728800D01*
X132393104Y-81731896D01*
X132396200Y-81735669D01*
X132398499Y-81739971D01*
X132399917Y-81744645D01*
X132401000Y-81755641D01*
X132401000Y-82044359D01*
X132399917Y-82055355D01*
X132398499Y-82060029D01*
X132396200Y-82064330D01*
X132390971Y-82070702D01*
X132377357Y-82091076D01*
X132367980Y-82113715D01*
X132363200Y-82137749D01*
X132363200Y-82162253D01*
X132367981Y-82186286D01*
X132377358Y-82208925D01*
X132390971Y-82229298D01*
X132396200Y-82235670D01*
X132398499Y-82239971D01*
X132399917Y-82244645D01*
X132401000Y-82255641D01*
X132401000Y-82544359D01*
X132399917Y-82555355D01*
X132398499Y-82560029D01*
X132396200Y-82564330D01*
X132390971Y-82570702D01*
X132377357Y-82591076D01*
X132367980Y-82613715D01*
X132363200Y-82637749D01*
X132363200Y-82662253D01*
X132367981Y-82686286D01*
X132377358Y-82708925D01*
X132390971Y-82729298D01*
X132396200Y-82735670D01*
X132398499Y-82739971D01*
X132399917Y-82744645D01*
X132401000Y-82755641D01*
X132401000Y-83044359D01*
X132399917Y-83055355D01*
X132398499Y-83060029D01*
X132396200Y-83064330D01*
X132390971Y-83070702D01*
X132377357Y-83091076D01*
X132367980Y-83113715D01*
X132363200Y-83137749D01*
X132363200Y-83162253D01*
X132367981Y-83186286D01*
X132377358Y-83208925D01*
X132390971Y-83229298D01*
X132396200Y-83235670D01*
X132398499Y-83239971D01*
X132399917Y-83244645D01*
X132401000Y-83255641D01*
X132401000Y-83544359D01*
X132399917Y-83555355D01*
X132398499Y-83560029D01*
X132396200Y-83564330D01*
X132390971Y-83570702D01*
X132377357Y-83591076D01*
X132367980Y-83613715D01*
X132363200Y-83637749D01*
X132363200Y-83662253D01*
X132367981Y-83686286D01*
X132377358Y-83708925D01*
X132390971Y-83729298D01*
X132396200Y-83735670D01*
X132398499Y-83739971D01*
X132399917Y-83744645D01*
X132401000Y-83755641D01*
X132401000Y-84044359D01*
X132399917Y-84055355D01*
X132398499Y-84060029D01*
X132396200Y-84064331D01*
X132393104Y-84068104D01*
X132389331Y-84071200D01*
X132385029Y-84073499D01*
X132380355Y-84074917D01*
X132369359Y-84076000D01*
X131524500Y-84076000D01*
X131524500Y-84076155D01*
X131507697Y-84076156D01*
X131483664Y-84080938D01*
X131461026Y-84090317D01*
X131440652Y-84103932D01*
X131423326Y-84121261D01*
X131409714Y-84141636D01*
X131400341Y-84164267D01*
X131388444Y-84203485D01*
X131373938Y-84230623D01*
X131354414Y-84254414D01*
X131330623Y-84273938D01*
X131303485Y-84288444D01*
X131264267Y-84300341D01*
X131241628Y-84309719D01*
X131221254Y-84323332D01*
X131203927Y-84340659D01*
X131190313Y-84361034D01*
X131180935Y-84383673D01*
X131176155Y-84407706D01*
X131176154Y-84424500D01*
X131176000Y-84424500D01*
X131176000Y-85269359D01*
X131174917Y-85280355D01*
X131173499Y-85285029D01*
X131171200Y-85289331D01*
X131168104Y-85293104D01*
X131164331Y-85296200D01*
X131160029Y-85298499D01*
X131155355Y-85299917D01*
X131144359Y-85301000D01*
X130855641Y-85301000D01*
X130844645Y-85299917D01*
X130839971Y-85298499D01*
X130835670Y-85296200D01*
X130829298Y-85290971D01*
X130808924Y-85277357D01*
X130786285Y-85267980D01*
X130762251Y-85263200D01*
X130737747Y-85263200D01*
X130713714Y-85267981D01*
X130691075Y-85277358D01*
X130670702Y-85290971D01*
X130664330Y-85296200D01*
X130660029Y-85298499D01*
X130655355Y-85299917D01*
X130644359Y-85301000D01*
X130355641Y-85301000D01*
X130344645Y-85299917D01*
X130339971Y-85298499D01*
X130335670Y-85296200D01*
X130329298Y-85290971D01*
X130308924Y-85277357D01*
X130286285Y-85267980D01*
X130262251Y-85263200D01*
X130237747Y-85263200D01*
X130213714Y-85267981D01*
X130191075Y-85277358D01*
X130170702Y-85290971D01*
X130164330Y-85296200D01*
X130160029Y-85298499D01*
X130155355Y-85299917D01*
X130144359Y-85301000D01*
X129855641Y-85301000D01*
X129844645Y-85299917D01*
X129839971Y-85298499D01*
X129835670Y-85296200D01*
X129829298Y-85290971D01*
X129808924Y-85277357D01*
X129786285Y-85267980D01*
X129762251Y-85263200D01*
X129737747Y-85263200D01*
X129713714Y-85267981D01*
X129691075Y-85277358D01*
X129670702Y-85290971D01*
X129664330Y-85296200D01*
X129660029Y-85298499D01*
X129655355Y-85299917D01*
X129644359Y-85301000D01*
X129355641Y-85301000D01*
X129344645Y-85299917D01*
X129339971Y-85298499D01*
X129335670Y-85296200D01*
X129329298Y-85290971D01*
X129308924Y-85277357D01*
X129286285Y-85267980D01*
X129262251Y-85263200D01*
X129237747Y-85263200D01*
X129213714Y-85267981D01*
X129191075Y-85277358D01*
X129170702Y-85290971D01*
X129164330Y-85296200D01*
X129160029Y-85298499D01*
X129155355Y-85299917D01*
X129144359Y-85301000D01*
X128855641Y-85301000D01*
X128844645Y-85299917D01*
X128839971Y-85298499D01*
X128835669Y-85296200D01*
X128831896Y-85293104D01*
X128828800Y-85289331D01*
X128826501Y-85285029D01*
X128825083Y-85280355D01*
X128824000Y-85269359D01*
X128824000Y-84424500D01*
X128823845Y-84424500D01*
X128823844Y-84407697D01*
X128819062Y-84383664D01*
X128809683Y-84361026D01*
X128796068Y-84340652D01*
X128778739Y-84323326D01*
X128758364Y-84309714D01*
X128735733Y-84300341D01*
X128696515Y-84288444D01*
X128669377Y-84273938D01*
X128645586Y-84254414D01*
X128626062Y-84230623D01*
X128611556Y-84203485D01*
X128599659Y-84164267D01*
X128590281Y-84141628D01*
X128576668Y-84121254D01*
X128559341Y-84103927D01*
X128538966Y-84090313D01*
X128516327Y-84080935D01*
X128492294Y-84076155D01*
X128475500Y-84076154D01*
X128475500Y-84076000D01*
X127630641Y-84076000D01*
X127619645Y-84074917D01*
X127614971Y-84073499D01*
X127610669Y-84071200D01*
X127606896Y-84068104D01*
X127603800Y-84064331D01*
X127601501Y-84060029D01*
X127600083Y-84055355D01*
X127599000Y-84044359D01*
X127599000Y-83755641D01*
X127600083Y-83744645D01*
X127601501Y-83739971D01*
X127603800Y-83735670D01*
X127609029Y-83729298D01*
X127622643Y-83708924D01*
X127632020Y-83686285D01*
X127636800Y-83662251D01*
X127636800Y-83637747D01*
X127632019Y-83613714D01*
X127622642Y-83591075D01*
X127609029Y-83570702D01*
X127603800Y-83564330D01*
X127601501Y-83560029D01*
X127600083Y-83555355D01*
X127599000Y-83544359D01*
X127599000Y-83255641D01*
X127600083Y-83244645D01*
X127601501Y-83239971D01*
X127603800Y-83235670D01*
X127609029Y-83229298D01*
X127622643Y-83208924D01*
X127632020Y-83186285D01*
X127636800Y-83162251D01*
X127636800Y-83137747D01*
X127632019Y-83113714D01*
X127622642Y-83091075D01*
X127609029Y-83070702D01*
X127603800Y-83064330D01*
X127601501Y-83060029D01*
X127600083Y-83055355D01*
X127599000Y-83044359D01*
X127599000Y-82755641D01*
X127600083Y-82744645D01*
X127601501Y-82739971D01*
X127603800Y-82735670D01*
X127609029Y-82729298D01*
X127622643Y-82708924D01*
X127632020Y-82686285D01*
X127636800Y-82662251D01*
X127636800Y-82637747D01*
X127632019Y-82613714D01*
X127622642Y-82591075D01*
X127609029Y-82570702D01*
X127603800Y-82564330D01*
X127601501Y-82560029D01*
X127600083Y-82555355D01*
X127599000Y-82544359D01*
X127599000Y-82255641D01*
X127600083Y-82244645D01*
X127601501Y-82239971D01*
X127603800Y-82235670D01*
X127609029Y-82229298D01*
X127622643Y-82208924D01*
X127632020Y-82186285D01*
X127636800Y-82162251D01*
X127636800Y-82137747D01*
X127632019Y-82113714D01*
X127622642Y-82091075D01*
X127609029Y-82070702D01*
X127603800Y-82064330D01*
X127601501Y-82060029D01*
X127600083Y-82055355D01*
X127599000Y-82044359D01*
X127599000Y-81755641D01*
X127600083Y-81744645D01*
X127601501Y-81739971D01*
X127603800Y-81735669D01*
X127606896Y-81731896D01*
X127610669Y-81728800D01*
X127614971Y-81726501D01*
X127619645Y-81725083D01*
X127630641Y-81724000D01*
X128475500Y-81724000D01*
X128475500Y-81723845D01*
X128492303Y-81723844D01*
X128516336Y-81719062D01*
X128538974Y-81709683D01*
X128559348Y-81696068D01*
X128576674Y-81678739D01*
X128590286Y-81658364D01*
X128599659Y-81635733D01*
X128611556Y-81596515D01*
X128626062Y-81569377D01*
X128645586Y-81545586D01*
X128669377Y-81526062D01*
X128696515Y-81511556D01*
X128735733Y-81499659D01*
X128758372Y-81490281D01*
X128778746Y-81476668D01*
X128796073Y-81459341D01*
X128809687Y-81438966D01*
X128819065Y-81416327D01*
X128823845Y-81392294D01*
X128823846Y-81375500D01*
X128824000Y-81375500D01*
X128824000Y-80530641D01*
X128825083Y-80519645D01*
X128826501Y-80514971D01*
X128828800Y-80510669D01*
X128831896Y-80506896D01*
X128835669Y-80503800D01*
X128839971Y-80501501D01*
X128844645Y-80500083D01*
X128855641Y-80499000D01*
X129144359Y-80499000D01*
X129155355Y-80500083D01*
X129155355Y-80500083D01*
G37*
G36*
X120464499Y-83978445D02*
G01*
X120501995Y-83989820D01*
X120536554Y-84008292D01*
X120566847Y-84033153D01*
X120591708Y-84063446D01*
X120610180Y-84098005D01*
X120621555Y-84135501D01*
X120626000Y-84180638D01*
X120626000Y-84919362D01*
X120621555Y-84964499D01*
X120610180Y-85001995D01*
X120591708Y-85036554D01*
X120566847Y-85066847D01*
X120536554Y-85091708D01*
X120501995Y-85110180D01*
X120464499Y-85121555D01*
X120419362Y-85126000D01*
X119780638Y-85126000D01*
X119735501Y-85121555D01*
X119698005Y-85110180D01*
X119663446Y-85091708D01*
X119633153Y-85066847D01*
X119608292Y-85036554D01*
X119589820Y-85001995D01*
X119578445Y-84964499D01*
X119574000Y-84919362D01*
X119574000Y-84180638D01*
X119578445Y-84135501D01*
X119589820Y-84098005D01*
X119608292Y-84063446D01*
X119633153Y-84033153D01*
X119663446Y-84008292D01*
X119698005Y-83989820D01*
X119735501Y-83978445D01*
X119780638Y-83974000D01*
X120419362Y-83974000D01*
X120464499Y-83978445D01*
X120464499Y-83978445D01*
G37*
G36*
X160673000Y-84529000D02*
G01*
X155171000Y-84529000D01*
X155171000Y-81527000D01*
X160673000Y-81527000D01*
X160673000Y-84529000D01*
X160673000Y-84529000D01*
G37*
G36*
X139301000Y-84101000D02*
G01*
X137699000Y-84101000D01*
X137699000Y-82499000D01*
X139301000Y-82499000D01*
X139301000Y-84101000D01*
X139301000Y-84101000D01*
G37*
G36*
X125764499Y-82828445D02*
G01*
X125801995Y-82839820D01*
X125836554Y-82858292D01*
X125866847Y-82883153D01*
X125891708Y-82913446D01*
X125910180Y-82948005D01*
X125921555Y-82985501D01*
X125926000Y-83030638D01*
X125926000Y-83769362D01*
X125921555Y-83814499D01*
X125910180Y-83851995D01*
X125891708Y-83886554D01*
X125866847Y-83916847D01*
X125836554Y-83941708D01*
X125801995Y-83960180D01*
X125764499Y-83971555D01*
X125719362Y-83976000D01*
X125080638Y-83976000D01*
X125035501Y-83971555D01*
X124998005Y-83960180D01*
X124963446Y-83941708D01*
X124933153Y-83916847D01*
X124908292Y-83886554D01*
X124889820Y-83851995D01*
X124878445Y-83814499D01*
X124874000Y-83769362D01*
X124874000Y-83030638D01*
X124878445Y-82985501D01*
X124889820Y-82948005D01*
X124908292Y-82913446D01*
X124933153Y-82883153D01*
X124963446Y-82858292D01*
X124998005Y-82839820D01*
X125035501Y-82828445D01*
X125080638Y-82824000D01*
X125719362Y-82824000D01*
X125764499Y-82828445D01*
X125764499Y-82828445D01*
G37*
G36*
X123764499Y-82778445D02*
G01*
X123801995Y-82789820D01*
X123836554Y-82808292D01*
X123866847Y-82833153D01*
X123891708Y-82863446D01*
X123910180Y-82898005D01*
X123921555Y-82935501D01*
X123926000Y-82980638D01*
X123926000Y-83719362D01*
X123921555Y-83764499D01*
X123910180Y-83801995D01*
X123891708Y-83836554D01*
X123866847Y-83866847D01*
X123836554Y-83891708D01*
X123801995Y-83910180D01*
X123764499Y-83921555D01*
X123719362Y-83926000D01*
X123080638Y-83926000D01*
X123035501Y-83921555D01*
X122998005Y-83910180D01*
X122963446Y-83891708D01*
X122933153Y-83866847D01*
X122908292Y-83836554D01*
X122889820Y-83801995D01*
X122878445Y-83764499D01*
X122874000Y-83719362D01*
X122874000Y-82980638D01*
X122878445Y-82935501D01*
X122889820Y-82898005D01*
X122908292Y-82863446D01*
X122933153Y-82833153D01*
X122963446Y-82808292D01*
X122998005Y-82789820D01*
X123035501Y-82778445D01*
X123080638Y-82774000D01*
X123719362Y-82774000D01*
X123764499Y-82778445D01*
X123764499Y-82778445D01*
G37*
G36*
X118301000Y-83901000D02*
G01*
X116699000Y-83901000D01*
X116699000Y-82299000D01*
X118301000Y-82299000D01*
X118301000Y-83901000D01*
X118301000Y-83901000D01*
G37*
G36*
X122064499Y-82753445D02*
G01*
X122101995Y-82764820D01*
X122136554Y-82783292D01*
X122166847Y-82808153D01*
X122191708Y-82838446D01*
X122210180Y-82873005D01*
X122221555Y-82910501D01*
X122226000Y-82955638D01*
X122226000Y-83694362D01*
X122221555Y-83739499D01*
X122210180Y-83776995D01*
X122191708Y-83811554D01*
X122166847Y-83841847D01*
X122136554Y-83866708D01*
X122101995Y-83885180D01*
X122064499Y-83896555D01*
X122019362Y-83901000D01*
X121380638Y-83901000D01*
X121335501Y-83896555D01*
X121298005Y-83885180D01*
X121263446Y-83866708D01*
X121233153Y-83841847D01*
X121208292Y-83811554D01*
X121189820Y-83776995D01*
X121178445Y-83739499D01*
X121174000Y-83694362D01*
X121174000Y-82955638D01*
X121178445Y-82910501D01*
X121189820Y-82873005D01*
X121208292Y-82838446D01*
X121233153Y-82808153D01*
X121263446Y-82783292D01*
X121298005Y-82764820D01*
X121335501Y-82753445D01*
X121380638Y-82749000D01*
X122019362Y-82749000D01*
X122064499Y-82753445D01*
X122064499Y-82753445D01*
G37*
G36*
X120464499Y-82003445D02*
G01*
X120501995Y-82014820D01*
X120536554Y-82033292D01*
X120566847Y-82058153D01*
X120591708Y-82088446D01*
X120610180Y-82123005D01*
X120621555Y-82160501D01*
X120626000Y-82205638D01*
X120626000Y-82944362D01*
X120621555Y-82989499D01*
X120610180Y-83026995D01*
X120591708Y-83061554D01*
X120566847Y-83091847D01*
X120536554Y-83116708D01*
X120501995Y-83135180D01*
X120464499Y-83146555D01*
X120419362Y-83151000D01*
X119780638Y-83151000D01*
X119735501Y-83146555D01*
X119698005Y-83135180D01*
X119663446Y-83116708D01*
X119633153Y-83091847D01*
X119608292Y-83061554D01*
X119589820Y-83026995D01*
X119578445Y-82989499D01*
X119574000Y-82944362D01*
X119574000Y-82205638D01*
X119578445Y-82160501D01*
X119589820Y-82123005D01*
X119608292Y-82088446D01*
X119633153Y-82058153D01*
X119663446Y-82033292D01*
X119698005Y-82014820D01*
X119735501Y-82003445D01*
X119780638Y-81999000D01*
X120419362Y-81999000D01*
X120464499Y-82003445D01*
X120464499Y-82003445D01*
G37*
G36*
X125764499Y-80728445D02*
G01*
X125801995Y-80739820D01*
X125836554Y-80758292D01*
X125866847Y-80783153D01*
X125891708Y-80813446D01*
X125910180Y-80848005D01*
X125921555Y-80885501D01*
X125926000Y-80930638D01*
X125926000Y-81669362D01*
X125921555Y-81714499D01*
X125910180Y-81751995D01*
X125891708Y-81786554D01*
X125866847Y-81816847D01*
X125836554Y-81841708D01*
X125801995Y-81860180D01*
X125764499Y-81871555D01*
X125719362Y-81876000D01*
X125080638Y-81876000D01*
X125035501Y-81871555D01*
X124998005Y-81860180D01*
X124963446Y-81841708D01*
X124933153Y-81816847D01*
X124908292Y-81786554D01*
X124889820Y-81751995D01*
X124878445Y-81714499D01*
X124874000Y-81669362D01*
X124874000Y-80930638D01*
X124878445Y-80885501D01*
X124889820Y-80848005D01*
X124908292Y-80813446D01*
X124933153Y-80783153D01*
X124963446Y-80758292D01*
X124998005Y-80739820D01*
X125035501Y-80728445D01*
X125080638Y-80724000D01*
X125719362Y-80724000D01*
X125764499Y-80728445D01*
X125764499Y-80728445D01*
G37*
G36*
X124164499Y-80703445D02*
G01*
X124201995Y-80714820D01*
X124236554Y-80733292D01*
X124266847Y-80758153D01*
X124291708Y-80788446D01*
X124310180Y-80823005D01*
X124321555Y-80860501D01*
X124326000Y-80905638D01*
X124326000Y-81644362D01*
X124321555Y-81689499D01*
X124310180Y-81726995D01*
X124291708Y-81761554D01*
X124266847Y-81791847D01*
X124236554Y-81816708D01*
X124201995Y-81835180D01*
X124164499Y-81846555D01*
X124119362Y-81851000D01*
X123480638Y-81851000D01*
X123435501Y-81846555D01*
X123398005Y-81835180D01*
X123363446Y-81816708D01*
X123333153Y-81791847D01*
X123308292Y-81761554D01*
X123289820Y-81726995D01*
X123278445Y-81689499D01*
X123274000Y-81644362D01*
X123274000Y-80905638D01*
X123278445Y-80860501D01*
X123289820Y-80823005D01*
X123308292Y-80788446D01*
X123333153Y-80758153D01*
X123363446Y-80733292D01*
X123398005Y-80714820D01*
X123435501Y-80703445D01*
X123480638Y-80699000D01*
X124119362Y-80699000D01*
X124164499Y-80703445D01*
X124164499Y-80703445D01*
G37*
G36*
X120464499Y-80253445D02*
G01*
X120501995Y-80264820D01*
X120536554Y-80283292D01*
X120566847Y-80308153D01*
X120591708Y-80338446D01*
X120610180Y-80373005D01*
X120621555Y-80410501D01*
X120626000Y-80455638D01*
X120626000Y-81194362D01*
X120621555Y-81239499D01*
X120610180Y-81276995D01*
X120591708Y-81311554D01*
X120566847Y-81341847D01*
X120536554Y-81366708D01*
X120501995Y-81385180D01*
X120464499Y-81396555D01*
X120419362Y-81401000D01*
X119780638Y-81401000D01*
X119735501Y-81396555D01*
X119698005Y-81385180D01*
X119663446Y-81366708D01*
X119633153Y-81341847D01*
X119608292Y-81311554D01*
X119589820Y-81276995D01*
X119578445Y-81239499D01*
X119574000Y-81194362D01*
X119574000Y-80455638D01*
X119578445Y-80410501D01*
X119589820Y-80373005D01*
X119608292Y-80338446D01*
X119633153Y-80308153D01*
X119663446Y-80283292D01*
X119698005Y-80264820D01*
X119735501Y-80253445D01*
X119780638Y-80249000D01*
X120419362Y-80249000D01*
X120464499Y-80253445D01*
X120464499Y-80253445D01*
G37*
G36*
X125764499Y-78978445D02*
G01*
X125801995Y-78989820D01*
X125836554Y-79008292D01*
X125866847Y-79033153D01*
X125891708Y-79063446D01*
X125910180Y-79098005D01*
X125921555Y-79135501D01*
X125926000Y-79180638D01*
X125926000Y-79919362D01*
X125921555Y-79964499D01*
X125910180Y-80001995D01*
X125891708Y-80036554D01*
X125866847Y-80066847D01*
X125836554Y-80091708D01*
X125801995Y-80110180D01*
X125764499Y-80121555D01*
X125719362Y-80126000D01*
X125080638Y-80126000D01*
X125035501Y-80121555D01*
X124998005Y-80110180D01*
X124963446Y-80091708D01*
X124933153Y-80066847D01*
X124908292Y-80036554D01*
X124889820Y-80001995D01*
X124878445Y-79964499D01*
X124874000Y-79919362D01*
X124874000Y-79180638D01*
X124878445Y-79135501D01*
X124889820Y-79098005D01*
X124908292Y-79063446D01*
X124933153Y-79033153D01*
X124963446Y-79008292D01*
X124998005Y-78989820D01*
X125035501Y-78978445D01*
X125080638Y-78974000D01*
X125719362Y-78974000D01*
X125764499Y-78978445D01*
X125764499Y-78978445D01*
G37*
G36*
X124164499Y-78953445D02*
G01*
X124201995Y-78964820D01*
X124236554Y-78983292D01*
X124266847Y-79008153D01*
X124291708Y-79038446D01*
X124310180Y-79073005D01*
X124321555Y-79110501D01*
X124326000Y-79155638D01*
X124326000Y-79894362D01*
X124321555Y-79939499D01*
X124310180Y-79976995D01*
X124291708Y-80011554D01*
X124266847Y-80041847D01*
X124236554Y-80066708D01*
X124201995Y-80085180D01*
X124164499Y-80096555D01*
X124119362Y-80101000D01*
X123480638Y-80101000D01*
X123435501Y-80096555D01*
X123398005Y-80085180D01*
X123363446Y-80066708D01*
X123333153Y-80041847D01*
X123308292Y-80011554D01*
X123289820Y-79976995D01*
X123278445Y-79939499D01*
X123274000Y-79894362D01*
X123274000Y-79155638D01*
X123278445Y-79110501D01*
X123289820Y-79073005D01*
X123308292Y-79038446D01*
X123333153Y-79008153D01*
X123363446Y-78983292D01*
X123398005Y-78964820D01*
X123435501Y-78953445D01*
X123480638Y-78949000D01*
X124119362Y-78949000D01*
X124164499Y-78953445D01*
X124164499Y-78953445D01*
G37*
G36*
X131139499Y-78478445D02*
G01*
X131176995Y-78489820D01*
X131211554Y-78508292D01*
X131241847Y-78533153D01*
X131266708Y-78563446D01*
X131285180Y-78598005D01*
X131296555Y-78635501D01*
X131301000Y-78680638D01*
X131301000Y-79319362D01*
X131296555Y-79364499D01*
X131285180Y-79401995D01*
X131266708Y-79436554D01*
X131241847Y-79466847D01*
X131211554Y-79491708D01*
X131176995Y-79510180D01*
X131139499Y-79521555D01*
X131094362Y-79526000D01*
X130355638Y-79526000D01*
X130310501Y-79521555D01*
X130273005Y-79510180D01*
X130238446Y-79491708D01*
X130208153Y-79466847D01*
X130183292Y-79436554D01*
X130164820Y-79401995D01*
X130153445Y-79364499D01*
X130149000Y-79319362D01*
X130149000Y-78680638D01*
X130153445Y-78635501D01*
X130164820Y-78598005D01*
X130183292Y-78563446D01*
X130208153Y-78533153D01*
X130238446Y-78508292D01*
X130273005Y-78489820D01*
X130310501Y-78478445D01*
X130355638Y-78474000D01*
X131094362Y-78474000D01*
X131139499Y-78478445D01*
X131139499Y-78478445D01*
G37*
G36*
X132889499Y-78478445D02*
G01*
X132926995Y-78489820D01*
X132961554Y-78508292D01*
X132991847Y-78533153D01*
X133016708Y-78563446D01*
X133035180Y-78598005D01*
X133046555Y-78635501D01*
X133051000Y-78680638D01*
X133051000Y-79319362D01*
X133046555Y-79364499D01*
X133035180Y-79401995D01*
X133016708Y-79436554D01*
X132991847Y-79466847D01*
X132961554Y-79491708D01*
X132926995Y-79510180D01*
X132889499Y-79521555D01*
X132844362Y-79526000D01*
X132105638Y-79526000D01*
X132060501Y-79521555D01*
X132023005Y-79510180D01*
X131988446Y-79491708D01*
X131958153Y-79466847D01*
X131933292Y-79436554D01*
X131914820Y-79401995D01*
X131903445Y-79364499D01*
X131899000Y-79319362D01*
X131899000Y-78680638D01*
X131903445Y-78635501D01*
X131914820Y-78598005D01*
X131933292Y-78563446D01*
X131958153Y-78533153D01*
X131988446Y-78508292D01*
X132023005Y-78489820D01*
X132060501Y-78478445D01*
X132105638Y-78474000D01*
X132844362Y-78474000D01*
X132889499Y-78478445D01*
X132889499Y-78478445D01*
G37*
G36*
X127439499Y-77378445D02*
G01*
X127476995Y-77389820D01*
X127511554Y-77408292D01*
X127541847Y-77433153D01*
X127566708Y-77463446D01*
X127585180Y-77498005D01*
X127596555Y-77535501D01*
X127601000Y-77580638D01*
X127601000Y-78219362D01*
X127596555Y-78264499D01*
X127585180Y-78301995D01*
X127566708Y-78336554D01*
X127541847Y-78366847D01*
X127511554Y-78391708D01*
X127476995Y-78410180D01*
X127439499Y-78421555D01*
X127394362Y-78426000D01*
X126655638Y-78426000D01*
X126610501Y-78421555D01*
X126573005Y-78410180D01*
X126538446Y-78391708D01*
X126508153Y-78366847D01*
X126483292Y-78336554D01*
X126464820Y-78301995D01*
X126453445Y-78264499D01*
X126449000Y-78219362D01*
X126449000Y-77580638D01*
X126453445Y-77535501D01*
X126464820Y-77498005D01*
X126483292Y-77463446D01*
X126508153Y-77433153D01*
X126538446Y-77408292D01*
X126573005Y-77389820D01*
X126610501Y-77378445D01*
X126655638Y-77374000D01*
X127394362Y-77374000D01*
X127439499Y-77378445D01*
X127439499Y-77378445D01*
G37*
G36*
X129189499Y-77378445D02*
G01*
X129226995Y-77389820D01*
X129261554Y-77408292D01*
X129291847Y-77433153D01*
X129316708Y-77463446D01*
X129335180Y-77498005D01*
X129346555Y-77535501D01*
X129351000Y-77580638D01*
X129351000Y-78219362D01*
X129346555Y-78264499D01*
X129335180Y-78301995D01*
X129316708Y-78336554D01*
X129291847Y-78366847D01*
X129261554Y-78391708D01*
X129226995Y-78410180D01*
X129189499Y-78421555D01*
X129144362Y-78426000D01*
X128405638Y-78426000D01*
X128360501Y-78421555D01*
X128323005Y-78410180D01*
X128288446Y-78391708D01*
X128258153Y-78366847D01*
X128233292Y-78336554D01*
X128214820Y-78301995D01*
X128203445Y-78264499D01*
X128199000Y-78219362D01*
X128199000Y-77580638D01*
X128203445Y-77535501D01*
X128214820Y-77498005D01*
X128233292Y-77463446D01*
X128258153Y-77433153D01*
X128288446Y-77408292D01*
X128323005Y-77389820D01*
X128360501Y-77378445D01*
X128405638Y-77374000D01*
X129144362Y-77374000D01*
X129189499Y-77378445D01*
X129189499Y-77378445D01*
G37*
G36*
X131139499Y-76478445D02*
G01*
X131176995Y-76489820D01*
X131211554Y-76508292D01*
X131241847Y-76533153D01*
X131266708Y-76563446D01*
X131285180Y-76598005D01*
X131296555Y-76635501D01*
X131301000Y-76680638D01*
X131301000Y-77319362D01*
X131296555Y-77364499D01*
X131285180Y-77401995D01*
X131266708Y-77436554D01*
X131241847Y-77466847D01*
X131211554Y-77491708D01*
X131176995Y-77510180D01*
X131139499Y-77521555D01*
X131094362Y-77526000D01*
X130355638Y-77526000D01*
X130310501Y-77521555D01*
X130273005Y-77510180D01*
X130238446Y-77491708D01*
X130208153Y-77466847D01*
X130183292Y-77436554D01*
X130164820Y-77401995D01*
X130153445Y-77364499D01*
X130149000Y-77319362D01*
X130149000Y-76680638D01*
X130153445Y-76635501D01*
X130164820Y-76598005D01*
X130183292Y-76563446D01*
X130208153Y-76533153D01*
X130238446Y-76508292D01*
X130273005Y-76489820D01*
X130310501Y-76478445D01*
X130355638Y-76474000D01*
X131094362Y-76474000D01*
X131139499Y-76478445D01*
X131139499Y-76478445D01*
G37*
G36*
X132889499Y-76478445D02*
G01*
X132926995Y-76489820D01*
X132961554Y-76508292D01*
X132991847Y-76533153D01*
X133016708Y-76563446D01*
X133035180Y-76598005D01*
X133046555Y-76635501D01*
X133051000Y-76680638D01*
X133051000Y-77319362D01*
X133046555Y-77364499D01*
X133035180Y-77401995D01*
X133016708Y-77436554D01*
X132991847Y-77466847D01*
X132961554Y-77491708D01*
X132926995Y-77510180D01*
X132889499Y-77521555D01*
X132844362Y-77526000D01*
X132105638Y-77526000D01*
X132060501Y-77521555D01*
X132023005Y-77510180D01*
X131988446Y-77491708D01*
X131958153Y-77466847D01*
X131933292Y-77436554D01*
X131914820Y-77401995D01*
X131903445Y-77364499D01*
X131899000Y-77319362D01*
X131899000Y-76680638D01*
X131903445Y-76635501D01*
X131914820Y-76598005D01*
X131933292Y-76563446D01*
X131958153Y-76533153D01*
X131988446Y-76508292D01*
X132023005Y-76489820D01*
X132060501Y-76478445D01*
X132105638Y-76474000D01*
X132844362Y-76474000D01*
X132889499Y-76478445D01*
X132889499Y-76478445D01*
G37*
G36*
X175832395Y-74430546D02*
G01*
X176005466Y-74502234D01*
X176005467Y-74502235D01*
X176161227Y-74606310D01*
X176293690Y-74738773D01*
X176293691Y-74738775D01*
X176397766Y-74894534D01*
X176469454Y-75067605D01*
X176506000Y-75251333D01*
X176506000Y-75438667D01*
X176469454Y-75622395D01*
X176397766Y-75795466D01*
X176397765Y-75795467D01*
X176293690Y-75951227D01*
X176161227Y-76083690D01*
X176082818Y-76136081D01*
X176005466Y-76187766D01*
X175832395Y-76259454D01*
X175648667Y-76296000D01*
X175461333Y-76296000D01*
X175277605Y-76259454D01*
X175104534Y-76187766D01*
X175027182Y-76136081D01*
X174948773Y-76083690D01*
X174816310Y-75951227D01*
X174712235Y-75795467D01*
X174712234Y-75795466D01*
X174640546Y-75622395D01*
X174604000Y-75438667D01*
X174604000Y-75251333D01*
X174640546Y-75067605D01*
X174712234Y-74894534D01*
X174816309Y-74738775D01*
X174816310Y-74738773D01*
X174948773Y-74606310D01*
X175104533Y-74502235D01*
X175104534Y-74502234D01*
X175277605Y-74430546D01*
X175461333Y-74394000D01*
X175648667Y-74394000D01*
X175832395Y-74430546D01*
X175832395Y-74430546D01*
G37*
G36*
X125901000Y-75701000D02*
G01*
X124299000Y-75701000D01*
X124299000Y-74099000D01*
X125901000Y-74099000D01*
X125901000Y-75701000D01*
X125901000Y-75701000D01*
G37*
G36*
X138351000Y-75351000D02*
G01*
X137449000Y-75351000D01*
X137449000Y-74349000D01*
X138351000Y-74349000D01*
X138351000Y-75351000D01*
X138351000Y-75351000D01*
G37*
G36*
X160673000Y-74629000D02*
G01*
X155171000Y-74629000D01*
X155171000Y-71627000D01*
X160673000Y-71627000D01*
X160673000Y-74629000D01*
X160673000Y-74629000D01*
G37*
G36*
X172445866Y-70710527D02*
G01*
X172629501Y-70747054D01*
X172856028Y-70840885D01*
X172965800Y-70886354D01*
X172975461Y-70890356D01*
X173286817Y-71098397D01*
X173551603Y-71363183D01*
X173749338Y-71659115D01*
X173759645Y-71674541D01*
X173787466Y-71741708D01*
X173902946Y-72020499D01*
X173918363Y-72098005D01*
X173969095Y-72353051D01*
X173976000Y-72387768D01*
X173976000Y-72762232D01*
X173902946Y-73129501D01*
X173759644Y-73475461D01*
X173551603Y-73786817D01*
X173286817Y-74051603D01*
X172975461Y-74259644D01*
X172629501Y-74402946D01*
X172490746Y-74430546D01*
X172262233Y-74476000D01*
X171887767Y-74476000D01*
X171659254Y-74430546D01*
X171520499Y-74402946D01*
X171174539Y-74259644D01*
X170863183Y-74051603D01*
X170598397Y-73786817D01*
X170390356Y-73475461D01*
X170247054Y-73129501D01*
X170174000Y-72762232D01*
X170174000Y-72387768D01*
X170180906Y-72353051D01*
X170231637Y-72098005D01*
X170247054Y-72020499D01*
X170362534Y-71741708D01*
X170390355Y-71674541D01*
X170400662Y-71659115D01*
X170598397Y-71363183D01*
X170863183Y-71098397D01*
X171174539Y-70890356D01*
X171184201Y-70886354D01*
X171293972Y-70840885D01*
X171520499Y-70747054D01*
X171704134Y-70710527D01*
X171887767Y-70674000D01*
X172262233Y-70674000D01*
X172445866Y-70710527D01*
X172445866Y-70710527D01*
G37*
G36*
X134405997Y-72353051D02*
G01*
X134439652Y-72363261D01*
X134470665Y-72379838D01*
X134497851Y-72402149D01*
X134520162Y-72429335D01*
X134536739Y-72460348D01*
X134546949Y-72494003D01*
X134551000Y-72535138D01*
X134551000Y-73864862D01*
X134546949Y-73905997D01*
X134536739Y-73939652D01*
X134520162Y-73970665D01*
X134497851Y-73997851D01*
X134470665Y-74020162D01*
X134439652Y-74036739D01*
X134405997Y-74046949D01*
X134364862Y-74051000D01*
X132035138Y-74051000D01*
X131994003Y-74046949D01*
X131960348Y-74036739D01*
X131929335Y-74020162D01*
X131902149Y-73997851D01*
X131879838Y-73970665D01*
X131863261Y-73939652D01*
X131853051Y-73905997D01*
X131849000Y-73864862D01*
X131849000Y-72535138D01*
X131853051Y-72494003D01*
X131863261Y-72460348D01*
X131879838Y-72429335D01*
X131902149Y-72402149D01*
X131929335Y-72379838D01*
X131960348Y-72363261D01*
X131994003Y-72353051D01*
X132035138Y-72349000D01*
X134364862Y-72349000D01*
X134405997Y-72353051D01*
X134405997Y-72353051D01*
G37*
G36*
X130805997Y-72353051D02*
G01*
X130839652Y-72363261D01*
X130870665Y-72379838D01*
X130897851Y-72402149D01*
X130920162Y-72429335D01*
X130936739Y-72460348D01*
X130946949Y-72494003D01*
X130951000Y-72535138D01*
X130951000Y-73864862D01*
X130946949Y-73905997D01*
X130936739Y-73939652D01*
X130920162Y-73970665D01*
X130897851Y-73997851D01*
X130870665Y-74020162D01*
X130839652Y-74036739D01*
X130805997Y-74046949D01*
X130764862Y-74051000D01*
X128435138Y-74051000D01*
X128394003Y-74046949D01*
X128360348Y-74036739D01*
X128329335Y-74020162D01*
X128302149Y-73997851D01*
X128279838Y-73970665D01*
X128263261Y-73939652D01*
X128253051Y-73905997D01*
X128249000Y-73864862D01*
X128249000Y-72535138D01*
X128253051Y-72494003D01*
X128263261Y-72460348D01*
X128279838Y-72429335D01*
X128302149Y-72402149D01*
X128329335Y-72379838D01*
X128360348Y-72363261D01*
X128394003Y-72353051D01*
X128435138Y-72349000D01*
X130764862Y-72349000D01*
X130805997Y-72353051D01*
X130805997Y-72353051D01*
G37*
G36*
X137401000Y-73351000D02*
G01*
X136499000Y-73351000D01*
X136499000Y-72349000D01*
X137401000Y-72349000D01*
X137401000Y-73351000D01*
X137401000Y-73351000D01*
G37*
G36*
X139301000Y-73351000D02*
G01*
X138399000Y-73351000D01*
X138399000Y-72349000D01*
X139301000Y-72349000D01*
X139301000Y-73351000D01*
X139301000Y-73351000D01*
G37*
G36*
X145514499Y-71978445D02*
G01*
X145551995Y-71989820D01*
X145586554Y-72008292D01*
X145616847Y-72033153D01*
X145641708Y-72063446D01*
X145660180Y-72098005D01*
X145671555Y-72135501D01*
X145676000Y-72180638D01*
X145676000Y-72819362D01*
X145671555Y-72864499D01*
X145660180Y-72901995D01*
X145641708Y-72936554D01*
X145616847Y-72966847D01*
X145586554Y-72991708D01*
X145551995Y-73010180D01*
X145514499Y-73021555D01*
X145469362Y-73026000D01*
X144730638Y-73026000D01*
X144685501Y-73021555D01*
X144648005Y-73010180D01*
X144613446Y-72991708D01*
X144583153Y-72966847D01*
X144558292Y-72936554D01*
X144539820Y-72901995D01*
X144528445Y-72864499D01*
X144524000Y-72819362D01*
X144524000Y-72180638D01*
X144528445Y-72135501D01*
X144539820Y-72098005D01*
X144558292Y-72063446D01*
X144583153Y-72033153D01*
X144613446Y-72008292D01*
X144648005Y-71989820D01*
X144685501Y-71978445D01*
X144730638Y-71974000D01*
X145469362Y-71974000D01*
X145514499Y-71978445D01*
X145514499Y-71978445D01*
G37*
G36*
X143764499Y-71978445D02*
G01*
X143801995Y-71989820D01*
X143836554Y-72008292D01*
X143866847Y-72033153D01*
X143891708Y-72063446D01*
X143910180Y-72098005D01*
X143921555Y-72135501D01*
X143926000Y-72180638D01*
X143926000Y-72819362D01*
X143921555Y-72864499D01*
X143910180Y-72901995D01*
X143891708Y-72936554D01*
X143866847Y-72966847D01*
X143836554Y-72991708D01*
X143801995Y-73010180D01*
X143764499Y-73021555D01*
X143719362Y-73026000D01*
X142980638Y-73026000D01*
X142935501Y-73021555D01*
X142898005Y-73010180D01*
X142863446Y-72991708D01*
X142833153Y-72966847D01*
X142808292Y-72936554D01*
X142789820Y-72901995D01*
X142778445Y-72864499D01*
X142774000Y-72819362D01*
X142774000Y-72180638D01*
X142778445Y-72135501D01*
X142789820Y-72098005D01*
X142808292Y-72063446D01*
X142833153Y-72033153D01*
X142863446Y-72008292D01*
X142898005Y-71989820D01*
X142935501Y-71978445D01*
X142980638Y-71974000D01*
X143719362Y-71974000D01*
X143764499Y-71978445D01*
X143764499Y-71978445D01*
G37*
G36*
X120087760Y-68173343D02*
G01*
X120211793Y-68198015D01*
X120562303Y-68343201D01*
X120728125Y-68454000D01*
X120877753Y-68553978D01*
X121146022Y-68822247D01*
X121356800Y-69137699D01*
X121501985Y-69488208D01*
X121555253Y-69756000D01*
X121576000Y-69860306D01*
X121576000Y-70239694D01*
X121501985Y-70611793D01*
X121356799Y-70962303D01*
X121146022Y-71277753D01*
X120877753Y-71546022D01*
X120562303Y-71756799D01*
X120211793Y-71901985D01*
X120087760Y-71926657D01*
X119839696Y-71976000D01*
X119460304Y-71976000D01*
X119212240Y-71926657D01*
X119088207Y-71901985D01*
X118737697Y-71756799D01*
X118422247Y-71546022D01*
X118153978Y-71277753D01*
X117943201Y-70962303D01*
X117798015Y-70611793D01*
X117724000Y-70239694D01*
X117724000Y-69860306D01*
X117744748Y-69756000D01*
X117798015Y-69488208D01*
X117943200Y-69137699D01*
X118153978Y-68822247D01*
X118422247Y-68553978D01*
X118571875Y-68454000D01*
X118737697Y-68343201D01*
X119088207Y-68198015D01*
X119212240Y-68173343D01*
X119460304Y-68124000D01*
X119839696Y-68124000D01*
X120087760Y-68173343D01*
X120087760Y-68173343D01*
G37*
G36*
X114387760Y-68173343D02*
G01*
X114511793Y-68198015D01*
X114862303Y-68343201D01*
X115028125Y-68454000D01*
X115177753Y-68553978D01*
X115446022Y-68822247D01*
X115656800Y-69137699D01*
X115801985Y-69488208D01*
X115855253Y-69756000D01*
X115876000Y-69860306D01*
X115876000Y-70239694D01*
X115801985Y-70611793D01*
X115656799Y-70962303D01*
X115446022Y-71277753D01*
X115177753Y-71546022D01*
X114862303Y-71756799D01*
X114511793Y-71901985D01*
X114387760Y-71926657D01*
X114139696Y-71976000D01*
X113760304Y-71976000D01*
X113512240Y-71926657D01*
X113388207Y-71901985D01*
X113037697Y-71756799D01*
X112722247Y-71546022D01*
X112453978Y-71277753D01*
X112243201Y-70962303D01*
X112098015Y-70611793D01*
X112024000Y-70239694D01*
X112024000Y-69860306D01*
X112044748Y-69756000D01*
X112098015Y-69488208D01*
X112243200Y-69137699D01*
X112453978Y-68822247D01*
X112722247Y-68553978D01*
X112871875Y-68454000D01*
X113037697Y-68343201D01*
X113388207Y-68198015D01*
X113512240Y-68173343D01*
X113760304Y-68124000D01*
X114139696Y-68124000D01*
X114387760Y-68173343D01*
X114387760Y-68173343D01*
G37*
G36*
X139239499Y-70728445D02*
G01*
X139276995Y-70739820D01*
X139311554Y-70758292D01*
X139341847Y-70783153D01*
X139366708Y-70813446D01*
X139385180Y-70848005D01*
X139396555Y-70885501D01*
X139401000Y-70930638D01*
X139401000Y-71569362D01*
X139396555Y-71614499D01*
X139385180Y-71651995D01*
X139366708Y-71686554D01*
X139341847Y-71716847D01*
X139311554Y-71741708D01*
X139276995Y-71760180D01*
X139239499Y-71771555D01*
X139194362Y-71776000D01*
X138455638Y-71776000D01*
X138410501Y-71771555D01*
X138373005Y-71760180D01*
X138338446Y-71741708D01*
X138308153Y-71716847D01*
X138283292Y-71686554D01*
X138264820Y-71651995D01*
X138253445Y-71614499D01*
X138249000Y-71569362D01*
X138249000Y-70930638D01*
X138253445Y-70885501D01*
X138264820Y-70848005D01*
X138283292Y-70813446D01*
X138308153Y-70783153D01*
X138338446Y-70758292D01*
X138373005Y-70739820D01*
X138410501Y-70728445D01*
X138455638Y-70724000D01*
X139194362Y-70724000D01*
X139239499Y-70728445D01*
X139239499Y-70728445D01*
G37*
G36*
X137489499Y-70728445D02*
G01*
X137526995Y-70739820D01*
X137561554Y-70758292D01*
X137591847Y-70783153D01*
X137616708Y-70813446D01*
X137635180Y-70848005D01*
X137646555Y-70885501D01*
X137651000Y-70930638D01*
X137651000Y-71569362D01*
X137646555Y-71614499D01*
X137635180Y-71651995D01*
X137616708Y-71686554D01*
X137591847Y-71716847D01*
X137561554Y-71741708D01*
X137526995Y-71760180D01*
X137489499Y-71771555D01*
X137444362Y-71776000D01*
X136705638Y-71776000D01*
X136660501Y-71771555D01*
X136623005Y-71760180D01*
X136588446Y-71741708D01*
X136558153Y-71716847D01*
X136533292Y-71686554D01*
X136514820Y-71651995D01*
X136503445Y-71614499D01*
X136499000Y-71569362D01*
X136499000Y-70930638D01*
X136503445Y-70885501D01*
X136514820Y-70848005D01*
X136533292Y-70813446D01*
X136558153Y-70783153D01*
X136588446Y-70758292D01*
X136623005Y-70739820D01*
X136660501Y-70728445D01*
X136705638Y-70724000D01*
X137444362Y-70724000D01*
X137489499Y-70728445D01*
X137489499Y-70728445D01*
G37*
G36*
X160476000Y-69776000D02*
G01*
X153974000Y-69776000D01*
X153974000Y-63874000D01*
X160476000Y-63874000D01*
X160476000Y-69776000D01*
X160476000Y-69776000D01*
G37*
G36*
X164676000Y-69756000D02*
G01*
X162374000Y-69756000D01*
X162374000Y-68454000D01*
X164676000Y-68454000D01*
X164676000Y-69756000D01*
X164676000Y-69756000D01*
G37*
G36*
X173856119Y-64977452D02*
G01*
X173883923Y-64985886D01*
X173909540Y-64999578D01*
X173931994Y-65018006D01*
X173950422Y-65040460D01*
X173964114Y-65066077D01*
X173972548Y-65093881D01*
X173976000Y-65128927D01*
X173976000Y-68621073D01*
X173972548Y-68656119D01*
X173964114Y-68683923D01*
X173950422Y-68709540D01*
X173931994Y-68731994D01*
X173909540Y-68750422D01*
X173883923Y-68764114D01*
X173856119Y-68772548D01*
X173821073Y-68776000D01*
X170328927Y-68776000D01*
X170293881Y-68772548D01*
X170266077Y-68764114D01*
X170240460Y-68750422D01*
X170218006Y-68731994D01*
X170199578Y-68709540D01*
X170185886Y-68683923D01*
X170177452Y-68656119D01*
X170174000Y-68621073D01*
X170174000Y-65128927D01*
X170177452Y-65093881D01*
X170185886Y-65066077D01*
X170199578Y-65040460D01*
X170218006Y-65018006D01*
X170240460Y-64999578D01*
X170266077Y-64985886D01*
X170293881Y-64977452D01*
X170328927Y-64974000D01*
X173821073Y-64974000D01*
X173856119Y-64977452D01*
X173856119Y-64977452D01*
G37*
G36*
X131330997Y-65953051D02*
G01*
X131364652Y-65963261D01*
X131395665Y-65979838D01*
X131422851Y-66002149D01*
X131445162Y-66029335D01*
X131461739Y-66060348D01*
X131471949Y-66094003D01*
X131476000Y-66135138D01*
X131476000Y-67464862D01*
X131471949Y-67505997D01*
X131461739Y-67539652D01*
X131445162Y-67570665D01*
X131422851Y-67597851D01*
X131395665Y-67620162D01*
X131364652Y-67636739D01*
X131330997Y-67646949D01*
X131289862Y-67651000D01*
X128060138Y-67651000D01*
X128019003Y-67646949D01*
X127985348Y-67636739D01*
X127954335Y-67620162D01*
X127927149Y-67597851D01*
X127904838Y-67570665D01*
X127888261Y-67539652D01*
X127878051Y-67505997D01*
X127874000Y-67464862D01*
X127874000Y-66135138D01*
X127878051Y-66094003D01*
X127888261Y-66060348D01*
X127904838Y-66029335D01*
X127927149Y-66002149D01*
X127954335Y-65979838D01*
X127985348Y-65963261D01*
X128019003Y-65953051D01*
X128060138Y-65949000D01*
X131289862Y-65949000D01*
X131330997Y-65953051D01*
X131330997Y-65953051D01*
G37*
G36*
X136930997Y-65953051D02*
G01*
X136964652Y-65963261D01*
X136995665Y-65979838D01*
X137022851Y-66002149D01*
X137045162Y-66029335D01*
X137061739Y-66060348D01*
X137071949Y-66094003D01*
X137076000Y-66135138D01*
X137076000Y-67464862D01*
X137071949Y-67505997D01*
X137061739Y-67539652D01*
X137045162Y-67570665D01*
X137022851Y-67597851D01*
X136995665Y-67620162D01*
X136964652Y-67636739D01*
X136930997Y-67646949D01*
X136889862Y-67651000D01*
X133660138Y-67651000D01*
X133619003Y-67646949D01*
X133585348Y-67636739D01*
X133554335Y-67620162D01*
X133527149Y-67597851D01*
X133504838Y-67570665D01*
X133488261Y-67539652D01*
X133478051Y-67505997D01*
X133474000Y-67464862D01*
X133474000Y-66135138D01*
X133478051Y-66094003D01*
X133488261Y-66060348D01*
X133504838Y-66029335D01*
X133527149Y-66002149D01*
X133554335Y-65979838D01*
X133585348Y-65963261D01*
X133619003Y-65953051D01*
X133660138Y-65949000D01*
X136889862Y-65949000D01*
X136930997Y-65953051D01*
X136930997Y-65953051D01*
G37*
G36*
X144021934Y-64802671D02*
G01*
X144051877Y-64811754D01*
X144079465Y-64826500D01*
X144103651Y-64846349D01*
X144123500Y-64870535D01*
X144138246Y-64898123D01*
X144147329Y-64928066D01*
X144151000Y-64965340D01*
X144151000Y-67234660D01*
X144147329Y-67271934D01*
X144138246Y-67301877D01*
X144123500Y-67329465D01*
X144103651Y-67353651D01*
X144079465Y-67373500D01*
X144051877Y-67388246D01*
X144021934Y-67397329D01*
X143984660Y-67401000D01*
X140215340Y-67401000D01*
X140178066Y-67397329D01*
X140148123Y-67388246D01*
X140120535Y-67373500D01*
X140096349Y-67353651D01*
X140076500Y-67329465D01*
X140061754Y-67301877D01*
X140052671Y-67271934D01*
X140049000Y-67234660D01*
X140049000Y-64965340D01*
X140052671Y-64928066D01*
X140061754Y-64898123D01*
X140076500Y-64870535D01*
X140096349Y-64846349D01*
X140120535Y-64826500D01*
X140148123Y-64811754D01*
X140178066Y-64802671D01*
X140215340Y-64799000D01*
X143984660Y-64799000D01*
X144021934Y-64802671D01*
X144021934Y-64802671D01*
G37*
G36*
X152021934Y-64802671D02*
G01*
X152051877Y-64811754D01*
X152079465Y-64826500D01*
X152103651Y-64846349D01*
X152123500Y-64870535D01*
X152138246Y-64898123D01*
X152147329Y-64928066D01*
X152151000Y-64965340D01*
X152151000Y-67234660D01*
X152147329Y-67271934D01*
X152138246Y-67301877D01*
X152123500Y-67329465D01*
X152103651Y-67353651D01*
X152079465Y-67373500D01*
X152051877Y-67388246D01*
X152021934Y-67397329D01*
X151984660Y-67401000D01*
X148215340Y-67401000D01*
X148178066Y-67397329D01*
X148148123Y-67388246D01*
X148120535Y-67373500D01*
X148096349Y-67353651D01*
X148076500Y-67329465D01*
X148061754Y-67301877D01*
X148052671Y-67271934D01*
X148049000Y-67234660D01*
X148049000Y-64965340D01*
X148052671Y-64928066D01*
X148061754Y-64898123D01*
X148076500Y-64870535D01*
X148096349Y-64846349D01*
X148120535Y-64826500D01*
X148148123Y-64811754D01*
X148178066Y-64802671D01*
X148215340Y-64799000D01*
X151984660Y-64799000D01*
X152021934Y-64802671D01*
X152021934Y-64802671D01*
G37*
G36*
X114387760Y-62473343D02*
G01*
X114511793Y-62498015D01*
X114862303Y-62643201D01*
X115177753Y-62853978D01*
X115446022Y-63122247D01*
X115656799Y-63437697D01*
X115801985Y-63788207D01*
X115876000Y-64160306D01*
X115876000Y-64539694D01*
X115801985Y-64911793D01*
X115758285Y-65017294D01*
X115669810Y-65230893D01*
X115656799Y-65262303D01*
X115446022Y-65577753D01*
X115177753Y-65846022D01*
X114862303Y-66056799D01*
X114511793Y-66201985D01*
X114387760Y-66226657D01*
X114139696Y-66276000D01*
X113760304Y-66276000D01*
X113512240Y-66226657D01*
X113388207Y-66201985D01*
X113037697Y-66056799D01*
X112722247Y-65846022D01*
X112453978Y-65577753D01*
X112243201Y-65262303D01*
X112230191Y-65230893D01*
X112141715Y-65017294D01*
X112098015Y-64911793D01*
X112024000Y-64539694D01*
X112024000Y-64160306D01*
X112098015Y-63788207D01*
X112243201Y-63437697D01*
X112453978Y-63122247D01*
X112722247Y-62853978D01*
X113037697Y-62643201D01*
X113388207Y-62498015D01*
X113512240Y-62473343D01*
X113760304Y-62424000D01*
X114139696Y-62424000D01*
X114387760Y-62473343D01*
X114387760Y-62473343D01*
G37*
G36*
X121576000Y-66276000D02*
G01*
X117724000Y-66276000D01*
X117724000Y-62424000D01*
X121576000Y-62424000D01*
X121576000Y-66276000D01*
X121576000Y-66276000D01*
G37*
G36*
X164676000Y-65196000D02*
G01*
X162374000Y-65196000D01*
X162374000Y-63894000D01*
X164676000Y-63894000D01*
X164676000Y-65196000D01*
X164676000Y-65196000D01*
G37*
G36*
X154101000Y-62701000D02*
G01*
X152499000Y-62701000D01*
X152499000Y-61099000D01*
X154101000Y-61099000D01*
X154101000Y-62701000D01*
X154101000Y-62701000D01*
G37*
M02*
