G04 #@! TF.GenerationSoftware,KiCad,Pcbnew,5.1.4-e60b266~84~ubuntu16.04.1*
G04 #@! TF.CreationDate,2019-09-26T20:17:56+05:30*
G04 #@! TF.ProjectId,sick_kinect_powerBoard,7369636b-5f6b-4696-9e65-63745f706f77,rev?*
G04 #@! TF.SameCoordinates,Original*
G04 #@! TF.FileFunction,Legend,Top*
G04 #@! TF.FilePolarity,Positive*
%FSLAX46Y46*%
G04 Gerber Fmt 4.6, Leading zero omitted, Abs format (unit mm)*
G04 Created by KiCad (PCBNEW 5.1.4-e60b266~84~ubuntu16.04.1) date 2019-09-26 20:17:56*
%MOMM*%
%LPD*%
G04 APERTURE LIST*
%ADD10C,0.120000*%
%ADD11C,0.250000*%
%ADD12C,0.150000*%
G04 APERTURE END LIST*
D10*
X172075000Y-63455000D02*
X167790000Y-63455000D01*
X167790000Y-63455000D02*
X167790000Y-76155000D01*
X167790000Y-76155000D02*
X170265000Y-76155000D01*
X170265000Y-76155000D02*
X170265000Y-77705000D01*
X170265000Y-77705000D02*
X172075000Y-77705000D01*
X172075000Y-63455000D02*
X176360000Y-63455000D01*
X176360000Y-63455000D02*
X176360000Y-74185000D01*
X174395000Y-76155000D02*
X173885000Y-76155000D01*
X173885000Y-76155000D02*
X173885000Y-77705000D01*
X173885000Y-77705000D02*
X172075000Y-77705000D01*
X167490000Y-65565000D02*
X167490000Y-63155000D01*
X167490000Y-63155000D02*
X169900000Y-63155000D01*
D11*
X138750000Y-100400000D02*
G75*
G03X138750000Y-100400000I-100000J0D01*
G01*
D12*
X139450000Y-100400000D02*
X143850000Y-100400000D01*
X143850000Y-100400000D02*
X143850000Y-100900000D01*
X139450000Y-108400000D02*
X143850000Y-108400000D01*
X139450000Y-100900000D02*
X139450000Y-100400000D01*
X143850000Y-107900000D02*
X143850000Y-108400000D01*
X139450000Y-108400000D02*
X139450000Y-107900000D01*
D10*
X131990000Y-105596267D02*
X131990000Y-105253733D01*
X133010000Y-105596267D02*
X133010000Y-105253733D01*
X152350000Y-60950000D02*
X154250000Y-60950000D01*
X154250000Y-60950000D02*
X154250000Y-62850000D01*
X154250000Y-62850000D02*
X152350000Y-62850000D01*
X152350000Y-62850000D02*
X152350000Y-60950000D01*
X134653733Y-107690000D02*
X134996267Y-107690000D01*
X134653733Y-108710000D02*
X134996267Y-108710000D01*
X133640000Y-105596267D02*
X133640000Y-105253733D01*
X134660000Y-105596267D02*
X134660000Y-105253733D01*
X141671267Y-109710000D02*
X141328733Y-109710000D01*
X141671267Y-108690000D02*
X141328733Y-108690000D01*
X148860000Y-108103733D02*
X148860000Y-108446267D01*
X147840000Y-108103733D02*
X147840000Y-108446267D01*
X146496267Y-99640000D02*
X146153733Y-99640000D01*
X146496267Y-100660000D02*
X146153733Y-100660000D01*
X132841250Y-95806250D02*
X132053750Y-95806250D01*
X132447500Y-95412500D02*
X132447500Y-96200000D01*
X128254437Y-96440000D02*
X127190000Y-97504437D01*
X132945563Y-96440000D02*
X134010000Y-97504437D01*
X132945563Y-96440000D02*
X131660000Y-96440000D01*
X128254437Y-96440000D02*
X129540000Y-96440000D01*
X127190000Y-97504437D02*
X127190000Y-103260000D01*
X134010000Y-97504437D02*
X134010000Y-103260000D01*
X134010000Y-103260000D02*
X131660000Y-103260000D01*
X127190000Y-103260000D02*
X129540000Y-103260000D01*
X135885000Y-70210000D02*
X135885000Y-67860000D01*
X135885000Y-63390000D02*
X135885000Y-65740000D01*
X130129437Y-63390000D02*
X135885000Y-63390000D01*
X130129437Y-70210000D02*
X135885000Y-70210000D01*
X129065000Y-69145563D02*
X129065000Y-67860000D01*
X129065000Y-64454437D02*
X129065000Y-65740000D01*
X129065000Y-64454437D02*
X130129437Y-63390000D01*
X129065000Y-69145563D02*
X130129437Y-70210000D01*
X128037500Y-64952500D02*
X128825000Y-64952500D01*
X128431250Y-64558750D02*
X128431250Y-65346250D01*
X126310000Y-96150000D02*
X125810000Y-96150000D01*
X126060000Y-95900000D02*
X126060000Y-96400000D01*
X123304437Y-96640000D02*
X122240000Y-97704437D01*
X125695563Y-96640000D02*
X126760000Y-97704437D01*
X125695563Y-96640000D02*
X125560000Y-96640000D01*
X123304437Y-96640000D02*
X123440000Y-96640000D01*
X122240000Y-97704437D02*
X122240000Y-101160000D01*
X126760000Y-97704437D02*
X126760000Y-101160000D01*
X126760000Y-101160000D02*
X125560000Y-101160000D01*
X122240000Y-101160000D02*
X123440000Y-101160000D01*
X133660000Y-75460000D02*
X133660000Y-74260000D01*
X133660000Y-70940000D02*
X133660000Y-72140000D01*
X130204437Y-70940000D02*
X133660000Y-70940000D01*
X130204437Y-75460000D02*
X133660000Y-75460000D01*
X129140000Y-74395563D02*
X129140000Y-74260000D01*
X129140000Y-72004437D02*
X129140000Y-72140000D01*
X129140000Y-72004437D02*
X130204437Y-70940000D01*
X129140000Y-74395563D02*
X130204437Y-75460000D01*
X128400000Y-71640000D02*
X128900000Y-71640000D01*
X128650000Y-71390000D02*
X128650000Y-71890000D01*
X120190000Y-99496267D02*
X120190000Y-99153733D01*
X121210000Y-99496267D02*
X121210000Y-99153733D01*
X131771267Y-78490000D02*
X131428733Y-78490000D01*
X131771267Y-79510000D02*
X131428733Y-79510000D01*
X164903733Y-108090000D02*
X165246267Y-108090000D01*
X164903733Y-109110000D02*
X165246267Y-109110000D01*
X119460000Y-99471267D02*
X119460000Y-99128733D01*
X118440000Y-99471267D02*
X118440000Y-99128733D01*
X131771267Y-76490000D02*
X131428733Y-76490000D01*
X131771267Y-77510000D02*
X131428733Y-77510000D01*
X163340000Y-109815000D02*
X163340000Y-112165000D01*
X163340000Y-116635000D02*
X163340000Y-114285000D01*
X169095563Y-116635000D02*
X163340000Y-116635000D01*
X169095563Y-109815000D02*
X163340000Y-109815000D01*
X170160000Y-110879437D02*
X170160000Y-112165000D01*
X170160000Y-115570563D02*
X170160000Y-114285000D01*
X170160000Y-115570563D02*
X169095563Y-116635000D01*
X170160000Y-110879437D02*
X169095563Y-109815000D01*
X171187500Y-115072500D02*
X170400000Y-115072500D01*
X170793750Y-115466250D02*
X170793750Y-114678750D01*
X127728733Y-78410000D02*
X128071267Y-78410000D01*
X127728733Y-77390000D02*
X128071267Y-77390000D01*
X123290000Y-80571267D02*
X123290000Y-80228733D01*
X124310000Y-80571267D02*
X124310000Y-80228733D01*
X124153733Y-87610000D02*
X124496267Y-87610000D01*
X124153733Y-86590000D02*
X124496267Y-86590000D01*
X124890000Y-84103733D02*
X124890000Y-84446267D01*
X125910000Y-84103733D02*
X125910000Y-84446267D01*
X122210000Y-84028733D02*
X122210000Y-84371267D01*
X121190000Y-84028733D02*
X121190000Y-84371267D01*
X136190000Y-86353733D02*
X136190000Y-86696267D01*
X137210000Y-86353733D02*
X137210000Y-86696267D01*
X144053733Y-71990000D02*
X144396267Y-71990000D01*
X144053733Y-73010000D02*
X144396267Y-73010000D01*
X140840000Y-60840000D02*
X140840000Y-64590000D01*
X140840000Y-71360000D02*
X140840000Y-67610000D01*
X150295563Y-71360000D02*
X140840000Y-71360000D01*
X150295563Y-60840000D02*
X140840000Y-60840000D01*
X151360000Y-61904437D02*
X151360000Y-64590000D01*
X151360000Y-70295563D02*
X151360000Y-67610000D01*
X151360000Y-70295563D02*
X150295563Y-71360000D01*
X151360000Y-61904437D02*
X150295563Y-60840000D01*
X152850000Y-68860000D02*
X151600000Y-68860000D01*
X152225000Y-69485000D02*
X152225000Y-68235000D01*
X164500000Y-86050000D02*
X164500000Y-89050000D01*
X151900000Y-86050000D02*
X164500000Y-86050000D01*
X151900000Y-89050000D02*
X151900000Y-86050000D01*
X151900000Y-98650000D02*
X151900000Y-95650000D01*
X164500000Y-98650000D02*
X151900000Y-98650000D01*
X164500000Y-95650000D02*
X164500000Y-98650000D01*
X161222000Y-71778000D02*
X164222000Y-71778000D01*
X164222000Y-71778000D02*
X164222000Y-84378000D01*
X164222000Y-84378000D02*
X161222000Y-84378000D01*
X154622000Y-84378000D02*
X151622000Y-84378000D01*
X151622000Y-84378000D02*
X151622000Y-71778000D01*
X151622000Y-71778000D02*
X154622000Y-71778000D01*
X136320000Y-74610000D02*
X137250000Y-74610000D01*
X139480000Y-74610000D02*
X138550000Y-74610000D01*
X139480000Y-74610000D02*
X139480000Y-72450000D01*
X136320000Y-74610000D02*
X136320000Y-73150000D01*
X135390000Y-105253733D02*
X135390000Y-105596267D01*
X136410000Y-105253733D02*
X136410000Y-105596267D01*
X137040000Y-109846267D02*
X137040000Y-109503733D01*
X138060000Y-109846267D02*
X138060000Y-109503733D01*
X144853733Y-109660000D02*
X145196267Y-109660000D01*
X144853733Y-108640000D02*
X145196267Y-108640000D01*
X131253733Y-107690000D02*
X131596267Y-107690000D01*
X131253733Y-108710000D02*
X131596267Y-108710000D01*
X130490000Y-88303733D02*
X130490000Y-88646267D01*
X131510000Y-88303733D02*
X131510000Y-88646267D01*
X126790000Y-87803733D02*
X126790000Y-88146267D01*
X127810000Y-87803733D02*
X127810000Y-88146267D01*
X124890000Y-80596267D02*
X124890000Y-80253733D01*
X125910000Y-80596267D02*
X125910000Y-80253733D01*
X128490000Y-87828733D02*
X128490000Y-88171267D01*
X129510000Y-87828733D02*
X129510000Y-88171267D01*
X132046267Y-92110000D02*
X131703733Y-92110000D01*
X132046267Y-91090000D02*
X131703733Y-91090000D01*
X132290000Y-88728733D02*
X132290000Y-89071267D01*
X133310000Y-88728733D02*
X133310000Y-89071267D01*
X121190000Y-87803733D02*
X121190000Y-88146267D01*
X122210000Y-87803733D02*
X122210000Y-88146267D01*
X123910000Y-84053733D02*
X123910000Y-84396267D01*
X122890000Y-84053733D02*
X122890000Y-84396267D01*
X137778733Y-71760000D02*
X138121267Y-71760000D01*
X137778733Y-70740000D02*
X138121267Y-70740000D01*
X120610000Y-85253733D02*
X120610000Y-85596267D01*
X119590000Y-85253733D02*
X119590000Y-85596267D01*
X120610000Y-81528733D02*
X120610000Y-81871267D01*
X119590000Y-81528733D02*
X119590000Y-81871267D01*
X146250000Y-95800000D02*
X148150000Y-95800000D01*
X148150000Y-95800000D02*
X148150000Y-97700000D01*
X148150000Y-97700000D02*
X146250000Y-97700000D01*
X146250000Y-97700000D02*
X146250000Y-95800000D01*
X169025000Y-92650000D02*
X169025000Y-90750000D01*
X170925000Y-92650000D02*
X169025000Y-92650000D01*
X170925000Y-90750000D02*
X170925000Y-92650000D01*
X169025000Y-90750000D02*
X170925000Y-90750000D01*
X127800000Y-105150000D02*
X129700000Y-105150000D01*
X129700000Y-105150000D02*
X129700000Y-107050000D01*
X129700000Y-107050000D02*
X127800000Y-107050000D01*
X127800000Y-107050000D02*
X127800000Y-105150000D01*
X124150000Y-73950000D02*
X126050000Y-73950000D01*
X126050000Y-73950000D02*
X126050000Y-75850000D01*
X126050000Y-75850000D02*
X124150000Y-75850000D01*
X124150000Y-75850000D02*
X124150000Y-73950000D01*
X138600000Y-97900000D02*
X138600000Y-96000000D01*
X140500000Y-97900000D02*
X138600000Y-97900000D01*
X140500000Y-96000000D02*
X140500000Y-97900000D01*
X138600000Y-96000000D02*
X140500000Y-96000000D01*
X137550000Y-84250000D02*
X137550000Y-82350000D01*
X139450000Y-84250000D02*
X137550000Y-84250000D01*
X139450000Y-82350000D02*
X139450000Y-84250000D01*
X137550000Y-82350000D02*
X139450000Y-82350000D01*
X116550000Y-84050000D02*
X116550000Y-82150000D01*
X118450000Y-84050000D02*
X116550000Y-84050000D01*
X118450000Y-82150000D02*
X118450000Y-84050000D01*
X116550000Y-82150000D02*
X118450000Y-82150000D01*
X131385000Y-80790000D02*
X132110000Y-80790000D01*
X132110000Y-80790000D02*
X132110000Y-81515000D01*
X128615000Y-85010000D02*
X127890000Y-85010000D01*
X127890000Y-85010000D02*
X127890000Y-84285000D01*
X131385000Y-85010000D02*
X132110000Y-85010000D01*
X132110000Y-85010000D02*
X132110000Y-84285000D01*
X128615000Y-80790000D02*
X127890000Y-80790000D01*
X141303733Y-110340000D02*
X141646267Y-110340000D01*
X141303733Y-111360000D02*
X141646267Y-111360000D01*
X153855000Y-100650000D02*
X152355000Y-100650000D01*
X152355000Y-100650000D02*
X152355000Y-100920000D01*
X152355000Y-100920000D02*
X149525000Y-100920000D01*
X153855000Y-107550000D02*
X152355000Y-107550000D01*
X152355000Y-107550000D02*
X152355000Y-107280000D01*
X152355000Y-107280000D02*
X151255000Y-107280000D01*
X142050000Y-85870000D02*
X142050000Y-87370000D01*
X142050000Y-87370000D02*
X142320000Y-87370000D01*
X142320000Y-87370000D02*
X142320000Y-90200000D01*
X148950000Y-85870000D02*
X148950000Y-87370000D01*
X148950000Y-87370000D02*
X148680000Y-87370000D01*
X148680000Y-87370000D02*
X148680000Y-88470000D01*
X161795000Y-63645000D02*
X162895000Y-63645000D01*
X161795000Y-63375000D02*
X161795000Y-63645000D01*
X160295000Y-63375000D02*
X161795000Y-63375000D01*
X161795000Y-70005000D02*
X164625000Y-70005000D01*
X161795000Y-70275000D02*
X161795000Y-70005000D01*
X160295000Y-70275000D02*
X161795000Y-70275000D01*
X119950000Y-60075000D02*
X119650000Y-60675000D01*
X119350000Y-60075000D02*
X119950000Y-60075000D01*
X119650000Y-60675000D02*
X119350000Y-60075000D01*
X111713750Y-75225000D02*
X111713750Y-73375000D01*
X115526250Y-75225000D02*
X115526250Y-73375000D01*
X111713750Y-59175000D02*
X111713750Y-61025000D01*
X115526250Y-59175000D02*
X115526250Y-61025000D01*
X108660000Y-69050000D02*
X108660000Y-67200000D01*
X110210000Y-69050000D02*
X108660000Y-69050000D01*
X110210000Y-73375000D02*
X110210000Y-69050000D01*
X123090000Y-73375000D02*
X110210000Y-73375000D01*
X123090000Y-67200000D02*
X123090000Y-73375000D01*
X108660000Y-65350000D02*
X108660000Y-67200000D01*
X110210000Y-65350000D02*
X108660000Y-65350000D01*
X110210000Y-61025000D02*
X110210000Y-65350000D01*
X123090000Y-61025000D02*
X110210000Y-61025000D01*
X123090000Y-67200000D02*
X123090000Y-61025000D01*
X115220000Y-75225000D02*
G75*
G03X115220000Y-75225000I-1600000J0D01*
G01*
X115220000Y-59175000D02*
G75*
G03X115220000Y-59175000I-1600000J0D01*
G01*
X111713750Y-75225000D02*
G75*
G03X115526250Y-75225000I1906250J0D01*
G01*
X115526250Y-59175000D02*
G75*
G03X111713750Y-59175000I-1906250J0D01*
G01*
X108575000Y-110373750D02*
G75*
G03X108575000Y-114186250I0J-1906250D01*
G01*
X124625000Y-114186250D02*
G75*
G03X124625000Y-110373750I0J1906250D01*
G01*
X110175000Y-112280000D02*
G75*
G03X110175000Y-112280000I-1600000J0D01*
G01*
X126225000Y-112280000D02*
G75*
G03X126225000Y-112280000I-1600000J0D01*
G01*
X116600000Y-102810000D02*
X110425000Y-102810000D01*
X110425000Y-102810000D02*
X110425000Y-115690000D01*
X110425000Y-115690000D02*
X114750000Y-115690000D01*
X114750000Y-115690000D02*
X114750000Y-117240000D01*
X114750000Y-117240000D02*
X116600000Y-117240000D01*
X116600000Y-102810000D02*
X122775000Y-102810000D01*
X122775000Y-102810000D02*
X122775000Y-115690000D01*
X122775000Y-115690000D02*
X118450000Y-115690000D01*
X118450000Y-115690000D02*
X118450000Y-117240000D01*
X118450000Y-117240000D02*
X116600000Y-117240000D01*
X108575000Y-110373750D02*
X110425000Y-110373750D01*
X108575000Y-114186250D02*
X110425000Y-114186250D01*
X124625000Y-110373750D02*
X122775000Y-110373750D01*
X124625000Y-114186250D02*
X122775000Y-114186250D01*
X110075000Y-106250000D02*
X109475000Y-106550000D01*
X109475000Y-106550000D02*
X109475000Y-105950000D01*
X109475000Y-105950000D02*
X110075000Y-106250000D01*
X167040000Y-94155000D02*
X169450000Y-94155000D01*
X167040000Y-96565000D02*
X167040000Y-94155000D01*
X173435000Y-108705000D02*
X171625000Y-108705000D01*
X173435000Y-107155000D02*
X173435000Y-108705000D01*
X173945000Y-107155000D02*
X173435000Y-107155000D01*
X175910000Y-94455000D02*
X175910000Y-105185000D01*
X171625000Y-94455000D02*
X175910000Y-94455000D01*
X169815000Y-108705000D02*
X171625000Y-108705000D01*
X169815000Y-107155000D02*
X169815000Y-108705000D01*
X167340000Y-107155000D02*
X169815000Y-107155000D01*
X167340000Y-94455000D02*
X167340000Y-107155000D01*
X171625000Y-94455000D02*
X167340000Y-94455000D01*
D12*
X171741666Y-61817380D02*
X171741666Y-62531666D01*
X171694047Y-62674523D01*
X171598809Y-62769761D01*
X171455952Y-62817380D01*
X171360714Y-62817380D01*
X172646428Y-62150714D02*
X172646428Y-62817380D01*
X172408333Y-61769761D02*
X172170238Y-62484047D01*
X172789285Y-62484047D01*
X140735714Y-98742857D02*
X140735714Y-99714285D01*
X140792857Y-99828571D01*
X140850000Y-99885714D01*
X140964285Y-99942857D01*
X141192857Y-99942857D01*
X141307142Y-99885714D01*
X141364285Y-99828571D01*
X141421428Y-99714285D01*
X141421428Y-98742857D01*
X142621428Y-99942857D02*
X141935714Y-99942857D01*
X142278571Y-99942857D02*
X142278571Y-98742857D01*
X142164285Y-98914285D01*
X142050000Y-99028571D01*
X141935714Y-99085714D01*
X131522380Y-105591666D02*
X131046190Y-105925000D01*
X131522380Y-106163095D02*
X130522380Y-106163095D01*
X130522380Y-105782142D01*
X130570000Y-105686904D01*
X130617619Y-105639285D01*
X130712857Y-105591666D01*
X130855714Y-105591666D01*
X130950952Y-105639285D01*
X130998571Y-105686904D01*
X131046190Y-105782142D01*
X131046190Y-106163095D01*
X130522380Y-104686904D02*
X130522380Y-105163095D01*
X130998571Y-105210714D01*
X130950952Y-105163095D01*
X130903333Y-105067857D01*
X130903333Y-104829761D01*
X130950952Y-104734523D01*
X130998571Y-104686904D01*
X131093809Y-104639285D01*
X131331904Y-104639285D01*
X131427142Y-104686904D01*
X131474761Y-104734523D01*
X131522380Y-104829761D01*
X131522380Y-105067857D01*
X131474761Y-105163095D01*
X131427142Y-105210714D01*
X152038095Y-59704380D02*
X152609523Y-59704380D01*
X152323809Y-60704380D02*
X152323809Y-59704380D01*
X152942857Y-60704380D02*
X152942857Y-59704380D01*
X153323809Y-59704380D01*
X153419047Y-59752000D01*
X153466666Y-59799619D01*
X153514285Y-59894857D01*
X153514285Y-60037714D01*
X153466666Y-60132952D01*
X153419047Y-60180571D01*
X153323809Y-60228190D01*
X152942857Y-60228190D01*
X154085714Y-60132952D02*
X153990476Y-60085333D01*
X153942857Y-60037714D01*
X153895238Y-59942476D01*
X153895238Y-59894857D01*
X153942857Y-59799619D01*
X153990476Y-59752000D01*
X154085714Y-59704380D01*
X154276190Y-59704380D01*
X154371428Y-59752000D01*
X154419047Y-59799619D01*
X154466666Y-59894857D01*
X154466666Y-59942476D01*
X154419047Y-60037714D01*
X154371428Y-60085333D01*
X154276190Y-60132952D01*
X154085714Y-60132952D01*
X153990476Y-60180571D01*
X153942857Y-60228190D01*
X153895238Y-60323428D01*
X153895238Y-60513904D01*
X153942857Y-60609142D01*
X153990476Y-60656761D01*
X154085714Y-60704380D01*
X154276190Y-60704380D01*
X154371428Y-60656761D01*
X154419047Y-60609142D01*
X154466666Y-60513904D01*
X154466666Y-60323428D01*
X154419047Y-60228190D01*
X154371428Y-60180571D01*
X154276190Y-60132952D01*
X134658333Y-107127142D02*
X134610714Y-107174761D01*
X134467857Y-107222380D01*
X134372619Y-107222380D01*
X134229761Y-107174761D01*
X134134523Y-107079523D01*
X134086904Y-106984285D01*
X134039285Y-106793809D01*
X134039285Y-106650952D01*
X134086904Y-106460476D01*
X134134523Y-106365238D01*
X134229761Y-106270000D01*
X134372619Y-106222380D01*
X134467857Y-106222380D01*
X134610714Y-106270000D01*
X134658333Y-106317619D01*
X135610714Y-107222380D02*
X135039285Y-107222380D01*
X135325000Y-107222380D02*
X135325000Y-106222380D01*
X135229761Y-106365238D01*
X135134523Y-106460476D01*
X135039285Y-106508095D01*
X133077142Y-105591666D02*
X133124761Y-105639285D01*
X133172380Y-105782142D01*
X133172380Y-105877380D01*
X133124761Y-106020238D01*
X133029523Y-106115476D01*
X132934285Y-106163095D01*
X132743809Y-106210714D01*
X132600952Y-106210714D01*
X132410476Y-106163095D01*
X132315238Y-106115476D01*
X132220000Y-106020238D01*
X132172380Y-105877380D01*
X132172380Y-105782142D01*
X132220000Y-105639285D01*
X132267619Y-105591666D01*
X132267619Y-105210714D02*
X132220000Y-105163095D01*
X132172380Y-105067857D01*
X132172380Y-104829761D01*
X132220000Y-104734523D01*
X132267619Y-104686904D01*
X132362857Y-104639285D01*
X132458095Y-104639285D01*
X132600952Y-104686904D01*
X133172380Y-105258333D01*
X133172380Y-104639285D01*
X141333333Y-110987142D02*
X141285714Y-111034761D01*
X141142857Y-111082380D01*
X141047619Y-111082380D01*
X140904761Y-111034761D01*
X140809523Y-110939523D01*
X140761904Y-110844285D01*
X140714285Y-110653809D01*
X140714285Y-110510952D01*
X140761904Y-110320476D01*
X140809523Y-110225238D01*
X140904761Y-110130000D01*
X141047619Y-110082380D01*
X141142857Y-110082380D01*
X141285714Y-110130000D01*
X141333333Y-110177619D01*
X141666666Y-110082380D02*
X142285714Y-110082380D01*
X141952380Y-110463333D01*
X142095238Y-110463333D01*
X142190476Y-110510952D01*
X142238095Y-110558571D01*
X142285714Y-110653809D01*
X142285714Y-110891904D01*
X142238095Y-110987142D01*
X142190476Y-111034761D01*
X142095238Y-111082380D01*
X141809523Y-111082380D01*
X141714285Y-111034761D01*
X141666666Y-110987142D01*
X150137142Y-108441666D02*
X150184761Y-108489285D01*
X150232380Y-108632142D01*
X150232380Y-108727380D01*
X150184761Y-108870238D01*
X150089523Y-108965476D01*
X149994285Y-109013095D01*
X149803809Y-109060714D01*
X149660952Y-109060714D01*
X149470476Y-109013095D01*
X149375238Y-108965476D01*
X149280000Y-108870238D01*
X149232380Y-108727380D01*
X149232380Y-108632142D01*
X149280000Y-108489285D01*
X149327619Y-108441666D01*
X149565714Y-107584523D02*
X150232380Y-107584523D01*
X149184761Y-107822619D02*
X149899047Y-108060714D01*
X149899047Y-107441666D01*
X146158333Y-101937142D02*
X146110714Y-101984761D01*
X145967857Y-102032380D01*
X145872619Y-102032380D01*
X145729761Y-101984761D01*
X145634523Y-101889523D01*
X145586904Y-101794285D01*
X145539285Y-101603809D01*
X145539285Y-101460952D01*
X145586904Y-101270476D01*
X145634523Y-101175238D01*
X145729761Y-101080000D01*
X145872619Y-101032380D01*
X145967857Y-101032380D01*
X146110714Y-101080000D01*
X146158333Y-101127619D01*
X147063095Y-101032380D02*
X146586904Y-101032380D01*
X146539285Y-101508571D01*
X146586904Y-101460952D01*
X146682142Y-101413333D01*
X146920238Y-101413333D01*
X147015476Y-101460952D01*
X147063095Y-101508571D01*
X147110714Y-101603809D01*
X147110714Y-101841904D01*
X147063095Y-101937142D01*
X147015476Y-101984761D01*
X146920238Y-102032380D01*
X146682142Y-102032380D01*
X146586904Y-101984761D01*
X146539285Y-101937142D01*
X135307142Y-100016666D02*
X135354761Y-100064285D01*
X135402380Y-100207142D01*
X135402380Y-100302380D01*
X135354761Y-100445238D01*
X135259523Y-100540476D01*
X135164285Y-100588095D01*
X134973809Y-100635714D01*
X134830952Y-100635714D01*
X134640476Y-100588095D01*
X134545238Y-100540476D01*
X134450000Y-100445238D01*
X134402380Y-100302380D01*
X134402380Y-100207142D01*
X134450000Y-100064285D01*
X134497619Y-100016666D01*
X134402380Y-99159523D02*
X134402380Y-99350000D01*
X134450000Y-99445238D01*
X134497619Y-99492857D01*
X134640476Y-99588095D01*
X134830952Y-99635714D01*
X135211904Y-99635714D01*
X135307142Y-99588095D01*
X135354761Y-99540476D01*
X135402380Y-99445238D01*
X135402380Y-99254761D01*
X135354761Y-99159523D01*
X135307142Y-99111904D01*
X135211904Y-99064285D01*
X134973809Y-99064285D01*
X134878571Y-99111904D01*
X134830952Y-99159523D01*
X134783333Y-99254761D01*
X134783333Y-99445238D01*
X134830952Y-99540476D01*
X134878571Y-99588095D01*
X134973809Y-99635714D01*
X132308333Y-62807142D02*
X132260714Y-62854761D01*
X132117857Y-62902380D01*
X132022619Y-62902380D01*
X131879761Y-62854761D01*
X131784523Y-62759523D01*
X131736904Y-62664285D01*
X131689285Y-62473809D01*
X131689285Y-62330952D01*
X131736904Y-62140476D01*
X131784523Y-62045238D01*
X131879761Y-61950000D01*
X132022619Y-61902380D01*
X132117857Y-61902380D01*
X132260714Y-61950000D01*
X132308333Y-61997619D01*
X132641666Y-61902380D02*
X133308333Y-61902380D01*
X132879761Y-62902380D01*
X128057142Y-99066666D02*
X128104761Y-99114285D01*
X128152380Y-99257142D01*
X128152380Y-99352380D01*
X128104761Y-99495238D01*
X128009523Y-99590476D01*
X127914285Y-99638095D01*
X127723809Y-99685714D01*
X127580952Y-99685714D01*
X127390476Y-99638095D01*
X127295238Y-99590476D01*
X127200000Y-99495238D01*
X127152380Y-99352380D01*
X127152380Y-99257142D01*
X127200000Y-99114285D01*
X127247619Y-99066666D01*
X127580952Y-98495238D02*
X127533333Y-98590476D01*
X127485714Y-98638095D01*
X127390476Y-98685714D01*
X127342857Y-98685714D01*
X127247619Y-98638095D01*
X127200000Y-98590476D01*
X127152380Y-98495238D01*
X127152380Y-98304761D01*
X127200000Y-98209523D01*
X127247619Y-98161904D01*
X127342857Y-98114285D01*
X127390476Y-98114285D01*
X127485714Y-98161904D01*
X127533333Y-98209523D01*
X127580952Y-98304761D01*
X127580952Y-98495238D01*
X127628571Y-98590476D01*
X127676190Y-98638095D01*
X127771428Y-98685714D01*
X127961904Y-98685714D01*
X128057142Y-98638095D01*
X128104761Y-98590476D01*
X128152380Y-98495238D01*
X128152380Y-98304761D01*
X128104761Y-98209523D01*
X128057142Y-98161904D01*
X127961904Y-98114285D01*
X127771428Y-98114285D01*
X127676190Y-98161904D01*
X127628571Y-98209523D01*
X127580952Y-98304761D01*
X131233333Y-70357142D02*
X131185714Y-70404761D01*
X131042857Y-70452380D01*
X130947619Y-70452380D01*
X130804761Y-70404761D01*
X130709523Y-70309523D01*
X130661904Y-70214285D01*
X130614285Y-70023809D01*
X130614285Y-69880952D01*
X130661904Y-69690476D01*
X130709523Y-69595238D01*
X130804761Y-69500000D01*
X130947619Y-69452380D01*
X131042857Y-69452380D01*
X131185714Y-69500000D01*
X131233333Y-69547619D01*
X131709523Y-70452380D02*
X131900000Y-70452380D01*
X131995238Y-70404761D01*
X132042857Y-70357142D01*
X132138095Y-70214285D01*
X132185714Y-70023809D01*
X132185714Y-69642857D01*
X132138095Y-69547619D01*
X132090476Y-69500000D01*
X131995238Y-69452380D01*
X131804761Y-69452380D01*
X131709523Y-69500000D01*
X131661904Y-69547619D01*
X131614285Y-69642857D01*
X131614285Y-69880952D01*
X131661904Y-69976190D01*
X131709523Y-70023809D01*
X131804761Y-70071428D01*
X131995238Y-70071428D01*
X132090476Y-70023809D01*
X132138095Y-69976190D01*
X132185714Y-69880952D01*
X119627142Y-99967857D02*
X119674761Y-100015476D01*
X119722380Y-100158333D01*
X119722380Y-100253571D01*
X119674761Y-100396428D01*
X119579523Y-100491666D01*
X119484285Y-100539285D01*
X119293809Y-100586904D01*
X119150952Y-100586904D01*
X118960476Y-100539285D01*
X118865238Y-100491666D01*
X118770000Y-100396428D01*
X118722380Y-100253571D01*
X118722380Y-100158333D01*
X118770000Y-100015476D01*
X118817619Y-99967857D01*
X119722380Y-99015476D02*
X119722380Y-99586904D01*
X119722380Y-99301190D02*
X118722380Y-99301190D01*
X118865238Y-99396428D01*
X118960476Y-99491666D01*
X119008095Y-99586904D01*
X118722380Y-98396428D02*
X118722380Y-98301190D01*
X118770000Y-98205952D01*
X118817619Y-98158333D01*
X118912857Y-98110714D01*
X119103333Y-98063095D01*
X119341428Y-98063095D01*
X119531904Y-98110714D01*
X119627142Y-98158333D01*
X119674761Y-98205952D01*
X119722380Y-98301190D01*
X119722380Y-98396428D01*
X119674761Y-98491666D01*
X119627142Y-98539285D01*
X119531904Y-98586904D01*
X119341428Y-98634523D01*
X119103333Y-98634523D01*
X118912857Y-98586904D01*
X118817619Y-98539285D01*
X118770000Y-98491666D01*
X118722380Y-98396428D01*
X130957142Y-80787142D02*
X130909523Y-80834761D01*
X130766666Y-80882380D01*
X130671428Y-80882380D01*
X130528571Y-80834761D01*
X130433333Y-80739523D01*
X130385714Y-80644285D01*
X130338095Y-80453809D01*
X130338095Y-80310952D01*
X130385714Y-80120476D01*
X130433333Y-80025238D01*
X130528571Y-79930000D01*
X130671428Y-79882380D01*
X130766666Y-79882380D01*
X130909523Y-79930000D01*
X130957142Y-79977619D01*
X131909523Y-80882380D02*
X131338095Y-80882380D01*
X131623809Y-80882380D02*
X131623809Y-79882380D01*
X131528571Y-80025238D01*
X131433333Y-80120476D01*
X131338095Y-80168095D01*
X132861904Y-80882380D02*
X132290476Y-80882380D01*
X132576190Y-80882380D02*
X132576190Y-79882380D01*
X132480952Y-80025238D01*
X132385714Y-80120476D01*
X132290476Y-80168095D01*
X164432142Y-107527142D02*
X164384523Y-107574761D01*
X164241666Y-107622380D01*
X164146428Y-107622380D01*
X164003571Y-107574761D01*
X163908333Y-107479523D01*
X163860714Y-107384285D01*
X163813095Y-107193809D01*
X163813095Y-107050952D01*
X163860714Y-106860476D01*
X163908333Y-106765238D01*
X164003571Y-106670000D01*
X164146428Y-106622380D01*
X164241666Y-106622380D01*
X164384523Y-106670000D01*
X164432142Y-106717619D01*
X165384523Y-107622380D02*
X164813095Y-107622380D01*
X165098809Y-107622380D02*
X165098809Y-106622380D01*
X165003571Y-106765238D01*
X164908333Y-106860476D01*
X164813095Y-106908095D01*
X165765476Y-106717619D02*
X165813095Y-106670000D01*
X165908333Y-106622380D01*
X166146428Y-106622380D01*
X166241666Y-106670000D01*
X166289285Y-106717619D01*
X166336904Y-106812857D01*
X166336904Y-106908095D01*
X166289285Y-107050952D01*
X165717857Y-107622380D01*
X166336904Y-107622380D01*
X117877142Y-99942857D02*
X117924761Y-99990476D01*
X117972380Y-100133333D01*
X117972380Y-100228571D01*
X117924761Y-100371428D01*
X117829523Y-100466666D01*
X117734285Y-100514285D01*
X117543809Y-100561904D01*
X117400952Y-100561904D01*
X117210476Y-100514285D01*
X117115238Y-100466666D01*
X117020000Y-100371428D01*
X116972380Y-100228571D01*
X116972380Y-100133333D01*
X117020000Y-99990476D01*
X117067619Y-99942857D01*
X117972380Y-98990476D02*
X117972380Y-99561904D01*
X117972380Y-99276190D02*
X116972380Y-99276190D01*
X117115238Y-99371428D01*
X117210476Y-99466666D01*
X117258095Y-99561904D01*
X116972380Y-98657142D02*
X116972380Y-98038095D01*
X117353333Y-98371428D01*
X117353333Y-98228571D01*
X117400952Y-98133333D01*
X117448571Y-98085714D01*
X117543809Y-98038095D01*
X117781904Y-98038095D01*
X117877142Y-98085714D01*
X117924761Y-98133333D01*
X117972380Y-98228571D01*
X117972380Y-98514285D01*
X117924761Y-98609523D01*
X117877142Y-98657142D01*
X130957142Y-78787142D02*
X130909523Y-78834761D01*
X130766666Y-78882380D01*
X130671428Y-78882380D01*
X130528571Y-78834761D01*
X130433333Y-78739523D01*
X130385714Y-78644285D01*
X130338095Y-78453809D01*
X130338095Y-78310952D01*
X130385714Y-78120476D01*
X130433333Y-78025238D01*
X130528571Y-77930000D01*
X130671428Y-77882380D01*
X130766666Y-77882380D01*
X130909523Y-77930000D01*
X130957142Y-77977619D01*
X131909523Y-78882380D02*
X131338095Y-78882380D01*
X131623809Y-78882380D02*
X131623809Y-77882380D01*
X131528571Y-78025238D01*
X131433333Y-78120476D01*
X131338095Y-78168095D01*
X132766666Y-78215714D02*
X132766666Y-78882380D01*
X132528571Y-77834761D02*
X132290476Y-78549047D01*
X132909523Y-78549047D01*
X166107142Y-117932142D02*
X166059523Y-117979761D01*
X165916666Y-118027380D01*
X165821428Y-118027380D01*
X165678571Y-117979761D01*
X165583333Y-117884523D01*
X165535714Y-117789285D01*
X165488095Y-117598809D01*
X165488095Y-117455952D01*
X165535714Y-117265476D01*
X165583333Y-117170238D01*
X165678571Y-117075000D01*
X165821428Y-117027380D01*
X165916666Y-117027380D01*
X166059523Y-117075000D01*
X166107142Y-117122619D01*
X167059523Y-118027380D02*
X166488095Y-118027380D01*
X166773809Y-118027380D02*
X166773809Y-117027380D01*
X166678571Y-117170238D01*
X166583333Y-117265476D01*
X166488095Y-117313095D01*
X167964285Y-117027380D02*
X167488095Y-117027380D01*
X167440476Y-117503571D01*
X167488095Y-117455952D01*
X167583333Y-117408333D01*
X167821428Y-117408333D01*
X167916666Y-117455952D01*
X167964285Y-117503571D01*
X168011904Y-117598809D01*
X168011904Y-117836904D01*
X167964285Y-117932142D01*
X167916666Y-117979761D01*
X167821428Y-118027380D01*
X167583333Y-118027380D01*
X167488095Y-117979761D01*
X167440476Y-117932142D01*
X127257142Y-76827142D02*
X127209523Y-76874761D01*
X127066666Y-76922380D01*
X126971428Y-76922380D01*
X126828571Y-76874761D01*
X126733333Y-76779523D01*
X126685714Y-76684285D01*
X126638095Y-76493809D01*
X126638095Y-76350952D01*
X126685714Y-76160476D01*
X126733333Y-76065238D01*
X126828571Y-75970000D01*
X126971428Y-75922380D01*
X127066666Y-75922380D01*
X127209523Y-75970000D01*
X127257142Y-76017619D01*
X128209523Y-76922380D02*
X127638095Y-76922380D01*
X127923809Y-76922380D02*
X127923809Y-75922380D01*
X127828571Y-76065238D01*
X127733333Y-76160476D01*
X127638095Y-76208095D01*
X129066666Y-75922380D02*
X128876190Y-75922380D01*
X128780952Y-75970000D01*
X128733333Y-76017619D01*
X128638095Y-76160476D01*
X128590476Y-76350952D01*
X128590476Y-76731904D01*
X128638095Y-76827142D01*
X128685714Y-76874761D01*
X128780952Y-76922380D01*
X128971428Y-76922380D01*
X129066666Y-76874761D01*
X129114285Y-76827142D01*
X129161904Y-76731904D01*
X129161904Y-76493809D01*
X129114285Y-76398571D01*
X129066666Y-76350952D01*
X128971428Y-76303333D01*
X128780952Y-76303333D01*
X128685714Y-76350952D01*
X128638095Y-76398571D01*
X128590476Y-76493809D01*
X122727142Y-81042857D02*
X122774761Y-81090476D01*
X122822380Y-81233333D01*
X122822380Y-81328571D01*
X122774761Y-81471428D01*
X122679523Y-81566666D01*
X122584285Y-81614285D01*
X122393809Y-81661904D01*
X122250952Y-81661904D01*
X122060476Y-81614285D01*
X121965238Y-81566666D01*
X121870000Y-81471428D01*
X121822380Y-81328571D01*
X121822380Y-81233333D01*
X121870000Y-81090476D01*
X121917619Y-81042857D01*
X122822380Y-80090476D02*
X122822380Y-80661904D01*
X122822380Y-80376190D02*
X121822380Y-80376190D01*
X121965238Y-80471428D01*
X122060476Y-80566666D01*
X122108095Y-80661904D01*
X121822380Y-79757142D02*
X121822380Y-79090476D01*
X122822380Y-79519047D01*
X123682142Y-86027142D02*
X123634523Y-86074761D01*
X123491666Y-86122380D01*
X123396428Y-86122380D01*
X123253571Y-86074761D01*
X123158333Y-85979523D01*
X123110714Y-85884285D01*
X123063095Y-85693809D01*
X123063095Y-85550952D01*
X123110714Y-85360476D01*
X123158333Y-85265238D01*
X123253571Y-85170000D01*
X123396428Y-85122380D01*
X123491666Y-85122380D01*
X123634523Y-85170000D01*
X123682142Y-85217619D01*
X124634523Y-86122380D02*
X124063095Y-86122380D01*
X124348809Y-86122380D02*
X124348809Y-85122380D01*
X124253571Y-85265238D01*
X124158333Y-85360476D01*
X124063095Y-85408095D01*
X125205952Y-85550952D02*
X125110714Y-85503333D01*
X125063095Y-85455714D01*
X125015476Y-85360476D01*
X125015476Y-85312857D01*
X125063095Y-85217619D01*
X125110714Y-85170000D01*
X125205952Y-85122380D01*
X125396428Y-85122380D01*
X125491666Y-85170000D01*
X125539285Y-85217619D01*
X125586904Y-85312857D01*
X125586904Y-85360476D01*
X125539285Y-85455714D01*
X125491666Y-85503333D01*
X125396428Y-85550952D01*
X125205952Y-85550952D01*
X125110714Y-85598571D01*
X125063095Y-85646190D01*
X125015476Y-85741428D01*
X125015476Y-85931904D01*
X125063095Y-86027142D01*
X125110714Y-86074761D01*
X125205952Y-86122380D01*
X125396428Y-86122380D01*
X125491666Y-86074761D01*
X125539285Y-86027142D01*
X125586904Y-85931904D01*
X125586904Y-85741428D01*
X125539285Y-85646190D01*
X125491666Y-85598571D01*
X125396428Y-85550952D01*
X127187142Y-84917857D02*
X127234761Y-84965476D01*
X127282380Y-85108333D01*
X127282380Y-85203571D01*
X127234761Y-85346428D01*
X127139523Y-85441666D01*
X127044285Y-85489285D01*
X126853809Y-85536904D01*
X126710952Y-85536904D01*
X126520476Y-85489285D01*
X126425238Y-85441666D01*
X126330000Y-85346428D01*
X126282380Y-85203571D01*
X126282380Y-85108333D01*
X126330000Y-84965476D01*
X126377619Y-84917857D01*
X127282380Y-83965476D02*
X127282380Y-84536904D01*
X127282380Y-84251190D02*
X126282380Y-84251190D01*
X126425238Y-84346428D01*
X126520476Y-84441666D01*
X126568095Y-84536904D01*
X127282380Y-83489285D02*
X127282380Y-83298809D01*
X127234761Y-83203571D01*
X127187142Y-83155952D01*
X127044285Y-83060714D01*
X126853809Y-83013095D01*
X126472857Y-83013095D01*
X126377619Y-83060714D01*
X126330000Y-83108333D01*
X126282380Y-83203571D01*
X126282380Y-83394047D01*
X126330000Y-83489285D01*
X126377619Y-83536904D01*
X126472857Y-83584523D01*
X126710952Y-83584523D01*
X126806190Y-83536904D01*
X126853809Y-83489285D01*
X126901428Y-83394047D01*
X126901428Y-83203571D01*
X126853809Y-83108333D01*
X126806190Y-83060714D01*
X126710952Y-83013095D01*
X123487142Y-84842857D02*
X123534761Y-84890476D01*
X123582380Y-85033333D01*
X123582380Y-85128571D01*
X123534761Y-85271428D01*
X123439523Y-85366666D01*
X123344285Y-85414285D01*
X123153809Y-85461904D01*
X123010952Y-85461904D01*
X122820476Y-85414285D01*
X122725238Y-85366666D01*
X122630000Y-85271428D01*
X122582380Y-85128571D01*
X122582380Y-85033333D01*
X122630000Y-84890476D01*
X122677619Y-84842857D01*
X122677619Y-84461904D02*
X122630000Y-84414285D01*
X122582380Y-84319047D01*
X122582380Y-84080952D01*
X122630000Y-83985714D01*
X122677619Y-83938095D01*
X122772857Y-83890476D01*
X122868095Y-83890476D01*
X123010952Y-83938095D01*
X123582380Y-84509523D01*
X123582380Y-83890476D01*
X122582380Y-83271428D02*
X122582380Y-83176190D01*
X122630000Y-83080952D01*
X122677619Y-83033333D01*
X122772857Y-82985714D01*
X122963333Y-82938095D01*
X123201428Y-82938095D01*
X123391904Y-82985714D01*
X123487142Y-83033333D01*
X123534761Y-83080952D01*
X123582380Y-83176190D01*
X123582380Y-83271428D01*
X123534761Y-83366666D01*
X123487142Y-83414285D01*
X123391904Y-83461904D01*
X123201428Y-83509523D01*
X122963333Y-83509523D01*
X122772857Y-83461904D01*
X122677619Y-83414285D01*
X122630000Y-83366666D01*
X122582380Y-83271428D01*
X138487142Y-87167857D02*
X138534761Y-87215476D01*
X138582380Y-87358333D01*
X138582380Y-87453571D01*
X138534761Y-87596428D01*
X138439523Y-87691666D01*
X138344285Y-87739285D01*
X138153809Y-87786904D01*
X138010952Y-87786904D01*
X137820476Y-87739285D01*
X137725238Y-87691666D01*
X137630000Y-87596428D01*
X137582380Y-87453571D01*
X137582380Y-87358333D01*
X137630000Y-87215476D01*
X137677619Y-87167857D01*
X137677619Y-86786904D02*
X137630000Y-86739285D01*
X137582380Y-86644047D01*
X137582380Y-86405952D01*
X137630000Y-86310714D01*
X137677619Y-86263095D01*
X137772857Y-86215476D01*
X137868095Y-86215476D01*
X138010952Y-86263095D01*
X138582380Y-86834523D01*
X138582380Y-86215476D01*
X138582380Y-85263095D02*
X138582380Y-85834523D01*
X138582380Y-85548809D02*
X137582380Y-85548809D01*
X137725238Y-85644047D01*
X137820476Y-85739285D01*
X137868095Y-85834523D01*
X143582142Y-71427142D02*
X143534523Y-71474761D01*
X143391666Y-71522380D01*
X143296428Y-71522380D01*
X143153571Y-71474761D01*
X143058333Y-71379523D01*
X143010714Y-71284285D01*
X142963095Y-71093809D01*
X142963095Y-70950952D01*
X143010714Y-70760476D01*
X143058333Y-70665238D01*
X143153571Y-70570000D01*
X143296428Y-70522380D01*
X143391666Y-70522380D01*
X143534523Y-70570000D01*
X143582142Y-70617619D01*
X143963095Y-70617619D02*
X144010714Y-70570000D01*
X144105952Y-70522380D01*
X144344047Y-70522380D01*
X144439285Y-70570000D01*
X144486904Y-70617619D01*
X144534523Y-70712857D01*
X144534523Y-70808095D01*
X144486904Y-70950952D01*
X143915476Y-71522380D01*
X144534523Y-71522380D01*
X144915476Y-70617619D02*
X144963095Y-70570000D01*
X145058333Y-70522380D01*
X145296428Y-70522380D01*
X145391666Y-70570000D01*
X145439285Y-70617619D01*
X145486904Y-70712857D01*
X145486904Y-70808095D01*
X145439285Y-70950952D01*
X144867857Y-71522380D01*
X145486904Y-71522380D01*
X145457142Y-72657142D02*
X145409523Y-72704761D01*
X145266666Y-72752380D01*
X145171428Y-72752380D01*
X145028571Y-72704761D01*
X144933333Y-72609523D01*
X144885714Y-72514285D01*
X144838095Y-72323809D01*
X144838095Y-72180952D01*
X144885714Y-71990476D01*
X144933333Y-71895238D01*
X145028571Y-71800000D01*
X145171428Y-71752380D01*
X145266666Y-71752380D01*
X145409523Y-71800000D01*
X145457142Y-71847619D01*
X145838095Y-71847619D02*
X145885714Y-71800000D01*
X145980952Y-71752380D01*
X146219047Y-71752380D01*
X146314285Y-71800000D01*
X146361904Y-71847619D01*
X146409523Y-71942857D01*
X146409523Y-72038095D01*
X146361904Y-72180952D01*
X145790476Y-72752380D01*
X146409523Y-72752380D01*
X146742857Y-71752380D02*
X147361904Y-71752380D01*
X147028571Y-72133333D01*
X147171428Y-72133333D01*
X147266666Y-72180952D01*
X147314285Y-72228571D01*
X147361904Y-72323809D01*
X147361904Y-72561904D01*
X147314285Y-72657142D01*
X147266666Y-72704761D01*
X147171428Y-72752380D01*
X146885714Y-72752380D01*
X146790476Y-72704761D01*
X146742857Y-72657142D01*
X158033333Y-83912380D02*
X157557142Y-83912380D01*
X157557142Y-82912380D01*
X158890476Y-83912380D02*
X158319047Y-83912380D01*
X158604761Y-83912380D02*
X158604761Y-82912380D01*
X158509523Y-83055238D01*
X158414285Y-83150476D01*
X158319047Y-83198095D01*
X149484380Y-78244666D02*
X149484380Y-78720857D01*
X148484380Y-78720857D01*
X148579619Y-77958952D02*
X148532000Y-77911333D01*
X148484380Y-77816095D01*
X148484380Y-77578000D01*
X148532000Y-77482761D01*
X148579619Y-77435142D01*
X148674857Y-77387523D01*
X148770095Y-77387523D01*
X148912952Y-77435142D01*
X149484380Y-78006571D01*
X149484380Y-77387523D01*
X140947619Y-73945238D02*
X140900000Y-74040476D01*
X140804761Y-74135714D01*
X140661904Y-74278571D01*
X140614285Y-74373809D01*
X140614285Y-74469047D01*
X140852380Y-74421428D02*
X140804761Y-74516666D01*
X140709523Y-74611904D01*
X140519047Y-74659523D01*
X140185714Y-74659523D01*
X139995238Y-74611904D01*
X139900000Y-74516666D01*
X139852380Y-74421428D01*
X139852380Y-74230952D01*
X139900000Y-74135714D01*
X139995238Y-74040476D01*
X140185714Y-73992857D01*
X140519047Y-73992857D01*
X140709523Y-74040476D01*
X140804761Y-74135714D01*
X140852380Y-74230952D01*
X140852380Y-74421428D01*
X140852380Y-73040476D02*
X140852380Y-73611904D01*
X140852380Y-73326190D02*
X139852380Y-73326190D01*
X139995238Y-73421428D01*
X140090476Y-73516666D01*
X140138095Y-73611904D01*
X137782380Y-105591666D02*
X137306190Y-105925000D01*
X137782380Y-106163095D02*
X136782380Y-106163095D01*
X136782380Y-105782142D01*
X136830000Y-105686904D01*
X136877619Y-105639285D01*
X136972857Y-105591666D01*
X137115714Y-105591666D01*
X137210952Y-105639285D01*
X137258571Y-105686904D01*
X137306190Y-105782142D01*
X137306190Y-106163095D01*
X137782380Y-104639285D02*
X137782380Y-105210714D01*
X137782380Y-104925000D02*
X136782380Y-104925000D01*
X136925238Y-105020238D01*
X137020476Y-105115476D01*
X137068095Y-105210714D01*
X136572380Y-109841666D02*
X136096190Y-110175000D01*
X136572380Y-110413095D02*
X135572380Y-110413095D01*
X135572380Y-110032142D01*
X135620000Y-109936904D01*
X135667619Y-109889285D01*
X135762857Y-109841666D01*
X135905714Y-109841666D01*
X136000952Y-109889285D01*
X136048571Y-109936904D01*
X136096190Y-110032142D01*
X136096190Y-110413095D01*
X135667619Y-109460714D02*
X135620000Y-109413095D01*
X135572380Y-109317857D01*
X135572380Y-109079761D01*
X135620000Y-108984523D01*
X135667619Y-108936904D01*
X135762857Y-108889285D01*
X135858095Y-108889285D01*
X136000952Y-108936904D01*
X136572380Y-109508333D01*
X136572380Y-108889285D01*
X144858333Y-108172380D02*
X144525000Y-107696190D01*
X144286904Y-108172380D02*
X144286904Y-107172380D01*
X144667857Y-107172380D01*
X144763095Y-107220000D01*
X144810714Y-107267619D01*
X144858333Y-107362857D01*
X144858333Y-107505714D01*
X144810714Y-107600952D01*
X144763095Y-107648571D01*
X144667857Y-107696190D01*
X144286904Y-107696190D01*
X145191666Y-107172380D02*
X145810714Y-107172380D01*
X145477380Y-107553333D01*
X145620238Y-107553333D01*
X145715476Y-107600952D01*
X145763095Y-107648571D01*
X145810714Y-107743809D01*
X145810714Y-107981904D01*
X145763095Y-108077142D01*
X145715476Y-108124761D01*
X145620238Y-108172380D01*
X145334523Y-108172380D01*
X145239285Y-108124761D01*
X145191666Y-108077142D01*
X131258333Y-107222380D02*
X130925000Y-106746190D01*
X130686904Y-107222380D02*
X130686904Y-106222380D01*
X131067857Y-106222380D01*
X131163095Y-106270000D01*
X131210714Y-106317619D01*
X131258333Y-106412857D01*
X131258333Y-106555714D01*
X131210714Y-106650952D01*
X131163095Y-106698571D01*
X131067857Y-106746190D01*
X130686904Y-106746190D01*
X132115476Y-106555714D02*
X132115476Y-107222380D01*
X131877380Y-106174761D02*
X131639285Y-106889047D01*
X132258333Y-106889047D01*
X132882380Y-88641666D02*
X132406190Y-88975000D01*
X132882380Y-89213095D02*
X131882380Y-89213095D01*
X131882380Y-88832142D01*
X131930000Y-88736904D01*
X131977619Y-88689285D01*
X132072857Y-88641666D01*
X132215714Y-88641666D01*
X132310952Y-88689285D01*
X132358571Y-88736904D01*
X132406190Y-88832142D01*
X132406190Y-89213095D01*
X131882380Y-87784523D02*
X131882380Y-87975000D01*
X131930000Y-88070238D01*
X131977619Y-88117857D01*
X132120476Y-88213095D01*
X132310952Y-88260714D01*
X132691904Y-88260714D01*
X132787142Y-88213095D01*
X132834761Y-88165476D01*
X132882380Y-88070238D01*
X132882380Y-87879761D01*
X132834761Y-87784523D01*
X132787142Y-87736904D01*
X132691904Y-87689285D01*
X132453809Y-87689285D01*
X132358571Y-87736904D01*
X132310952Y-87784523D01*
X132263333Y-87879761D01*
X132263333Y-88070238D01*
X132310952Y-88165476D01*
X132358571Y-88213095D01*
X132453809Y-88260714D01*
X129182380Y-88141666D02*
X128706190Y-88475000D01*
X129182380Y-88713095D02*
X128182380Y-88713095D01*
X128182380Y-88332142D01*
X128230000Y-88236904D01*
X128277619Y-88189285D01*
X128372857Y-88141666D01*
X128515714Y-88141666D01*
X128610952Y-88189285D01*
X128658571Y-88236904D01*
X128706190Y-88332142D01*
X128706190Y-88713095D01*
X128182380Y-87808333D02*
X128182380Y-87141666D01*
X129182380Y-87570238D01*
X124422380Y-80591666D02*
X123946190Y-80925000D01*
X124422380Y-81163095D02*
X123422380Y-81163095D01*
X123422380Y-80782142D01*
X123470000Y-80686904D01*
X123517619Y-80639285D01*
X123612857Y-80591666D01*
X123755714Y-80591666D01*
X123850952Y-80639285D01*
X123898571Y-80686904D01*
X123946190Y-80782142D01*
X123946190Y-81163095D01*
X123850952Y-80020238D02*
X123803333Y-80115476D01*
X123755714Y-80163095D01*
X123660476Y-80210714D01*
X123612857Y-80210714D01*
X123517619Y-80163095D01*
X123470000Y-80115476D01*
X123422380Y-80020238D01*
X123422380Y-79829761D01*
X123470000Y-79734523D01*
X123517619Y-79686904D01*
X123612857Y-79639285D01*
X123660476Y-79639285D01*
X123755714Y-79686904D01*
X123803333Y-79734523D01*
X123850952Y-79829761D01*
X123850952Y-80020238D01*
X123898571Y-80115476D01*
X123946190Y-80163095D01*
X124041428Y-80210714D01*
X124231904Y-80210714D01*
X124327142Y-80163095D01*
X124374761Y-80115476D01*
X124422380Y-80020238D01*
X124422380Y-79829761D01*
X124374761Y-79734523D01*
X124327142Y-79686904D01*
X124231904Y-79639285D01*
X124041428Y-79639285D01*
X123946190Y-79686904D01*
X123898571Y-79734523D01*
X123850952Y-79829761D01*
X130882380Y-88166666D02*
X130406190Y-88500000D01*
X130882380Y-88738095D02*
X129882380Y-88738095D01*
X129882380Y-88357142D01*
X129930000Y-88261904D01*
X129977619Y-88214285D01*
X130072857Y-88166666D01*
X130215714Y-88166666D01*
X130310952Y-88214285D01*
X130358571Y-88261904D01*
X130406190Y-88357142D01*
X130406190Y-88738095D01*
X130882380Y-87690476D02*
X130882380Y-87500000D01*
X130834761Y-87404761D01*
X130787142Y-87357142D01*
X130644285Y-87261904D01*
X130453809Y-87214285D01*
X130072857Y-87214285D01*
X129977619Y-87261904D01*
X129930000Y-87309523D01*
X129882380Y-87404761D01*
X129882380Y-87595238D01*
X129930000Y-87690476D01*
X129977619Y-87738095D01*
X130072857Y-87785714D01*
X130310952Y-87785714D01*
X130406190Y-87738095D01*
X130453809Y-87690476D01*
X130501428Y-87595238D01*
X130501428Y-87404761D01*
X130453809Y-87309523D01*
X130406190Y-87261904D01*
X130310952Y-87214285D01*
X131232142Y-93482380D02*
X130898809Y-93006190D01*
X130660714Y-93482380D02*
X130660714Y-92482380D01*
X131041666Y-92482380D01*
X131136904Y-92530000D01*
X131184523Y-92577619D01*
X131232142Y-92672857D01*
X131232142Y-92815714D01*
X131184523Y-92910952D01*
X131136904Y-92958571D01*
X131041666Y-93006190D01*
X130660714Y-93006190D01*
X132184523Y-93482380D02*
X131613095Y-93482380D01*
X131898809Y-93482380D02*
X131898809Y-92482380D01*
X131803571Y-92625238D01*
X131708333Y-92720476D01*
X131613095Y-92768095D01*
X132803571Y-92482380D02*
X132898809Y-92482380D01*
X132994047Y-92530000D01*
X133041666Y-92577619D01*
X133089285Y-92672857D01*
X133136904Y-92863333D01*
X133136904Y-93101428D01*
X133089285Y-93291904D01*
X133041666Y-93387142D01*
X132994047Y-93434761D01*
X132898809Y-93482380D01*
X132803571Y-93482380D01*
X132708333Y-93434761D01*
X132660714Y-93387142D01*
X132613095Y-93291904D01*
X132565476Y-93101428D01*
X132565476Y-92863333D01*
X132613095Y-92672857D01*
X132660714Y-92577619D01*
X132708333Y-92530000D01*
X132803571Y-92482380D01*
X134682380Y-89542857D02*
X134206190Y-89876190D01*
X134682380Y-90114285D02*
X133682380Y-90114285D01*
X133682380Y-89733333D01*
X133730000Y-89638095D01*
X133777619Y-89590476D01*
X133872857Y-89542857D01*
X134015714Y-89542857D01*
X134110952Y-89590476D01*
X134158571Y-89638095D01*
X134206190Y-89733333D01*
X134206190Y-90114285D01*
X134682380Y-88590476D02*
X134682380Y-89161904D01*
X134682380Y-88876190D02*
X133682380Y-88876190D01*
X133825238Y-88971428D01*
X133920476Y-89066666D01*
X133968095Y-89161904D01*
X134682380Y-87638095D02*
X134682380Y-88209523D01*
X134682380Y-87923809D02*
X133682380Y-87923809D01*
X133825238Y-88019047D01*
X133920476Y-88114285D01*
X133968095Y-88209523D01*
X123582380Y-88617857D02*
X123106190Y-88951190D01*
X123582380Y-89189285D02*
X122582380Y-89189285D01*
X122582380Y-88808333D01*
X122630000Y-88713095D01*
X122677619Y-88665476D01*
X122772857Y-88617857D01*
X122915714Y-88617857D01*
X123010952Y-88665476D01*
X123058571Y-88713095D01*
X123106190Y-88808333D01*
X123106190Y-89189285D01*
X123582380Y-87665476D02*
X123582380Y-88236904D01*
X123582380Y-87951190D02*
X122582380Y-87951190D01*
X122725238Y-88046428D01*
X122820476Y-88141666D01*
X122868095Y-88236904D01*
X122677619Y-87284523D02*
X122630000Y-87236904D01*
X122582380Y-87141666D01*
X122582380Y-86903571D01*
X122630000Y-86808333D01*
X122677619Y-86760714D01*
X122772857Y-86713095D01*
X122868095Y-86713095D01*
X123010952Y-86760714D01*
X123582380Y-87332142D01*
X123582380Y-86713095D01*
X125282380Y-84867857D02*
X124806190Y-85201190D01*
X125282380Y-85439285D02*
X124282380Y-85439285D01*
X124282380Y-85058333D01*
X124330000Y-84963095D01*
X124377619Y-84915476D01*
X124472857Y-84867857D01*
X124615714Y-84867857D01*
X124710952Y-84915476D01*
X124758571Y-84963095D01*
X124806190Y-85058333D01*
X124806190Y-85439285D01*
X125282380Y-83915476D02*
X125282380Y-84486904D01*
X125282380Y-84201190D02*
X124282380Y-84201190D01*
X124425238Y-84296428D01*
X124520476Y-84391666D01*
X124568095Y-84486904D01*
X124282380Y-83582142D02*
X124282380Y-82963095D01*
X124663333Y-83296428D01*
X124663333Y-83153571D01*
X124710952Y-83058333D01*
X124758571Y-83010714D01*
X124853809Y-82963095D01*
X125091904Y-82963095D01*
X125187142Y-83010714D01*
X125234761Y-83058333D01*
X125282380Y-83153571D01*
X125282380Y-83439285D01*
X125234761Y-83534523D01*
X125187142Y-83582142D01*
X137307142Y-70272380D02*
X136973809Y-69796190D01*
X136735714Y-70272380D02*
X136735714Y-69272380D01*
X137116666Y-69272380D01*
X137211904Y-69320000D01*
X137259523Y-69367619D01*
X137307142Y-69462857D01*
X137307142Y-69605714D01*
X137259523Y-69700952D01*
X137211904Y-69748571D01*
X137116666Y-69796190D01*
X136735714Y-69796190D01*
X138259523Y-70272380D02*
X137688095Y-70272380D01*
X137973809Y-70272380D02*
X137973809Y-69272380D01*
X137878571Y-69415238D01*
X137783333Y-69510476D01*
X137688095Y-69558095D01*
X139116666Y-69605714D02*
X139116666Y-70272380D01*
X138878571Y-69224761D02*
X138640476Y-69939047D01*
X139259523Y-69939047D01*
X121982380Y-86067857D02*
X121506190Y-86401190D01*
X121982380Y-86639285D02*
X120982380Y-86639285D01*
X120982380Y-86258333D01*
X121030000Y-86163095D01*
X121077619Y-86115476D01*
X121172857Y-86067857D01*
X121315714Y-86067857D01*
X121410952Y-86115476D01*
X121458571Y-86163095D01*
X121506190Y-86258333D01*
X121506190Y-86639285D01*
X121982380Y-85115476D02*
X121982380Y-85686904D01*
X121982380Y-85401190D02*
X120982380Y-85401190D01*
X121125238Y-85496428D01*
X121220476Y-85591666D01*
X121268095Y-85686904D01*
X120982380Y-84210714D02*
X120982380Y-84686904D01*
X121458571Y-84734523D01*
X121410952Y-84686904D01*
X121363333Y-84591666D01*
X121363333Y-84353571D01*
X121410952Y-84258333D01*
X121458571Y-84210714D01*
X121553809Y-84163095D01*
X121791904Y-84163095D01*
X121887142Y-84210714D01*
X121934761Y-84258333D01*
X121982380Y-84353571D01*
X121982380Y-84591666D01*
X121934761Y-84686904D01*
X121887142Y-84734523D01*
X121982380Y-82342857D02*
X121506190Y-82676190D01*
X121982380Y-82914285D02*
X120982380Y-82914285D01*
X120982380Y-82533333D01*
X121030000Y-82438095D01*
X121077619Y-82390476D01*
X121172857Y-82342857D01*
X121315714Y-82342857D01*
X121410952Y-82390476D01*
X121458571Y-82438095D01*
X121506190Y-82533333D01*
X121506190Y-82914285D01*
X121982380Y-81390476D02*
X121982380Y-81961904D01*
X121982380Y-81676190D02*
X120982380Y-81676190D01*
X121125238Y-81771428D01*
X121220476Y-81866666D01*
X121268095Y-81961904D01*
X120982380Y-80533333D02*
X120982380Y-80723809D01*
X121030000Y-80819047D01*
X121077619Y-80866666D01*
X121220476Y-80961904D01*
X121410952Y-81009523D01*
X121791904Y-81009523D01*
X121887142Y-80961904D01*
X121934761Y-80914285D01*
X121982380Y-80819047D01*
X121982380Y-80628571D01*
X121934761Y-80533333D01*
X121887142Y-80485714D01*
X121791904Y-80438095D01*
X121553809Y-80438095D01*
X121458571Y-80485714D01*
X121410952Y-80533333D01*
X121363333Y-80628571D01*
X121363333Y-80819047D01*
X121410952Y-80914285D01*
X121458571Y-80961904D01*
X121553809Y-81009523D01*
X145938095Y-94554380D02*
X146509523Y-94554380D01*
X146223809Y-95554380D02*
X146223809Y-94554380D01*
X146842857Y-95554380D02*
X146842857Y-94554380D01*
X147223809Y-94554380D01*
X147319047Y-94602000D01*
X147366666Y-94649619D01*
X147414285Y-94744857D01*
X147414285Y-94887714D01*
X147366666Y-94982952D01*
X147319047Y-95030571D01*
X147223809Y-95078190D01*
X146842857Y-95078190D01*
X148366666Y-95554380D02*
X147795238Y-95554380D01*
X148080952Y-95554380D02*
X148080952Y-94554380D01*
X147985714Y-94697238D01*
X147890476Y-94792476D01*
X147795238Y-94840095D01*
X168713095Y-89504380D02*
X169284523Y-89504380D01*
X168998809Y-90504380D02*
X168998809Y-89504380D01*
X169617857Y-90504380D02*
X169617857Y-89504380D01*
X169998809Y-89504380D01*
X170094047Y-89552000D01*
X170141666Y-89599619D01*
X170189285Y-89694857D01*
X170189285Y-89837714D01*
X170141666Y-89932952D01*
X170094047Y-89980571D01*
X169998809Y-90028190D01*
X169617857Y-90028190D01*
X170570238Y-89599619D02*
X170617857Y-89552000D01*
X170713095Y-89504380D01*
X170951190Y-89504380D01*
X171046428Y-89552000D01*
X171094047Y-89599619D01*
X171141666Y-89694857D01*
X171141666Y-89790095D01*
X171094047Y-89932952D01*
X170522619Y-90504380D01*
X171141666Y-90504380D01*
X127488095Y-103904380D02*
X128059523Y-103904380D01*
X127773809Y-104904380D02*
X127773809Y-103904380D01*
X128392857Y-104904380D02*
X128392857Y-103904380D01*
X128773809Y-103904380D01*
X128869047Y-103952000D01*
X128916666Y-103999619D01*
X128964285Y-104094857D01*
X128964285Y-104237714D01*
X128916666Y-104332952D01*
X128869047Y-104380571D01*
X128773809Y-104428190D01*
X128392857Y-104428190D01*
X129297619Y-103904380D02*
X129916666Y-103904380D01*
X129583333Y-104285333D01*
X129726190Y-104285333D01*
X129821428Y-104332952D01*
X129869047Y-104380571D01*
X129916666Y-104475809D01*
X129916666Y-104713904D01*
X129869047Y-104809142D01*
X129821428Y-104856761D01*
X129726190Y-104904380D01*
X129440476Y-104904380D01*
X129345238Y-104856761D01*
X129297619Y-104809142D01*
X123838095Y-72704380D02*
X124409523Y-72704380D01*
X124123809Y-73704380D02*
X124123809Y-72704380D01*
X124742857Y-73704380D02*
X124742857Y-72704380D01*
X125123809Y-72704380D01*
X125219047Y-72752000D01*
X125266666Y-72799619D01*
X125314285Y-72894857D01*
X125314285Y-73037714D01*
X125266666Y-73132952D01*
X125219047Y-73180571D01*
X125123809Y-73228190D01*
X124742857Y-73228190D01*
X126171428Y-73037714D02*
X126171428Y-73704380D01*
X125933333Y-72656761D02*
X125695238Y-73371047D01*
X126314285Y-73371047D01*
X138288095Y-94754380D02*
X138859523Y-94754380D01*
X138573809Y-95754380D02*
X138573809Y-94754380D01*
X139192857Y-95754380D02*
X139192857Y-94754380D01*
X139573809Y-94754380D01*
X139669047Y-94802000D01*
X139716666Y-94849619D01*
X139764285Y-94944857D01*
X139764285Y-95087714D01*
X139716666Y-95182952D01*
X139669047Y-95230571D01*
X139573809Y-95278190D01*
X139192857Y-95278190D01*
X140669047Y-94754380D02*
X140192857Y-94754380D01*
X140145238Y-95230571D01*
X140192857Y-95182952D01*
X140288095Y-95135333D01*
X140526190Y-95135333D01*
X140621428Y-95182952D01*
X140669047Y-95230571D01*
X140716666Y-95325809D01*
X140716666Y-95563904D01*
X140669047Y-95659142D01*
X140621428Y-95706761D01*
X140526190Y-95754380D01*
X140288095Y-95754380D01*
X140192857Y-95706761D01*
X140145238Y-95659142D01*
X137238095Y-81104380D02*
X137809523Y-81104380D01*
X137523809Y-82104380D02*
X137523809Y-81104380D01*
X138142857Y-82104380D02*
X138142857Y-81104380D01*
X138523809Y-81104380D01*
X138619047Y-81152000D01*
X138666666Y-81199619D01*
X138714285Y-81294857D01*
X138714285Y-81437714D01*
X138666666Y-81532952D01*
X138619047Y-81580571D01*
X138523809Y-81628190D01*
X138142857Y-81628190D01*
X139571428Y-81104380D02*
X139380952Y-81104380D01*
X139285714Y-81152000D01*
X139238095Y-81199619D01*
X139142857Y-81342476D01*
X139095238Y-81532952D01*
X139095238Y-81913904D01*
X139142857Y-82009142D01*
X139190476Y-82056761D01*
X139285714Y-82104380D01*
X139476190Y-82104380D01*
X139571428Y-82056761D01*
X139619047Y-82009142D01*
X139666666Y-81913904D01*
X139666666Y-81675809D01*
X139619047Y-81580571D01*
X139571428Y-81532952D01*
X139476190Y-81485333D01*
X139285714Y-81485333D01*
X139190476Y-81532952D01*
X139142857Y-81580571D01*
X139095238Y-81675809D01*
X116238095Y-80904380D02*
X116809523Y-80904380D01*
X116523809Y-81904380D02*
X116523809Y-80904380D01*
X117142857Y-81904380D02*
X117142857Y-80904380D01*
X117523809Y-80904380D01*
X117619047Y-80952000D01*
X117666666Y-80999619D01*
X117714285Y-81094857D01*
X117714285Y-81237714D01*
X117666666Y-81332952D01*
X117619047Y-81380571D01*
X117523809Y-81428190D01*
X117142857Y-81428190D01*
X118047619Y-80904380D02*
X118714285Y-80904380D01*
X118285714Y-81904380D01*
X129238095Y-79052380D02*
X129238095Y-79861904D01*
X129285714Y-79957142D01*
X129333333Y-80004761D01*
X129428571Y-80052380D01*
X129619047Y-80052380D01*
X129714285Y-80004761D01*
X129761904Y-79957142D01*
X129809523Y-79861904D01*
X129809523Y-79052380D01*
X130238095Y-79147619D02*
X130285714Y-79100000D01*
X130380952Y-79052380D01*
X130619047Y-79052380D01*
X130714285Y-79100000D01*
X130761904Y-79147619D01*
X130809523Y-79242857D01*
X130809523Y-79338095D01*
X130761904Y-79480952D01*
X130190476Y-80052380D01*
X130809523Y-80052380D01*
X140832142Y-109872380D02*
X140498809Y-109396190D01*
X140260714Y-109872380D02*
X140260714Y-108872380D01*
X140641666Y-108872380D01*
X140736904Y-108920000D01*
X140784523Y-108967619D01*
X140832142Y-109062857D01*
X140832142Y-109205714D01*
X140784523Y-109300952D01*
X140736904Y-109348571D01*
X140641666Y-109396190D01*
X140260714Y-109396190D01*
X141784523Y-109872380D02*
X141213095Y-109872380D01*
X141498809Y-109872380D02*
X141498809Y-108872380D01*
X141403571Y-109015238D01*
X141308333Y-109110476D01*
X141213095Y-109158095D01*
X142117857Y-108872380D02*
X142784523Y-108872380D01*
X142355952Y-109872380D01*
X154086904Y-100052380D02*
X154086904Y-99052380D01*
X154325000Y-99052380D01*
X154467857Y-99100000D01*
X154563095Y-99195238D01*
X154610714Y-99290476D01*
X154658333Y-99480952D01*
X154658333Y-99623809D01*
X154610714Y-99814285D01*
X154563095Y-99909523D01*
X154467857Y-100004761D01*
X154325000Y-100052380D01*
X154086904Y-100052380D01*
X155610714Y-100052380D02*
X155039285Y-100052380D01*
X155325000Y-100052380D02*
X155325000Y-99052380D01*
X155229761Y-99195238D01*
X155134523Y-99290476D01*
X155039285Y-99338095D01*
X141452380Y-85638095D02*
X140452380Y-85638095D01*
X140452380Y-85400000D01*
X140500000Y-85257142D01*
X140595238Y-85161904D01*
X140690476Y-85114285D01*
X140880952Y-85066666D01*
X141023809Y-85066666D01*
X141214285Y-85114285D01*
X141309523Y-85161904D01*
X141404761Y-85257142D01*
X141452380Y-85400000D01*
X141452380Y-85638095D01*
X140547619Y-84685714D02*
X140500000Y-84638095D01*
X140452380Y-84542857D01*
X140452380Y-84304761D01*
X140500000Y-84209523D01*
X140547619Y-84161904D01*
X140642857Y-84114285D01*
X140738095Y-84114285D01*
X140880952Y-84161904D01*
X141452380Y-84733333D01*
X141452380Y-84114285D01*
X158586904Y-71777380D02*
X158586904Y-70777380D01*
X158825000Y-70777380D01*
X158967857Y-70825000D01*
X159063095Y-70920238D01*
X159110714Y-71015476D01*
X159158333Y-71205952D01*
X159158333Y-71348809D01*
X159110714Y-71539285D01*
X159063095Y-71634523D01*
X158967857Y-71729761D01*
X158825000Y-71777380D01*
X158586904Y-71777380D01*
X159491666Y-70777380D02*
X160110714Y-70777380D01*
X159777380Y-71158333D01*
X159920238Y-71158333D01*
X160015476Y-71205952D01*
X160063095Y-71253571D01*
X160110714Y-71348809D01*
X160110714Y-71586904D01*
X160063095Y-71682142D01*
X160015476Y-71729761D01*
X159920238Y-71777380D01*
X159634523Y-71777380D01*
X159539285Y-71729761D01*
X159491666Y-71682142D01*
X107102380Y-67533333D02*
X107816666Y-67533333D01*
X107959523Y-67580952D01*
X108054761Y-67676190D01*
X108102380Y-67819047D01*
X108102380Y-67914285D01*
X108102380Y-66533333D02*
X108102380Y-67104761D01*
X108102380Y-66819047D02*
X107102380Y-66819047D01*
X107245238Y-66914285D01*
X107340476Y-67009523D01*
X107388095Y-67104761D01*
X116266666Y-117702380D02*
X116266666Y-118416666D01*
X116219047Y-118559523D01*
X116123809Y-118654761D01*
X115980952Y-118702380D01*
X115885714Y-118702380D01*
X116695238Y-117797619D02*
X116742857Y-117750000D01*
X116838095Y-117702380D01*
X117076190Y-117702380D01*
X117171428Y-117750000D01*
X117219047Y-117797619D01*
X117266666Y-117892857D01*
X117266666Y-117988095D01*
X117219047Y-118130952D01*
X116647619Y-118702380D01*
X117266666Y-118702380D01*
X171291666Y-92817380D02*
X171291666Y-93531666D01*
X171244047Y-93674523D01*
X171148809Y-93769761D01*
X171005952Y-93817380D01*
X170910714Y-93817380D01*
X171672619Y-92817380D02*
X172291666Y-92817380D01*
X171958333Y-93198333D01*
X172101190Y-93198333D01*
X172196428Y-93245952D01*
X172244047Y-93293571D01*
X172291666Y-93388809D01*
X172291666Y-93626904D01*
X172244047Y-93722142D01*
X172196428Y-93769761D01*
X172101190Y-93817380D01*
X171815476Y-93817380D01*
X171720238Y-93769761D01*
X171672619Y-93722142D01*
M02*
