G04 #@! TF.GenerationSoftware,KiCad,Pcbnew,5.1.4-e60b266~84~ubuntu16.04.1*
G04 #@! TF.CreationDate,2019-09-26T20:17:56+05:30*
G04 #@! TF.ProjectId,sick_kinect_powerBoard,7369636b-5f6b-4696-9e65-63745f706f77,rev?*
G04 #@! TF.SameCoordinates,Original*
G04 #@! TF.FileFunction,Soldermask,Bot*
G04 #@! TF.FilePolarity,Negative*
%FSLAX46Y46*%
G04 Gerber Fmt 4.6, Leading zero omitted, Abs format (unit mm)*
G04 Created by KiCad (PCBNEW 5.1.4-e60b266~84~ubuntu16.04.1) date 2019-09-26 20:17:56*
%MOMM*%
%LPD*%
G04 APERTURE LIST*
%ADD10C,0.100000*%
G04 APERTURE END LIST*
D10*
G36*
X114187760Y-110073343D02*
G01*
X114311793Y-110098015D01*
X114662303Y-110243201D01*
X114977753Y-110453978D01*
X115246022Y-110722247D01*
X115456799Y-111037697D01*
X115601985Y-111388207D01*
X115676000Y-111760306D01*
X115676000Y-112139694D01*
X115601985Y-112511793D01*
X115456799Y-112862303D01*
X115246022Y-113177753D01*
X114977753Y-113446022D01*
X114662303Y-113656799D01*
X114311793Y-113801985D01*
X114187760Y-113826657D01*
X113939696Y-113876000D01*
X113560304Y-113876000D01*
X113312240Y-113826657D01*
X113188207Y-113801985D01*
X112837697Y-113656799D01*
X112522247Y-113446022D01*
X112253978Y-113177753D01*
X112043201Y-112862303D01*
X111898015Y-112511793D01*
X111824000Y-112139694D01*
X111824000Y-111760306D01*
X111898015Y-111388207D01*
X112043201Y-111037697D01*
X112253978Y-110722247D01*
X112522247Y-110453978D01*
X112837697Y-110243201D01*
X113188207Y-110098015D01*
X113312240Y-110073343D01*
X113560304Y-110024000D01*
X113939696Y-110024000D01*
X114187760Y-110073343D01*
X114187760Y-110073343D01*
G37*
G36*
X119887760Y-110073343D02*
G01*
X120011793Y-110098015D01*
X120362303Y-110243201D01*
X120677753Y-110453978D01*
X120946022Y-110722247D01*
X121156799Y-111037697D01*
X121301985Y-111388207D01*
X121376000Y-111760306D01*
X121376000Y-112139694D01*
X121301985Y-112511793D01*
X121156799Y-112862303D01*
X120946022Y-113177753D01*
X120677753Y-113446022D01*
X120362303Y-113656799D01*
X120011793Y-113801985D01*
X119887760Y-113826657D01*
X119639696Y-113876000D01*
X119260304Y-113876000D01*
X119012240Y-113826657D01*
X118888207Y-113801985D01*
X118537697Y-113656799D01*
X118222247Y-113446022D01*
X117953978Y-113177753D01*
X117743201Y-112862303D01*
X117598015Y-112511793D01*
X117524000Y-112139694D01*
X117524000Y-111760306D01*
X117598015Y-111388207D01*
X117743201Y-111037697D01*
X117953978Y-110722247D01*
X118222247Y-110453978D01*
X118537697Y-110243201D01*
X118888207Y-110098015D01*
X119012240Y-110073343D01*
X119260304Y-110024000D01*
X119639696Y-110024000D01*
X119887760Y-110073343D01*
X119887760Y-110073343D01*
G37*
G36*
X119887760Y-104373343D02*
G01*
X120011793Y-104398015D01*
X120362303Y-104543201D01*
X120677753Y-104753978D01*
X120946022Y-105022247D01*
X121104646Y-105259644D01*
X121156800Y-105337699D01*
X121183826Y-105402946D01*
X121301985Y-105688207D01*
X121376000Y-106060306D01*
X121376000Y-106439694D01*
X121301985Y-106811793D01*
X121156799Y-107162303D01*
X120946022Y-107477753D01*
X120677753Y-107746022D01*
X120362303Y-107956799D01*
X120011793Y-108101985D01*
X119887760Y-108126657D01*
X119639696Y-108176000D01*
X119260304Y-108176000D01*
X119012240Y-108126657D01*
X118888207Y-108101985D01*
X118537697Y-107956799D01*
X118222247Y-107746022D01*
X117953978Y-107477753D01*
X117743201Y-107162303D01*
X117598015Y-106811793D01*
X117524000Y-106439694D01*
X117524000Y-106060306D01*
X117598015Y-105688207D01*
X117716174Y-105402946D01*
X117743200Y-105337699D01*
X117795355Y-105259644D01*
X117953978Y-105022247D01*
X118222247Y-104753978D01*
X118537697Y-104543201D01*
X118888207Y-104398015D01*
X119012240Y-104373343D01*
X119260304Y-104324000D01*
X119639696Y-104324000D01*
X119887760Y-104373343D01*
X119887760Y-104373343D01*
G37*
G36*
X115676000Y-108176000D02*
G01*
X111824000Y-108176000D01*
X111824000Y-104324000D01*
X115676000Y-104324000D01*
X115676000Y-108176000D01*
X115676000Y-108176000D01*
G37*
G36*
X175382395Y-105430546D02*
G01*
X175555466Y-105502234D01*
X175555467Y-105502235D01*
X175711227Y-105606310D01*
X175843690Y-105738773D01*
X175843691Y-105738775D01*
X175947766Y-105894534D01*
X176019454Y-106067605D01*
X176056000Y-106251333D01*
X176056000Y-106438667D01*
X176019454Y-106622395D01*
X175947766Y-106795466D01*
X175896081Y-106872818D01*
X175843690Y-106951227D01*
X175711227Y-107083690D01*
X175632818Y-107136081D01*
X175555466Y-107187766D01*
X175382395Y-107259454D01*
X175198667Y-107296000D01*
X175011333Y-107296000D01*
X174827605Y-107259454D01*
X174654534Y-107187766D01*
X174577182Y-107136081D01*
X174498773Y-107083690D01*
X174366310Y-106951227D01*
X174313919Y-106872818D01*
X174262234Y-106795466D01*
X174190546Y-106622395D01*
X174154000Y-106438667D01*
X174154000Y-106251333D01*
X174190546Y-106067605D01*
X174262234Y-105894534D01*
X174366309Y-105738775D01*
X174366310Y-105738773D01*
X174498773Y-105606310D01*
X174654533Y-105502235D01*
X174654534Y-105502234D01*
X174827605Y-105430546D01*
X175011333Y-105394000D01*
X175198667Y-105394000D01*
X175382395Y-105430546D01*
X175382395Y-105430546D01*
G37*
G36*
X171995866Y-101710527D02*
G01*
X172179501Y-101747054D01*
X172525461Y-101890356D01*
X172836817Y-102098397D01*
X173101603Y-102363183D01*
X173309644Y-102674539D01*
X173452946Y-103020499D01*
X173526000Y-103387768D01*
X173526000Y-103762232D01*
X173452946Y-104129501D01*
X173309644Y-104475461D01*
X173101603Y-104786817D01*
X172836817Y-105051603D01*
X172525461Y-105259644D01*
X172179501Y-105402946D01*
X172040746Y-105430546D01*
X171812233Y-105476000D01*
X171437767Y-105476000D01*
X171209254Y-105430546D01*
X171070499Y-105402946D01*
X170724539Y-105259644D01*
X170413183Y-105051603D01*
X170148397Y-104786817D01*
X169940356Y-104475461D01*
X169797054Y-104129501D01*
X169724000Y-103762232D01*
X169724000Y-103387768D01*
X169797054Y-103020499D01*
X169940356Y-102674539D01*
X170148397Y-102363183D01*
X170413183Y-102098397D01*
X170724539Y-101890356D01*
X171070499Y-101747054D01*
X171437767Y-101674000D01*
X171812233Y-101674000D01*
X171995866Y-101710527D01*
X171995866Y-101710527D01*
G37*
G36*
X173406119Y-95977452D02*
G01*
X173433923Y-95985886D01*
X173459540Y-95999578D01*
X173481994Y-96018006D01*
X173500422Y-96040460D01*
X173514114Y-96066077D01*
X173522548Y-96093881D01*
X173526000Y-96128927D01*
X173526000Y-99621073D01*
X173522548Y-99656119D01*
X173514114Y-99683923D01*
X173500422Y-99709540D01*
X173481994Y-99731994D01*
X173459540Y-99750422D01*
X173433923Y-99764114D01*
X173406119Y-99772548D01*
X173371073Y-99776000D01*
X169878927Y-99776000D01*
X169843881Y-99772548D01*
X169816077Y-99764114D01*
X169790460Y-99750422D01*
X169768006Y-99731994D01*
X169749578Y-99709540D01*
X169735886Y-99683923D01*
X169727452Y-99656119D01*
X169724000Y-99621073D01*
X169724000Y-96128927D01*
X169727452Y-96093881D01*
X169735886Y-96066077D01*
X169749578Y-96040460D01*
X169768006Y-96018006D01*
X169790460Y-95999578D01*
X169816077Y-95985886D01*
X169843881Y-95977452D01*
X169878927Y-95974000D01*
X173371073Y-95974000D01*
X173406119Y-95977452D01*
X173406119Y-95977452D01*
G37*
G36*
X175832395Y-74430546D02*
G01*
X176005466Y-74502234D01*
X176005467Y-74502235D01*
X176161227Y-74606310D01*
X176293690Y-74738773D01*
X176293691Y-74738775D01*
X176397766Y-74894534D01*
X176469454Y-75067605D01*
X176506000Y-75251333D01*
X176506000Y-75438667D01*
X176469454Y-75622395D01*
X176397766Y-75795466D01*
X176397765Y-75795467D01*
X176293690Y-75951227D01*
X176161227Y-76083690D01*
X176082818Y-76136081D01*
X176005466Y-76187766D01*
X175832395Y-76259454D01*
X175648667Y-76296000D01*
X175461333Y-76296000D01*
X175277605Y-76259454D01*
X175104534Y-76187766D01*
X175027182Y-76136081D01*
X174948773Y-76083690D01*
X174816310Y-75951227D01*
X174712235Y-75795467D01*
X174712234Y-75795466D01*
X174640546Y-75622395D01*
X174604000Y-75438667D01*
X174604000Y-75251333D01*
X174640546Y-75067605D01*
X174712234Y-74894534D01*
X174816309Y-74738775D01*
X174816310Y-74738773D01*
X174948773Y-74606310D01*
X175104533Y-74502235D01*
X175104534Y-74502234D01*
X175277605Y-74430546D01*
X175461333Y-74394000D01*
X175648667Y-74394000D01*
X175832395Y-74430546D01*
X175832395Y-74430546D01*
G37*
G36*
X172445866Y-70710527D02*
G01*
X172629501Y-70747054D01*
X172975461Y-70890356D01*
X173286817Y-71098397D01*
X173551603Y-71363183D01*
X173759644Y-71674539D01*
X173902946Y-72020499D01*
X173976000Y-72387768D01*
X173976000Y-72762232D01*
X173902946Y-73129501D01*
X173759644Y-73475461D01*
X173551603Y-73786817D01*
X173286817Y-74051603D01*
X172975461Y-74259644D01*
X172629501Y-74402946D01*
X172490746Y-74430546D01*
X172262233Y-74476000D01*
X171887767Y-74476000D01*
X171659254Y-74430546D01*
X171520499Y-74402946D01*
X171174539Y-74259644D01*
X170863183Y-74051603D01*
X170598397Y-73786817D01*
X170390356Y-73475461D01*
X170247054Y-73129501D01*
X170174000Y-72762232D01*
X170174000Y-72387768D01*
X170247054Y-72020499D01*
X170390356Y-71674539D01*
X170598397Y-71363183D01*
X170863183Y-71098397D01*
X171174539Y-70890356D01*
X171520499Y-70747054D01*
X171704134Y-70710527D01*
X171887767Y-70674000D01*
X172262233Y-70674000D01*
X172445866Y-70710527D01*
X172445866Y-70710527D01*
G37*
G36*
X114387760Y-68173343D02*
G01*
X114511793Y-68198015D01*
X114862303Y-68343201D01*
X115177753Y-68553978D01*
X115446022Y-68822247D01*
X115656799Y-69137697D01*
X115801985Y-69488207D01*
X115876000Y-69860306D01*
X115876000Y-70239694D01*
X115801985Y-70611793D01*
X115656799Y-70962303D01*
X115446022Y-71277753D01*
X115177753Y-71546022D01*
X114862303Y-71756799D01*
X114511793Y-71901985D01*
X114387760Y-71926657D01*
X114139696Y-71976000D01*
X113760304Y-71976000D01*
X113512240Y-71926657D01*
X113388207Y-71901985D01*
X113037697Y-71756799D01*
X112722247Y-71546022D01*
X112453978Y-71277753D01*
X112243201Y-70962303D01*
X112098015Y-70611793D01*
X112024000Y-70239694D01*
X112024000Y-69860306D01*
X112098015Y-69488207D01*
X112243201Y-69137697D01*
X112453978Y-68822247D01*
X112722247Y-68553978D01*
X113037697Y-68343201D01*
X113388207Y-68198015D01*
X113512240Y-68173343D01*
X113760304Y-68124000D01*
X114139696Y-68124000D01*
X114387760Y-68173343D01*
X114387760Y-68173343D01*
G37*
G36*
X120087760Y-68173343D02*
G01*
X120211793Y-68198015D01*
X120562303Y-68343201D01*
X120877753Y-68553978D01*
X121146022Y-68822247D01*
X121356799Y-69137697D01*
X121501985Y-69488207D01*
X121576000Y-69860306D01*
X121576000Y-70239694D01*
X121501985Y-70611793D01*
X121356799Y-70962303D01*
X121146022Y-71277753D01*
X120877753Y-71546022D01*
X120562303Y-71756799D01*
X120211793Y-71901985D01*
X120087760Y-71926657D01*
X119839696Y-71976000D01*
X119460304Y-71976000D01*
X119212240Y-71926657D01*
X119088207Y-71901985D01*
X118737697Y-71756799D01*
X118422247Y-71546022D01*
X118153978Y-71277753D01*
X117943201Y-70962303D01*
X117798015Y-70611793D01*
X117724000Y-70239694D01*
X117724000Y-69860306D01*
X117798015Y-69488207D01*
X117943201Y-69137697D01*
X118153978Y-68822247D01*
X118422247Y-68553978D01*
X118737697Y-68343201D01*
X119088207Y-68198015D01*
X119212240Y-68173343D01*
X119460304Y-68124000D01*
X119839696Y-68124000D01*
X120087760Y-68173343D01*
X120087760Y-68173343D01*
G37*
G36*
X173856119Y-64977452D02*
G01*
X173883923Y-64985886D01*
X173909540Y-64999578D01*
X173931994Y-65018006D01*
X173950422Y-65040460D01*
X173964114Y-65066077D01*
X173972548Y-65093881D01*
X173976000Y-65128927D01*
X173976000Y-68621073D01*
X173972548Y-68656119D01*
X173964114Y-68683923D01*
X173950422Y-68709540D01*
X173931994Y-68731994D01*
X173909540Y-68750422D01*
X173883923Y-68764114D01*
X173856119Y-68772548D01*
X173821073Y-68776000D01*
X170328927Y-68776000D01*
X170293881Y-68772548D01*
X170266077Y-68764114D01*
X170240460Y-68750422D01*
X170218006Y-68731994D01*
X170199578Y-68709540D01*
X170185886Y-68683923D01*
X170177452Y-68656119D01*
X170174000Y-68621073D01*
X170174000Y-65128927D01*
X170177452Y-65093881D01*
X170185886Y-65066077D01*
X170199578Y-65040460D01*
X170218006Y-65018006D01*
X170240460Y-64999578D01*
X170266077Y-64985886D01*
X170293881Y-64977452D01*
X170328927Y-64974000D01*
X173821073Y-64974000D01*
X173856119Y-64977452D01*
X173856119Y-64977452D01*
G37*
G36*
X114387760Y-62473343D02*
G01*
X114511793Y-62498015D01*
X114862303Y-62643201D01*
X115177753Y-62853978D01*
X115446022Y-63122247D01*
X115656799Y-63437697D01*
X115801985Y-63788207D01*
X115876000Y-64160306D01*
X115876000Y-64539694D01*
X115801985Y-64911793D01*
X115768118Y-64993555D01*
X115669810Y-65230893D01*
X115656799Y-65262303D01*
X115446022Y-65577753D01*
X115177753Y-65846022D01*
X114862303Y-66056799D01*
X114511793Y-66201985D01*
X114387760Y-66226657D01*
X114139696Y-66276000D01*
X113760304Y-66276000D01*
X113512240Y-66226657D01*
X113388207Y-66201985D01*
X113037697Y-66056799D01*
X112722247Y-65846022D01*
X112453978Y-65577753D01*
X112243201Y-65262303D01*
X112230191Y-65230893D01*
X112131882Y-64993555D01*
X112098015Y-64911793D01*
X112024000Y-64539694D01*
X112024000Y-64160306D01*
X112098015Y-63788207D01*
X112243201Y-63437697D01*
X112453978Y-63122247D01*
X112722247Y-62853978D01*
X113037697Y-62643201D01*
X113388207Y-62498015D01*
X113512240Y-62473343D01*
X113760304Y-62424000D01*
X114139696Y-62424000D01*
X114387760Y-62473343D01*
X114387760Y-62473343D01*
G37*
G36*
X121576000Y-66276000D02*
G01*
X117724000Y-66276000D01*
X117724000Y-62424000D01*
X121576000Y-62424000D01*
X121576000Y-66276000D01*
X121576000Y-66276000D01*
G37*
M02*
